<svg width="250" height="108" viewBox="0 0 250 108" fill="none" xmlns="http://www.w3.org/2000/svg">
<g clip-path="url(#clip0_175_67173)">
<path d="M196.745 70.7139V71.5657H186.016C185.808 71.5657 185.625 71.398 185.625 71.1786V63.822C185.625 63.68 185.43 63.6284 185.352 63.7574C184.258 65.7966 179.766 72.9854 170.209 72.9854C161.342 72.9854 156.784 66.1322 156.784 60.3889C156.784 54.6456 156.784 34.7182 156.784 34.7182V33.3889C156.784 31.3497 155.287 30.4462 154.219 30.059C153.894 29.9429 153.894 29.4783 154.206 29.3492L163.594 25.4902C163.842 25.387 164.128 25.5676 164.128 25.8387V57.5495C164.128 76.4959 185.495 66.5065 185.495 59.6016C185.495 53.1484 185.495 36.5767 185.495 33.3889C185.495 31.3497 183.998 30.4462 182.93 30.059C182.605 29.9429 182.605 29.4783 182.917 29.3492L192.305 25.4902C192.553 25.387 192.839 25.5676 192.839 25.8387V66.8033C192.878 70.2751 196.745 70.7139 196.745 70.7139ZM73.6593 72.9854C64.7922 72.9854 60.2349 66.1322 60.2349 60.3889C60.2349 46.1532 73.0604 46.2565 88.9588 42.7718C88.9588 40.2034 88.9588 38.1255 88.9588 37.1188C88.9588 27.7359 84.2062 26.1742 79.675 26.1742C76.1463 26.1742 72.8911 27.5552 71.8234 30.3559C71.0161 32.4596 71.5369 33.6986 71.7583 35.4023C72.0448 37.5189 71.3286 40.1518 68.2687 40.668C65.6255 41.1198 62.4093 38.3449 64.6229 32.9759C66.7062 27.9037 74.4927 24.1092 82.3052 24.6513C89.6359 25.1546 96.3026 29.5299 96.3026 38.8611C96.3026 51.9223 96.3026 66.8033 96.3026 66.8033C96.3026 70.2751 100.17 70.7139 100.17 70.7139V71.5657H89.4536C89.2453 71.5657 89.063 71.398 89.063 71.1786V63.822C89.063 63.68 88.8677 63.6284 88.7896 63.7574C87.7088 65.8095 83.2166 72.9854 73.6593 72.9854ZM88.9718 59.5887C88.9718 55.7168 88.9718 49.5089 88.9718 44.5012C79.5057 46.3339 67.6047 47.5342 67.6047 57.5495C67.5916 76.4959 88.9718 66.5065 88.9718 59.5887ZM11.1203 66.8162V23.2961C11.1203 23.0251 10.8468 22.8444 10.5864 22.9477L1.1984 26.7938C0.872884 26.9228 0.885905 27.3874 1.21143 27.5036C2.27913 27.8908 3.77653 28.7942 3.77653 30.8334C3.77653 34.0213 3.77653 53.1355 3.77653 59.5887L3.8807 63.822V66.8033C3.8807 70.2751 0.0135091 70.7139 0.0135091 70.7139V71.5657H4.27132H10.7427H15.0005V70.7139C14.9875 70.7139 11.1203 70.2751 11.1203 66.8162ZM12.9432 6.09203H7.50049L0.000488281 16.1331H4.47965L12.9432 6.09203ZM246.133 67.3712V23.864C246.133 23.593 245.86 23.4123 245.599 23.5155L236.211 27.3745C235.886 27.5036 235.899 27.9682 236.224 28.0844C237.292 28.4716 238.79 29.375 238.79 31.4142C238.79 34.6021 238.79 53.7163 238.79 60.1695L238.894 64.4027V67.3841C238.894 70.8559 235.027 71.2947 235.027 71.2947V72.1465H239.284H245.756H250.013V71.2947C250 71.2818 246.133 70.843 246.133 67.3712ZM247.956 6.6599H242.5L235 16.6881H239.48L247.956 6.6599ZM53.0994 24.5222H46.0552V25.3741C46.0552 25.3741 51.8755 25.1417 47.3573 29.6202L31.1724 43.9979V0.387439C31.1724 0.116406 30.8989 -0.0642823 30.6385 0.0389682L21.2505 3.89795C20.925 4.02702 20.938 4.49165 21.2635 4.6078C22.3312 4.99499 23.8286 5.89843 23.8286 7.93763C23.8286 11.1255 23.8286 53.1484 23.8286 59.6145L23.9328 63.8478V66.8291C23.9328 70.3009 20.0656 70.7397 20.0656 70.7397V71.5916H24.3234H30.7948H35.0526V70.7397C35.0526 70.7397 31.1854 70.3009 31.1854 66.8291V46.4888L46.55 66.4677C49.9484 70.8946 45.7427 70.7139 45.7427 70.7139V71.5657H60.7297V70.7139C60.7297 70.7139 58.7375 71.1527 55.4953 66.842L36.8885 42.6685L51.9927 29.2589C52.0057 29.2459 52.0317 29.233 52.0448 29.2072L53.0083 28.3425C56.9276 25.1546 61.0291 25.3741 61.0291 25.3741V24.5222H57.3052H53.0994ZM153.633 25.3611C152.175 28.3812 150.547 32.2531 148.724 36.9768C146.902 41.7005 144.831 46.7727 142.514 52.2063C140.183 57.6398 137.54 63.2024 134.558 68.8941C131.576 74.5858 128.243 79.9161 124.532 84.8851C126.055 85.4658 127.344 86.1628 128.399 86.9888C129.454 87.8148 130.3 88.6795 130.964 89.5829C131.615 90.4864 132.11 91.3769 132.435 92.2804C132.761 93.1838 132.93 93.984 132.93 94.7067C132.93 96.3588 132.527 97.5461 131.732 98.2689C130.938 98.9917 130.131 99.353 129.336 99.353C128.685 99.353 128.099 99.1594 127.592 98.7593C127.084 98.3592 126.823 97.8043 126.823 97.0815C126.823 96.4362 126.836 95.8941 126.875 95.4553C126.915 95.0294 126.967 94.6293 127.045 94.2679C127.123 93.9066 127.175 93.4936 127.214 93.0289C127.253 92.5643 127.266 91.9706 127.266 91.2479C127.266 90.0992 126.941 89.0925 126.29 88.2278C125.639 87.3631 124.727 86.6403 123.568 86.0724C121.172 89.2474 118.594 92.1513 115.834 94.8229C113.073 97.4816 110.118 99.7918 106.954 101.741C103.79 103.69 100.417 105.212 96.8234 106.335C93.2296 107.458 89.4276 108.013 85.4302 108.013C81.7192 108.013 79.0239 107.419 77.3052 106.232C75.5994 105.045 74.7401 103.509 74.7401 101.637C74.7401 99.8306 75.6125 97.8559 77.3573 95.7005C79.102 93.5452 81.6672 91.5189 85.0395 89.6475C88.4119 87.7761 92.6177 86.2273 97.6307 85.0012C102.644 83.7751 108.386 83.1685 114.844 83.1685C115.573 83.1685 116.277 83.1814 116.967 83.2201C117.657 83.2589 118.334 83.3105 118.985 83.375C121.159 80.1355 123.073 76.9348 124.701 73.7598C126.342 70.5978 127.709 67.7326 128.842 65.1771C129.961 62.6217 130.821 60.5179 131.407 58.853C131.993 57.201 132.279 56.2589 132.279 56.0394C132.279 55.82 132.175 55.7168 131.954 55.7168C128.685 58.9563 125.482 61.8344 122.357 64.364C121.055 65.4482 119.675 66.4936 118.217 67.5003C116.758 68.5069 115.326 69.4233 113.907 70.2493C112.487 71.0753 111.133 71.7206 109.818 72.1982C108.516 72.6628 107.305 72.8951 106.224 72.8951C104.558 72.8951 103.412 72.495 102.787 71.7077C102.175 70.9204 101.862 69.875 101.862 68.5715C101.862 66.9195 102.24 64.9319 103.008 62.6346C103.777 60.3372 104.727 57.885 105.899 55.2909C107.058 52.6967 108.308 50.0509 109.662 47.3535C111.003 44.6561 112.253 42.0748 113.425 39.6355C114.584 37.1833 115.547 34.9763 116.316 32.9888C117.084 31.0141 117.461 29.4395 117.461 28.2909C117.461 27.6456 117.266 27.2455 116.862 27.1035C116.459 26.9615 115.938 26.8841 115.287 26.8841C114.922 26.8841 114.636 26.755 114.415 26.5098C114.193 26.2646 114.089 25.9548 114.089 25.5935C114.089 24.9481 114.415 24.6255 115.066 24.6255C115.287 24.6255 115.652 24.6384 116.159 24.6771C116.667 24.7158 117.227 24.7287 117.852 24.7287C118.464 24.7287 119.102 24.7416 119.753 24.7804C120.404 24.8191 120.99 24.832 121.498 24.832C122.514 24.832 123.373 24.8191 124.063 24.7804C124.753 24.7416 125.391 24.7287 125.964 24.7287C126.329 24.7287 126.615 24.7416 126.836 24.7804C127.058 24.8191 127.162 25.0127 127.162 25.3741C127.162 25.8 126.967 26.5614 126.563 27.6456C126.159 28.7297 125.469 30.343 124.493 32.5112C123.516 34.6666 122.227 37.4931 120.625 40.9907C119.024 44.4883 117.071 48.8635 114.74 54.1164C113.79 56.2072 113.125 57.9496 112.722 59.3564C112.318 60.7632 112.123 61.8989 112.123 62.7636C112.123 64.4931 112.813 65.3578 114.193 65.3578C115.795 65.3578 117.774 64.635 120.131 63.2024C122.487 61.7569 124.909 59.8339 127.383 57.4204C129.857 55.0069 132.214 52.2708 134.467 49.212C136.719 46.1532 138.503 43.0041 139.805 39.7646C140.964 36.951 142.006 34.2149 142.917 31.5562C143.829 28.8975 144.284 27.0132 144.284 25.9419C144.284 25.658 144.323 25.4257 144.389 25.245C144.467 25.0643 144.727 24.9223 145.209 24.8191C145.678 24.7158 146.42 24.6513 147.448 24.6513C148.464 24.6513 149.883 24.6513 151.693 24.6513C152.279 24.6513 152.748 24.7029 153.112 24.8191C153.451 24.8707 153.633 25.0772 153.633 25.3611ZM118.112 84.6656C117.683 84.5882 117.24 84.5624 116.81 84.5624C116.381 84.5624 115.938 84.5624 115.508 84.5624C110.209 84.5624 105.43 85.1948 101.172 86.4467C96.9276 87.7115 93.3078 89.2603 90.326 91.093C87.3442 92.9257 85.0656 94.8745 83.464 96.9266C81.8625 98.9787 81.0682 100.799 81.0682 102.386C81.0682 103.535 81.5369 104.477 82.4875 105.2C83.438 105.922 84.8442 106.284 86.7323 106.284C90.0005 106.284 93.1125 105.69 96.0552 104.503C98.9979 103.315 101.771 101.715 104.389 99.7015C107.006 97.6881 109.454 95.3779 111.745 92.7837C114.024 90.1766 116.146 87.4792 118.112 84.6656ZM230.261 27.1809C224.506 23.4897 218.139 28.0586 212.93 33.2211V23.8769C212.93 23.6059 212.657 23.4252 212.396 23.5285L203.008 27.3874C202.683 27.5165 202.696 27.9811 203.021 28.0973C204.089 28.4845 205.586 29.3879 205.586 31.4271C205.586 34.615 205.586 53.7292 205.586 60.1824L205.691 64.4156V67.397C205.691 70.8688 201.823 71.3076 201.823 71.3076V72.1594H206.081H212.553H216.81V71.3076C216.81 71.3076 212.943 70.8688 212.943 67.397V40.5906C212.943 35.7249 217.422 28.9491 222.813 28.9491C225.079 28.9491 224.922 31.5691 225.691 33.1178C226.641 35.0409 228.698 36.8349 231.537 35.5829C233.972 34.5117 235.183 30.3301 230.261 27.1809ZM156.915 89.5959C157.5 89.5959 158.021 89.4668 158.49 89.2216C158.959 88.9634 159.323 88.615 159.584 88.1503C159.844 87.6857 159.974 87.1566 159.974 86.5371C159.974 85.9305 159.844 85.4013 159.584 84.9367C159.323 84.472 158.959 84.1107 158.49 83.8525C158.021 83.5944 157.5 83.4654 156.915 83.4654C156.433 83.4654 155.977 83.5428 155.547 83.7106C155.131 83.8654 154.779 84.1107 154.519 84.4204V80.5227H153.295V89.4281H154.493V88.5892C154.818 88.9376 155.17 89.1958 155.56 89.3635C155.925 89.5055 156.381 89.5959 156.915 89.5959ZM156.628 88.6279C156.12 88.6279 155.691 88.4988 155.313 88.2407C154.935 87.9826 154.675 87.6341 154.519 87.1824V85.8788C154.662 85.44 154.922 85.0786 155.313 84.8205C155.704 84.5495 156.146 84.4204 156.641 84.4204C157.032 84.4204 157.396 84.5108 157.722 84.6915C158.047 84.8721 158.295 85.1174 158.477 85.44C158.659 85.7627 158.75 86.1241 158.75 86.5371C158.75 86.9501 158.659 87.3114 158.477 87.6341C158.295 87.9567 158.047 88.202 157.722 88.3698C157.396 88.5375 157.032 88.6279 156.628 88.6279ZM164.519 89.5959C164.935 89.5959 165.352 89.5571 165.782 89.4926C166.211 89.4281 166.55 89.3377 166.81 89.2345V88.2536C166.524 88.3698 166.185 88.4601 165.795 88.5246C165.417 88.5892 165.04 88.6279 164.662 88.6279C163.933 88.6279 163.36 88.4988 162.93 88.2278C162.5 87.9567 162.266 87.5567 162.227 87.0017H167.357V86.3951C167.357 85.8272 167.24 85.311 166.993 84.8721C166.758 84.4204 166.394 84.072 165.925 83.8267C165.456 83.5686 164.883 83.4524 164.206 83.4524C163.191 83.4524 162.409 83.7235 161.862 84.2785C161.316 84.8334 161.042 85.582 161.042 86.5371C161.042 87.505 161.342 88.2665 161.954 88.7957C162.592 89.3248 163.438 89.5959 164.519 89.5959ZM162.24 86.1499C162.253 85.6336 162.435 85.2077 162.774 84.898C163.112 84.5882 163.594 84.4333 164.206 84.4333C164.844 84.4333 165.326 84.5882 165.678 84.8851C166.016 85.1819 166.198 85.6078 166.224 86.1499H162.24ZM170.795 89.5959C171.29 89.5959 171.706 89.5313 172.058 89.3894C172.396 89.2474 172.696 89.0409 172.956 88.7699V89.4152H174.115V85.8272C174.115 85.0786 173.881 84.4979 173.412 84.072C172.943 83.646 172.227 83.4395 171.264 83.4395C170.899 83.4395 170.521 83.4783 170.131 83.5428C169.74 83.6073 169.428 83.6977 169.18 83.8138V84.8076C169.454 84.6915 169.753 84.5882 170.092 84.5237C170.43 84.4591 170.769 84.4204 171.133 84.4204C171.732 84.4204 172.175 84.5366 172.448 84.756C172.722 84.9754 172.865 85.311 172.865 85.7756V86.0724C172.305 85.7498 171.628 85.5949 170.821 85.5949C170.066 85.5949 169.48 85.7756 169.076 86.1241C168.672 86.4725 168.464 86.9759 168.464 87.6083C168.464 88.2149 168.672 88.7053 169.102 89.0667C169.519 89.4152 170.092 89.5959 170.795 89.5959ZM171.094 88.6666C170.157 88.6666 169.701 88.3181 169.701 87.6083C169.701 87.234 169.818 86.963 170.053 86.7823C170.287 86.6016 170.639 86.5112 171.107 86.5112C171.758 86.5112 172.344 86.679 172.865 87.0146V87.8019C172.709 88.0729 172.474 88.2923 172.162 88.4343C171.836 88.5892 171.485 88.6666 171.094 88.6666ZM177.943 89.5959C178.386 89.5959 178.79 89.5184 179.167 89.3506C179.545 89.1958 179.87 88.9376 180.144 88.5892V89.4023H181.342V83.6202H180.118V87.5308C179.662 88.2665 179.011 88.6279 178.191 88.6279C177.253 88.6279 176.797 88.1633 176.797 87.2469V83.6331H175.573V87.2985C175.573 87.9955 175.769 88.5504 176.172 88.9764C176.563 89.3894 177.149 89.5959 177.943 89.5959ZM185.157 89.5959C185.612 89.5959 185.99 89.5442 186.303 89.441V88.473C186.068 88.5763 185.834 88.6279 185.599 88.6279C185.196 88.6279 184.922 88.5504 184.779 88.3827C184.623 88.2278 184.558 87.9438 184.558 87.5696V84.5753H185.99V83.6331H184.558V81.9037H183.321V83.6331H182.435V84.5753H183.321V87.6599C183.321 88.2794 183.477 88.7569 183.803 89.0925C184.115 89.4281 184.571 89.5959 185.157 89.5959ZM188.217 91.8028C188.75 91.8028 189.193 91.6609 189.519 91.3898C189.857 91.1188 190.144 90.6671 190.391 90.0734L193.021 83.6331H191.758L189.948 88.0858L188.008 83.6331H186.745L189.297 89.2732L189.024 89.9443C188.894 90.2541 188.75 90.4864 188.581 90.6284C188.425 90.7703 188.191 90.8349 187.917 90.8349C187.605 90.8349 187.344 90.7961 187.136 90.7187V91.6738C187.409 91.7512 187.774 91.8028 188.217 91.8028ZM200.756 89.5959C201.563 89.5959 202.175 89.441 202.592 89.1441C203.008 88.8473 203.217 88.4472 203.217 87.9567C203.217 87.4792 203.073 87.092 202.787 86.821C202.5 86.55 201.993 86.3047 201.25 86.1112C200.782 85.995 200.443 85.8917 200.222 85.8143C200 85.7369 199.844 85.6465 199.753 85.5433C199.662 85.44 199.61 85.298 199.61 85.1303C199.61 84.8592 199.727 84.6786 199.948 84.5753C200.17 84.472 200.508 84.4204 200.938 84.4204C201.29 84.4204 201.641 84.4591 201.993 84.5366C202.331 84.614 202.631 84.7302 202.865 84.8592V83.8525C202.644 83.7235 202.344 83.6202 201.967 83.5557C201.589 83.4783 201.211 83.4524 200.821 83.4524C200.079 83.4524 199.48 83.5944 199.037 83.8784C198.594 84.1623 198.373 84.5882 198.373 85.1432C198.373 85.4916 198.438 85.7756 198.581 85.9821C198.724 86.2015 198.933 86.3822 199.219 86.5242C199.493 86.6661 199.883 86.8081 200.352 86.9371C200.795 87.0533 201.133 87.1566 201.355 87.2469C201.576 87.3372 201.732 87.4276 201.823 87.5437C201.915 87.647 201.967 87.789 201.967 87.9697C201.967 88.202 201.862 88.3698 201.667 88.473C201.459 88.5763 201.146 88.6279 200.704 88.6279C200.313 88.6279 199.909 88.5633 199.506 88.4472C199.102 88.331 198.724 88.1762 198.412 87.9955V89.028C198.672 89.1958 199.024 89.3377 199.48 89.4281C199.922 89.5442 200.352 89.5959 200.756 89.5959ZM207.448 89.5959C208.099 89.5959 208.685 89.4668 209.193 89.2345C209.701 88.9893 210.092 88.6408 210.365 88.1762C210.639 87.7115 210.782 87.1695 210.782 86.5371C210.782 85.9176 210.639 85.3755 210.365 84.9109C210.092 84.4462 209.688 84.0849 209.193 83.8267C208.685 83.5686 208.112 83.4524 207.448 83.4524C206.797 83.4524 206.211 83.5815 205.704 83.8267C205.196 84.0849 204.818 84.4333 204.532 84.9109C204.258 85.3755 204.115 85.9176 204.115 86.5371C204.115 87.1695 204.258 87.7115 204.532 88.1762C204.805 88.6408 205.196 88.9893 205.704 89.2345C206.211 89.4797 206.797 89.5959 207.448 89.5959ZM207.448 88.6279C206.81 88.6279 206.316 88.4343 205.938 88.0471C205.56 87.6599 205.378 87.1566 205.378 86.5242C205.378 85.8788 205.56 85.3626 205.938 84.9754C206.316 84.6011 206.81 84.4075 207.448 84.4075C208.086 84.4075 208.581 84.6011 208.959 84.9754C209.336 85.3497 209.519 85.8659 209.519 86.5242C209.519 87.1566 209.336 87.6599 208.959 88.0471C208.581 88.4343 208.086 88.6279 207.448 88.6279ZM212.123 89.4152H213.347V80.5098H212.123V89.4152ZM217.253 89.5959C217.696 89.5959 218.099 89.5184 218.477 89.3506C218.855 89.1958 219.18 88.9376 219.454 88.5892V89.4023H220.652V83.6202H219.428V87.5308C218.972 88.2665 218.321 88.6279 217.5 88.6279C216.563 88.6279 216.107 88.1633 216.107 87.2469V83.6331H214.883V87.2985C214.883 87.9955 215.079 88.5504 215.482 88.9764C215.873 89.3894 216.459 89.5959 217.253 89.5959ZM224.467 89.5959C224.922 89.5959 225.3 89.5442 225.612 89.441V88.473C225.378 88.5763 225.144 88.6279 224.909 88.6279C224.506 88.6279 224.232 88.5504 224.089 88.3827C223.933 88.2278 223.868 87.9438 223.868 87.5696V84.5753H225.3V83.6331H223.868V81.9037H222.631V83.6331H221.745V84.5753H222.631V87.6599C222.631 88.2794 222.787 88.7569 223.112 89.0925C223.425 89.4281 223.881 89.5959 224.467 89.5959ZM227.487 82.4974C227.696 82.4974 227.878 82.4328 228.021 82.2909C228.165 82.1489 228.23 81.9811 228.23 81.7875C228.23 81.5939 228.165 81.4133 228.021 81.2842C227.878 81.1422 227.709 81.0777 227.487 81.0777C227.279 81.0777 227.11 81.1422 226.98 81.2842C226.836 81.4262 226.771 81.5939 226.771 81.7875C226.771 81.9811 226.836 82.1618 226.98 82.2909C227.11 82.4199 227.279 82.4974 227.487 82.4974ZM226.862 89.4152H228.112V83.6331H226.862V89.4152ZM232.878 89.5959C233.529 89.5959 234.115 89.4668 234.623 89.2345C235.131 88.9893 235.521 88.6408 235.795 88.1762C236.068 87.7115 236.211 87.1695 236.211 86.5371C236.211 85.9176 236.068 85.3755 235.795 84.9109C235.521 84.4462 235.118 84.0849 234.623 83.8267C234.115 83.5686 233.542 83.4524 232.878 83.4524C232.227 83.4524 231.641 83.5815 231.133 83.8267C230.625 84.0849 230.248 84.4333 229.961 84.9109C229.688 85.3755 229.545 85.9176 229.545 86.5371C229.545 87.1695 229.688 87.7115 229.961 88.1762C230.235 88.6408 230.625 88.9893 231.133 89.2345C231.641 89.4797 232.227 89.5959 232.878 89.5959ZM232.878 88.6279C232.24 88.6279 231.745 88.4343 231.368 88.0471C230.99 87.6599 230.808 87.1566 230.808 86.5242C230.808 85.8788 230.99 85.3626 231.368 84.9754C231.745 84.6011 232.24 84.4075 232.878 84.4075C233.516 84.4075 234.011 84.6011 234.389 84.9754C234.766 85.3497 234.948 85.8659 234.948 86.5242C234.948 87.1566 234.766 87.6599 234.389 88.0471C234.011 88.4343 233.516 88.6279 232.878 88.6279ZM237.553 89.4152H238.777V85.5175C239.024 85.1432 239.31 84.8721 239.649 84.6915C239.987 84.5108 240.352 84.4204 240.743 84.4204C241.654 84.4204 242.11 84.885 242.11 85.8272V89.4023H243.334V85.6982C243.334 85.0012 243.139 84.4591 242.761 84.0461C242.383 83.6331 241.797 83.4266 241.016 83.4266C240.573 83.4266 240.157 83.5041 239.753 83.6719C239.349 83.8396 239.011 84.0978 238.737 84.4333V83.6073H237.54V89.4152H237.553ZM246.993 89.5959C247.8 89.5959 248.412 89.441 248.829 89.1441C249.245 88.8473 249.454 88.4472 249.454 87.9567C249.454 87.4792 249.31 87.092 249.024 86.821C248.737 86.55 248.23 86.3047 247.487 86.1112C247.019 85.995 246.68 85.8917 246.459 85.8143C246.237 85.7369 246.081 85.6465 245.99 85.5433C245.899 85.44 245.847 85.298 245.847 85.1303C245.847 84.8592 245.964 84.6786 246.185 84.5753C246.407 84.472 246.745 84.4204 247.175 84.4204C247.527 84.4204 247.878 84.4591 248.23 84.5366C248.568 84.614 248.868 84.7302 249.102 84.8592V83.8525C248.881 83.7235 248.581 83.6202 248.204 83.5557C247.826 83.4783 247.448 83.4524 247.058 83.4524C246.316 83.4524 245.717 83.5944 245.274 83.8784C244.831 84.1623 244.61 84.5882 244.61 85.1432C244.61 85.4916 244.675 85.7756 244.818 85.9821C244.961 86.2015 245.17 86.3822 245.456 86.5242C245.73 86.6661 246.12 86.8081 246.589 86.9371C247.032 87.0533 247.37 87.1566 247.592 87.2469C247.813 87.3372 247.969 87.4276 248.06 87.5437C248.152 87.647 248.204 87.789 248.204 87.9697C248.204 88.202 248.099 88.3698 247.904 88.473C247.696 88.5763 247.383 88.6279 246.941 88.6279C246.55 88.6279 246.146 88.5633 245.743 88.4472C245.326 88.331 244.961 88.1762 244.649 87.9955V89.028C244.909 89.1958 245.261 89.3377 245.717 89.4281C246.159 89.5442 246.589 89.5959 246.993 89.5959ZM3.20361 90.0734C2.95622 90.2412 2.73486 90.2283 2.60465 90.1895C1.0682 89.7378 1.04215 85.4917 1.21143 81.7488C1.21143 81.6068 1.10726 81.4778 0.96403 81.4778L0.352051 81.452C0.208822 81.4391 0.0786133 81.5552 0.0786133 81.6972C-0.168783 87.1437 0.130697 90.6413 2.27913 91.2737C2.4484 91.3253 2.61768 91.3511 2.78695 91.3511C3.16455 91.3511 3.52913 91.235 3.86768 91.0026C4.45361 90.5896 5.16976 89.6475 5.32601 87.4663C5.33903 87.3243 5.22184 87.1953 5.07861 87.1824L4.46663 87.1566C4.3234 87.1437 4.20622 87.2598 4.1932 87.4018C4.04997 89.2861 3.46403 89.8927 3.20361 90.0734ZM5.8859 82.3683C7.01872 83.8396 8.08643 85.6723 7.81299 88.1374C7.79997 88.2794 7.89111 88.4085 8.03434 88.4214L8.64632 88.5117C8.78955 88.5375 8.93278 88.4343 8.9458 88.2794C9.27132 85.4013 8.0734 83.3363 6.79736 81.6714C6.70622 81.5552 6.53695 81.5294 6.41976 81.6198L5.93799 81.994C5.8208 82.0844 5.79476 82.2522 5.8859 82.3683ZM16.9927 83.93C17.201 83.1943 17.3963 82.3941 17.5656 81.5552C17.5916 81.4133 17.5005 81.2713 17.3573 81.2455L16.7583 81.1293C16.6151 81.1035 16.4718 81.1938 16.4458 81.3358C16.2765 82.2263 16.0682 83.0524 15.8338 83.8267C14.5838 83.788 13.3338 83.8913 12.7088 83.9687C12.5656 83.9816 12.4614 84.1236 12.4744 84.2655L12.5526 84.8721C12.5656 85.0141 12.6958 85.1174 12.839 85.1045C13.6333 85.0141 14.5838 84.9625 15.4692 84.9754C14.6359 87.2598 13.4901 88.9505 11.9927 90.1508C11.8755 90.2412 11.8625 90.396 11.9536 90.5122L12.3182 90.9897C12.4093 91.1059 12.5786 91.1317 12.6958 91.0285C14.4406 89.6346 15.7427 87.6857 16.6541 85.027C17.3182 85.0916 17.8521 85.2206 18.0994 85.44C18.1776 85.5046 18.1776 85.5433 18.1776 85.5691V89.5571C18.1776 89.7895 18.1125 89.9572 17.9562 90.0863C17.5135 90.4735 16.55 90.5251 16.0161 90.4993C15.8729 90.4993 15.7557 90.5896 15.7427 90.7316L15.6776 91.3382C15.6646 91.4931 15.7687 91.6221 15.925 91.635C16.0161 91.635 16.1333 91.648 16.2635 91.648C16.9536 91.648 18.0343 91.5447 18.7114 90.9381C19.102 90.5896 19.3234 90.1121 19.3234 89.5571V85.5691C19.3234 85.1948 19.1672 84.8592 18.8677 84.5882C18.438 84.2397 17.7609 84.0461 16.9927 83.93ZM19.2323 83.0782C20.1828 84.1236 20.6646 85.2206 20.7427 86.4983C20.7557 86.6403 20.8729 86.7436 21.0161 86.7436L21.6281 86.7307C21.7843 86.7307 21.9015 86.6016 21.8885 86.4596C21.8104 84.9238 21.2114 83.5557 20.0786 82.3038C19.9744 82.1876 19.8052 82.1876 19.701 82.2909L19.2583 82.7039C19.1411 82.82 19.1411 82.9749 19.2323 83.0782ZM34.9354 86.0853C34.9354 88.0213 33.2817 89.6088 31.2375 89.6088C31.1984 89.6088 31.1593 89.6088 31.1073 89.6088C30.8208 90.3186 30.4692 90.9897 30.0395 91.6092C29.9484 91.7254 29.7791 91.7641 29.6619 91.6738L29.1672 91.3124C29.05 91.235 29.0239 91.0672 29.102 90.951C29.4406 90.4735 29.7271 89.9443 29.9614 89.3894C28.5422 88.8989 27.5395 87.6083 27.5395 86.0853C27.5395 85.9821 27.5526 85.8788 27.5526 85.7627C27.5396 85.7756 27.5265 85.8014 27.5135 85.8143C26.9536 86.8081 26.9797 88.1762 27.5916 89.8927C27.6437 90.0218 27.5786 90.1637 27.4484 90.2283L26.8755 90.4606C26.7453 90.5122 26.589 90.4477 26.5369 90.3186C25.339 87.4921 25.0135 84.5753 25.5734 81.6456C25.5994 81.5036 25.7427 81.4133 25.8859 81.4391L26.4849 81.5681C26.6281 81.5939 26.7192 81.7359 26.6932 81.8779C26.4718 83.0395 26.3937 84.201 26.4849 85.3626C26.4979 85.3368 26.5109 85.311 26.5369 85.2722C27.0838 84.2914 28.0474 83.5428 29.4145 83.0265C29.7661 82.8329 30.1567 82.691 30.5604 82.6264C30.5083 82.2909 30.4562 81.9553 30.3911 81.6068C30.3651 81.4649 30.4562 81.3229 30.5994 81.2971L31.1984 81.1809C31.3416 81.1551 31.4849 81.2455 31.5109 81.3874C31.589 81.8004 31.6541 82.1876 31.7062 82.5877C33.5291 82.8071 34.9354 84.2914 34.9354 86.0853ZM30.339 88.3181C30.7036 87.0017 30.8208 85.5046 30.6906 83.8138C30.4041 83.8913 30.1437 83.9687 29.8963 84.059C29.1672 84.485 28.6854 85.2335 28.6854 86.0853C28.6854 87.1049 29.3755 87.9826 30.339 88.3181ZM33.8026 86.0853C33.8026 84.9625 32.9562 84.0074 31.8364 83.7622C31.9797 85.5046 31.8625 87.0662 31.4979 88.4601C32.7869 88.3439 33.8026 87.3243 33.8026 86.0853ZM40.8208 83.9042C40.2479 84.472 39.8573 85.1303 39.6229 85.8788C39.4145 84.614 39.4276 83.2718 39.675 81.7746C39.701 81.6327 39.6099 81.5036 39.4666 81.4778L38.8677 81.3745C38.7244 81.3487 38.5812 81.4391 38.5552 81.5939C38.0864 84.4591 38.3989 86.9372 39.5187 89.1829C39.5838 89.299 39.714 89.3506 39.8442 89.3119L40.4823 89.0925C40.5994 89.0538 40.6776 88.9247 40.6515 88.8086C40.339 87.0275 40.6515 85.724 41.6151 84.7302C41.7062 84.6269 41.7192 84.4721 41.6151 84.3688L41.1984 83.9171C41.1073 83.8009 40.925 83.8009 40.8208 83.9042ZM45.4953 81.1035L44.8833 81.1422C44.7401 81.1551 44.6229 81.2713 44.6359 81.4133C44.675 82.0457 44.7531 83.8267 44.7531 86.7565C44.7531 89.5313 42.7479 90.5122 42.0578 90.7703C41.9276 90.822 41.8625 90.951 41.9015 91.0801L42.0578 91.6609C42.0968 91.8157 42.2661 91.8932 42.4093 91.8415C43.2817 91.506 45.8989 90.2412 45.8989 86.7436C45.8989 83.7493 45.8208 81.9682 45.7817 81.3358C45.7817 81.1938 45.6515 81.0906 45.4953 81.1035Z" fill="#C84033"/>
</g>
<defs>
<clipPath id="clip0_175_67173">
<rect width="250" height="108" fill="white" transform="translate(0.000488281)"/>
</clipPath>
</defs>
</svg>
