<svg width="180" height="7" viewBox="0 0 180 7" fill="none" xmlns="http://www.w3.org/2000/svg">
<g clip-path="url(#clip0_333_1311)">
<path d="M179.999 0C179.999 0 179.999 0 179.999 0.0102941V0C179.999 0 179.999 0 179.999 0.0102941C179.999 0.0205882 179.999 0.0308823 179.99 0.0411765V0H179.999Z" fill="#C84033"/>
<path d="M177.787 0.854481C178.506 1.13242 179.463 0.679481 179.942 1.6986C179.377 1.85301 178.831 1.99713 178.276 2.15154C178.19 2.08978 178.103 2.0383 178.017 1.97654C177.95 2.16183 178.075 2.19272 178.19 2.23389C178.151 2.38831 178.132 2.65595 178.075 2.66625C175.038 3.21183 171.973 3.59272 168.975 4.30301C166.695 4.8486 164.387 4.98242 162.107 5.26036C158.918 5.64125 155.833 4.4883 152.931 3.20154C152.117 2.84125 151.36 3.03683 150.843 3.04713C147.672 3.12948 144.511 2.71772 141.35 3.04713C137.347 3.4486 133.343 3.07801 129.339 3.06772C124.904 3.05742 120.421 3.36625 116.034 2.94419C112.768 2.62507 109.531 2.82066 106.303 2.75889C102.557 2.68683 98.7547 2.71772 95.0095 3.37654C93.7259 3.60301 92.3658 3.34566 91.0535 3.4383C86.8773 3.73683 82.7202 4.22066 78.5823 4.88978C76.3121 5.26036 74.0516 4.76625 71.7815 5.00301C70.9194 5.09566 70.1915 5.18831 69.6646 6.08389C69.1666 6.91772 68.1991 6.87654 67.4233 6.90742C64.1857 7.07213 60.9577 7.03095 57.7106 6.81478C55.498 6.67066 53.4577 5.96036 51.3313 5.61036C48.9079 5.20889 46.4654 5.40448 44.042 5.07507C39.2815 4.43683 34.4443 5.03389 29.6934 4.34419C27.6531 4.04566 25.7374 4.61183 23.7643 4.6736C21.293 4.76625 18.8026 4.76625 16.3409 4.61183C13.6302 4.44713 10.9194 4.39566 8.2087 4.38536C5.96732 4.38536 3.72594 4.18978 1.54204 3.69566C0.967324 3.56183 -0.143787 3.65448 0.0190479 2.43978C0.153147 1.38978 0.909852 1.26625 1.79108 1.27654C6.68571 1.30742 11.5899 1.40007 16.4846 1.26625C21.7528 1.12213 27.0305 0.792717 32.2892 0.535364C36.1014 0.35007 39.9041 0.0824226 43.7259 0.0103638C48.5535 -0.0719892 53.2758 1.31772 58.1225 1.01919C59.5593 0.92654 61.0248 1.25595 62.4328 1.21478C67.1934 1.10154 71.8198 2.53242 76.5803 2.29566C79.6359 2.14125 82.6915 2.12066 85.7374 1.66772C87.0689 1.47213 88.4577 1.40007 89.7892 1.35889C95.9577 1.18389 102.107 0.504481 108.285 0.638305C118.554 0.864776 128.822 1.53389 139.1 1.24566C142.586 1.14272 146.082 1.07066 149.559 0.75154C152.27 0.504481 155.057 1.01919 157.711 0.545658C159.645 0.205952 161.638 0.103011 163.439 0.22654C166.37 0.422128 169.291 0.22654 172.203 0.22654C174.78 0.22654 177.375 0.030952 179.962 0.0412461C179.55 1.24566 178.439 0.0412461 177.768 0.854481H177.787ZM133.678 2.3883C132.864 1.65742 132.308 1.8633 131.81 1.85301C127.28 1.79125 122.739 1.82213 118.209 1.6986C115.402 1.61625 112.596 1.42066 109.78 1.51331C105.067 1.67801 100.364 1.54419 95.6416 1.76036C91.0152 1.96625 86.4271 2.41919 81.7911 3.11919C98.9175 1.12213 116.121 2.16183 133.678 2.3883ZM135.651 2.20301C135.086 1.78095 134.511 2.16183 133.937 2.13095C134.502 2.52213 135.067 2.69713 135.651 2.20301ZM143.008 2.33683C143.008 2.18242 143.008 2.01772 143.008 1.8633C140.862 1.8633 138.707 1.8633 136.561 1.8633C136.303 1.8633 136.092 1.98683 136.111 2.33683C136.025 2.31625 135.939 2.28536 135.852 2.26478C135.939 2.29566 136.025 2.31625 136.111 2.34713H143.017L143.008 2.33683ZM144.368 1.97654C144.349 1.91478 144.205 1.85301 144.128 1.8736C144.004 1.89419 143.898 1.98683 143.783 2.0486C143.898 2.11036 144.023 2.18242 144.1 2.2236C144.281 2.19272 144.444 2.19272 144.368 1.97654ZM148.419 1.79125C148.314 1.55448 147.988 1.45154 147.72 1.70889C147.72 1.70889 147.711 1.70889 147.701 1.70889C147.701 1.71919 147.72 1.71919 147.72 1.73978C147.404 2.17213 147.682 2.21331 147.998 2.23389C148.295 2.25448 148.515 2.00742 148.419 1.80154V1.79125Z" fill="#C84033"/>
</g>
<defs>
<clipPath id="clip0_333_1311">
<rect width="180" height="7" fill="white"/>
</clipPath>
</defs>
</svg>
