<svg width="113" height="9" viewBox="0 0 113 9" fill="none" xmlns="http://www.w3.org/2000/svg">
	<g clip-path="url(#clip0_175_68527)">
		<path d="M89.4878 2.53182C89.4878 2.53182 89.4878 2.53182 89.4878 2.54215L89.4762 2.52148L89.4878 2.53182Z" fill="#282525" />
		<path d="M89.4936 2.53147C89.9353 2.50047 90.2839 2.96545 90.4583 3.64743C90.621 4.28807 90.6036 5.59002 90.8709 5.60035C91.4811 5.62102 92.0738 5.61069 92.6549 6.02401C92.7072 6.06534 92.87 5.81735 92.899 5.66235C92.9629 5.2697 92.8642 4.89771 92.7247 4.62906C92.3063 3.83342 91.8007 4.06074 91.3067 4.2364C91.144 4.2984 90.9406 4.43273 90.8418 4.09174C90.7837 3.90575 90.8012 3.53376 90.8651 3.33744C90.9697 3.00678 91.1847 3.12045 91.3242 3.21344C91.7193 3.46143 92.0913 3.56476 92.4225 2.92412L92.4109 2.94479C93.5615 2.5728 93.5441 4.71172 94.0032 5.79668C94.1601 6.16867 94.1775 6.49932 94.4681 6.09634C94.7819 5.66235 95.4211 7.94593 95.6477 5.55902C95.6826 5.19737 96.6357 5.64169 97.1006 6.40632C97.426 6.94364 98.0885 5.93101 98.0827 4.90805C98.1873 5.15604 98.2919 5.3317 98.35 5.55902C98.4662 6.02401 98.472 7.09863 98.6638 6.90231C99.1113 6.43732 99.4716 7.55328 99.9016 6.85064C100.146 6.45799 100.518 6.59232 100.901 6.94364C101.604 7.59461 102.383 7.78061 103.109 6.81964C103.493 6.32366 103.911 6.85064 104.196 7.0883C105.091 7.83227 106.032 7.46029 106.939 7.72894C108.328 8.14226 109.763 7.58428 111.129 8.80357C111.687 9.29955 112.361 8.73124 112.739 7.58428C113.215 6.148 113.07 5.56936 112.187 5.40403C110.734 5.13537 109.409 4.09174 108.049 3.16178C106.863 2.34547 105.608 1.51884 104.318 2.53147C104.318 2.53147 104.318 2.53147 104.312 2.52114C103.749 2.30414 103.162 2.86212 102.61 2.33514L102.621 2.35581C102.337 2.20081 102.023 2.45914 101.755 2.09748C101.755 2.09748 101.755 2.09748 101.755 2.08715C101.75 2.08715 101.744 2.08715 101.732 2.08715L101.744 2.10782C100.942 0.836864 100 1.47751 99.1113 1.37418C99.6924 1.68417 100.262 2.04582 101 1.89083C99.9248 2.5728 99.0067 1.6945 98.0536 1.80816C96.1998 2.01482 94.3402 1.49817 92.4806 1.73583C92.1668 1.77716 92.0854 1.43618 91.9634 0.991858C91.8937 0.743868 91.638 0.599206 91.5101 0.867863C91.359 1.18818 91.667 1.33285 91.6612 1.65317C91.0104 1.59117 90.3595 1.50851 89.7028 1.46717C89.1682 1.43618 89.2379 1.91149 89.482 2.50047L89.4936 2.53147ZM109.635 5.82768L109.711 5.86901L109.647 5.94134V5.83801L109.635 5.82768ZM107.706 5.3627C107.677 5.42469 107.648 5.48669 107.619 5.54869C107.619 5.45569 107.631 5.37303 107.631 5.28003C107.654 5.31103 107.677 5.3317 107.706 5.3627ZM106.631 5.13537C106.759 4.86671 106.927 5.21804 107.073 5.45569C106.98 5.48669 106.898 5.54869 106.823 5.53836C106.695 5.52802 106.468 5.49702 106.631 5.13537ZM104.8 5.00104C104.87 4.95971 104.94 4.88738 105.016 4.88738C105.056 4.88738 105.207 4.76339 105.126 5.06304C105.091 5.18704 105.004 5.24903 104.923 5.37303C104.876 5.2387 104.841 5.12504 104.8 5.01138V5.00104ZM104.307 2.56247C104.568 2.46947 104.83 2.46947 105.079 2.67613C104.824 2.61413 104.551 2.98612 104.307 2.56247ZM103.121 4.62906C103.214 4.3914 103.348 4.37073 103.493 4.43273C103.731 4.53606 103.969 4.61872 104.208 4.72205C103.964 4.73239 103.737 4.85638 103.51 5.10437C103.383 5.24903 103.237 5.2077 103.15 4.90805C103.127 4.82538 103.098 4.68072 103.121 4.62906ZM96.996 3.18244L96.9669 3.13078L96.996 3.17211V3.18244ZM95.8802 3.87475C96.2696 3.58543 96.688 3.80242 96.996 3.19278C97.1412 3.52343 97.2691 3.96775 97.5306 3.88508C98.8323 3.44077 100.099 4.4224 101.395 4.20541C101.831 4.13308 102.29 4.01941 102.668 4.74272C101.5 4.88738 100.332 4.76339 99.2275 4.50506C98.1233 4.24674 96.9378 4.91838 95.8802 3.87475ZM94.2763 3.40977C94.654 3.70942 95.2119 3.13078 95.4095 4.22607C95.456 4.49473 95.3049 4.83572 94.9504 4.67039C94.7819 4.10208 94.2066 4.46373 94.0032 3.63709C93.9218 3.30644 94.1368 3.29611 94.2821 3.40977H94.2763ZM91.7891 5.04238C91.8007 4.94938 91.8181 4.85638 91.8297 4.76339C91.8995 4.80472 91.9692 4.84605 92.039 4.89771C92.0215 4.99071 92.0215 5.12504 91.9925 5.16637C91.9227 5.24903 91.8356 5.25937 91.7891 5.05271V5.04238Z" fill="#282525" />
		<path d="M30.7997 2.21131C31.6946 2.54197 32.7465 2.85196 33.4089 2.35597C34.2283 1.736 34.9664 2.6763 35.6695 1.96332C35.8613 1.767 36.0066 1.798 36.0647 2.20098C36.1112 2.5213 36.0879 2.84162 35.8729 2.98628C35.687 3.11028 35.4894 3.22394 35.3383 3.45127C35.1814 3.68893 35.3906 4.08158 35.4254 3.99891C35.8613 2.96562 36.1867 4.36057 36.2216 4.45356C36.6226 5.41453 37.1107 4.41223 37.5233 4.76355C37.6163 4.84622 37.8662 4.26757 37.779 3.90592C37.6686 3.44093 37.5059 2.85196 37.1572 3.05862C36.8376 3.24461 36.547 3.32727 36.5819 2.47997C36.6168 1.643 36.9131 2.23198 37.1165 2.18031C38.8483 1.674 40.6323 2.76929 42.3467 1.43634C42.6489 1.20902 43.2532 1.33301 43.4915 2.34564C43.8169 1.72566 44.2586 1.97366 44.5956 2.05632C45.723 2.30431 46.8446 1.83933 47.9662 2.14932C48.1114 2.19065 48.309 2.22165 48.3788 2.65563C48.1928 3.65793 46.9259 2.03565 47.263 4.31924C47.6349 4.21591 47.9836 3.84392 48.3323 4.72222C48.6403 5.50752 48.7797 4.28824 49.0006 4.08158C49.326 3.78192 48.9541 3.4926 48.8146 3.23428C48.7042 1.90133 48.9657 1.92199 49.5991 1.96332C50.7556 2.02532 51.9294 2.01499 53.0975 1.612C53.882 1.34335 54.7421 1.43634 55.5382 2.04599C55.8695 2.29398 55.7881 2.71763 55.6777 3.09995C55.4917 3.76126 55.6138 3.97825 55.9566 4.05058C56.4274 4.14358 56.224 3.37894 56.1717 3.20328C55.9276 2.32498 56.7354 1.15735 56.1368 0.733702C55.7474 0.454712 55.1779 0.527043 54.6898 0.527043C53.6147 0.527043 52.5338 0.609706 51.4587 0.58904C49.9129 0.568374 48.3671 0.444379 46.8213 0.454712C44.6363 0.454712 42.4513 0.454712 40.272 0.651038C38.9006 0.775033 37.5349 0.248053 36.1693 0.651038C34.5654 1.10569 32.9499 0.361715 31.3401 0.857697C31.0612 0.940361 30.8229 1.26068 30.544 1.22968L30.5324 1.26068C30.573 1.62234 30.236 2.04599 30.8055 2.25265L30.7997 2.21131ZM47.6872 1.44668C47.6872 1.44668 47.7337 1.40534 47.757 1.40534C47.7686 1.40534 47.7744 1.46734 47.786 1.49834C47.7628 1.51901 47.7395 1.53967 47.7163 1.53967C47.7047 1.53967 47.6988 1.47767 47.6872 1.44668Z" fill="#282525" />
		<path d="M60.838 0.527041C61.3552 0.651036 61.9712 0.775032 62.4303 0.599371C63.488 0.217052 64.5108 0.764699 65.5626 0.516708C67.027 0.17572 68.538 0.485709 70.0256 0.599371C70.3046 0.620037 70.8857 -0.103269 70.8218 1.42601C70.7695 2.57296 70.7462 3.73026 70.1012 4.2469C69.8804 4.42256 69.6421 4.20557 69.5491 3.71992C69.4736 3.3376 69.5666 3.02761 69.7758 3.04828C69.9675 3.06895 70.2058 3.3066 70.2116 2.69696C70.2116 2.04598 69.8978 2.09765 69.7002 2.14931C68.9738 2.35597 68.2939 1.82899 67.5907 1.66367C67.4164 1.62233 67.3292 0.868028 67.0503 1.39501C66.8178 1.83933 67.2885 2.03565 67.1433 2.33531C66.9573 2.70729 67.5617 3.13094 67.12 3.32727C66.7713 3.48226 66.7481 3.01728 66.7365 2.41797C66.7132 1.41567 66.2948 1.00236 65.9171 1.50867C65.5103 2.04598 65.1326 1.89099 64.7432 1.83933C64.2202 1.77733 64.1156 2.14931 64.3539 2.97595C64.4875 3.44093 64.656 3.93691 64.2493 4.09191C63.8715 4.23657 63.9936 3.5546 63.9587 3.18261C63.918 2.81062 63.9819 2.38697 63.8018 2.10798C63.6216 1.81866 63.5577 1.13668 63.2265 1.34334C62.8429 1.59133 63.2381 2.14931 63.1277 2.5213C62.3722 2.09765 61.5761 0.754366 60.8497 1.83933C60.3208 2.62463 60.3673 1.88066 60.1988 1.47767L60.1872 1.50867C60.1872 1.50867 60.1872 1.49834 60.1872 1.48801C60.1872 1.48801 60.193 1.48801 60.1988 1.48801C60.3673 1.05402 60.3266 0.372046 60.8613 0.496042L60.838 0.527041Z" fill="#282525" />
		<path d="M63.1045 2.58317C63.4532 2.85182 63.645 3.27547 63.3486 3.92645C63.2207 4.20544 63.058 4.2571 62.8837 3.77146C62.6222 3.03782 62.8953 2.87249 63.1045 2.58317V2.5625C63.1045 2.5625 63.1103 2.5625 63.1161 2.5625L63.0987 2.58317H63.1045Z" fill="#282525" />
		<path d="M18.8051 2.99695C19.2003 2.5423 19.578 3.46193 20.0196 3.28627C20.4845 3.10028 20.9669 3.12094 21.4434 3.06928C21.6991 3.03828 22.042 2.96595 21.9955 3.68925C21.9432 4.52622 21.6468 3.72025 21.4666 3.84425C21.3388 3.93725 21.1993 3.98891 21.0657 4.06124C21.2226 4.53656 21.455 4.89821 21.7223 4.98087C22.1872 5.12553 22.6638 5.2082 22.501 3.72025C22.4604 3.34827 22.0943 2.03598 22.902 2.58363C22.902 2.58363 22.902 2.58363 22.902 2.5733C23.3669 2.90395 23.8376 3.4206 24.2619 2.42863C24.3839 2.49063 24.5873 2.67663 24.6105 2.61463C24.7616 2.19098 24.3897 2.13931 24.4188 1.76733C24.6396 1.84999 24.8837 1.68466 25.0812 2.02565C25.5229 1.94299 25.6333 2.70762 25.7205 3.22427C25.8193 3.77192 25.9181 4.04057 26.2028 4.10257C26.3888 4.1439 26.598 5.01187 26.7375 3.99924C26.8653 3.10028 26.5283 3.52393 26.3597 3.4826C26.2028 3.44126 26.0285 3.10028 26.0517 3.04861C26.2319 2.66629 26.2551 1.93265 26.5805 1.89132C26.7898 1.86032 26.9292 1.64333 27.1094 1.54C26.9118 0.506706 26.4062 0.961355 26.104 0.971688C24.5292 1.01302 22.9601 1.20935 21.3911 1.447C21.1296 1.48834 20.6647 1.00269 20.5891 2.12898C20.5717 2.37697 20.4264 2.3563 20.3741 2.05665C20.3509 1.90165 20.3044 1.62266 20.2986 1.62266C19.7174 1.92232 19.1363 1.33334 18.561 1.62266C18.2763 1.76733 18.1833 2.27364 18.2821 2.80062C18.3809 3.33793 18.5203 3.33793 18.7935 3.01761L18.8051 2.99695ZM25.8309 1.92232C25.8309 1.92232 25.86 1.89132 25.8774 1.87066C25.8832 1.91199 25.9006 1.95332 25.9006 1.99465C25.9006 2.00498 25.8716 2.02565 25.8541 2.04632C25.8483 2.00498 25.8367 1.96365 25.8367 1.92232H25.8309ZM24.1514 2.24264C24.1863 2.29431 24.2154 2.34597 24.2502 2.3873C24.1979 2.39764 24.1224 2.4803 24.1514 2.24264ZM22.9078 2.53196C22.9485 2.33564 22.902 2.02565 23.088 2.03598C23.1054 2.03598 23.1403 2.09798 23.1461 2.13931C23.1693 2.50096 23.0008 2.42863 22.9078 2.5423V2.53196Z" fill="#282525" />
		<path d="M25.087 2.00488C25.087 2.00488 25.0986 2.00488 25.0986 2.02555L25.0812 2.00488H25.087Z" fill="#282525" />
		<path d="M79.2308 2.33553C79.0332 2.45953 78.5741 2.3872 78.5857 1.65356C78.5974 0.78559 78.9635 1.4469 79.1494 1.33324C79.9107 0.837254 80.6545 1.57089 81.4333 1.2919C82.2643 1.00258 83.1534 1.27124 84.0135 1.30224C84.1878 1.30224 84.3738 1.4159 84.3854 1.81888C84.397 2.2322 84.1297 2.09787 84.0425 2.36653C84.0425 2.36653 84.0425 2.37686 84.0425 2.3872C84.0367 2.3872 84.0309 2.3872 84.0251 2.3872L84.0425 2.3562C83.5311 2.73852 83.5602 3.16217 84.0193 3.59615C84.3331 3.89581 84.3679 4.37112 84.1239 4.74311C83.9495 5.01177 83.7636 5.06343 83.5021 4.53645C83.1883 3.89581 83.4091 2.70752 82.8512 2.45953C82.828 2.4182 82.7989 2.3872 82.7757 2.34587C82.7989 2.39753 82.8163 2.43886 82.8396 2.49053C82.2875 2.49053 81.6889 1.94288 81.2124 2.95551C80.2826 1.68456 80.4105 2.75918 80.6139 3.97847C80.701 4.49512 80.4976 4.71211 80.3291 4.82577C80.085 4.9911 79.8584 4.68111 79.7945 4.27813C79.7015 3.70981 79.9921 3.78215 80.1606 3.67882C80.0502 2.73852 79.9339 1.90155 79.2366 2.33553H79.2308Z" fill="#282525" />
		<path d="M1.59251 2.84184C1.61575 3.51348 1.92376 3.48248 2.09809 3.37915C3.06857 2.81084 4.09136 3.90613 5.06765 2.8625C5.38146 2.52151 5.84636 3.58581 6.35775 2.96583C6.42167 2.58351 5.92772 2.8005 5.98583 2.24252C6.17179 2.0152 6.3345 2.40785 6.51465 2.37685C6.26476 1.39522 5.97421 0.682249 5.39308 1.68455C5.20712 2.00487 5.02116 2.1082 4.81195 1.68455C4.73641 1.52955 4.55045 1.48822 4.4226 1.51922C3.62064 1.67421 2.81869 1.86021 2.01674 2.02553C1.76104 2.0772 1.58089 2.27352 1.60413 2.84184H1.59251ZM2.73733 2.55251C2.78963 2.52151 2.81869 2.51118 2.84774 2.49052C2.84774 2.52151 2.83612 2.58351 2.83031 2.58351C2.80707 2.58351 2.78382 2.57318 2.73733 2.55251Z" fill="#282525" />
		<path d="M71.2868 0.764648C72.3212 0.764648 73.3382 1.04364 74.3668 0.919643C75.0293 0.836979 75.6976 0.743983 76.36 1.00231C76.5518 1.07464 76.7726 0.971307 76.7261 1.61195C76.6855 2.24226 76.3891 2.70724 76.2322 2.40759C75.6162 1.2193 75.1629 2.37659 74.6457 2.62458C74.4772 2.70724 74.2738 2.77957 74.1866 2.44892C73.7915 0.919643 73.5706 2.1286 73.3091 2.64525L73.3207 2.66591C73.3207 2.66591 73.3091 2.68658 73.3033 2.69691C73.3033 2.68658 73.3033 2.67624 73.3033 2.66591C72.5362 2.44892 71.9319 1.57062 71.2868 0.774981V0.764648Z" fill="#282525" />
		<path d="M86.7159 1.51934C87.3551 1.61233 88.0409 1.30235 88.6394 2.02565C88.8021 2.23231 89.1217 2.26331 88.9997 2.91429C88.9125 3.3896 88.7033 3.28627 88.5116 3.3276C87.9363 3.44127 87.3144 2.84196 86.7972 3.76159C86.7043 3.5756 86.6229 3.34827 86.5067 3.24494C86.2394 3.00728 86.1057 2.53197 86.1289 2.07732C86.1522 1.44701 86.5997 1.49867 86.7217 1.51934H86.7159Z" fill="#282525" />
		<path d="M86.7853 3.76074C86.7853 3.76074 86.7911 3.78141 86.7969 3.79174L86.7794 3.77108L86.7853 3.76074Z" fill="#282525" />
		<path d="M84.5596 2.88284C84.6293 3.26516 84.7281 3.68881 84.9606 3.42016C85.1233 3.23416 84.8385 2.74851 85.0129 2.43853C84.8211 2.06654 84.5189 1.56022 85.0013 1.3329C85.257 1.2089 85.6056 1.3949 85.6696 2.36619C85.7044 2.85184 85.4197 3.35816 85.6928 3.79214C85.8497 4.04013 86.0182 4.30879 85.809 4.72211C85.6521 5.0321 85.4603 4.94943 85.257 4.8771C84.5364 4.60844 84.3039 3.48215 84.0482 2.38686C84.3039 2.22153 84.4666 2.41786 84.5538 2.89318L84.5596 2.88284Z" fill="#282525" />
		<path d="M56.625 1.07486C56.625 0.640879 56.7993 0.630546 56.9853 0.620213C57.8454 0.60988 58.7054 0.537549 59.5655 0.547882C59.8677 0.547882 60.2047 0.651212 60.1699 1.51918C59.9084 1.72584 59.6701 1.17819 59.3737 1.49851C58.5369 2.41815 57.671 1.59151 56.8168 1.52951C56.747 1.52951 56.625 1.22986 56.625 1.07486Z" fill="#282525" />
		<path d="M28.8646 0.981775C29.655 0.723451 29.9107 1.12644 29.5387 2.64538C29.0622 2.36639 28.5683 1.81874 28.0975 1.90141C27.807 1.95307 27.5455 2.82104 27.1503 2.17006C27.1503 1.94274 27.1387 1.72575 27.1329 1.51909C27.6559 0.671786 28.2835 1.16777 28.8588 0.981775H28.8646Z" fill="#282525" />
		<path d="M27.1387 1.51912C27.1387 1.51912 27.1271 1.51912 27.1271 1.53979C27.1271 1.53979 27.1271 1.52945 27.1271 1.51912C27.1329 1.51912 27.1387 1.51912 27.1445 1.50879C27.1445 1.50879 27.1445 1.51912 27.1445 1.52945L27.1387 1.51912Z" fill="#282525" />
		<path d="M43.5552 3.53418C44.0085 3.16219 44.4211 2.80054 44.0724 4.35048C44.0375 4.50547 44.2816 4.7638 44.0085 5.04279C43.3576 3.24485 41.9106 4.99112 41.2423 2.60421C41.9455 2.38722 42.5092 4.00949 43.1716 3.02786C43.1891 3.06919 43.2123 3.11053 43.2298 3.15186C43.3169 3.34818 43.3983 3.6685 43.561 3.53418H43.5552Z" fill="#282525" />
		<path d="M11.5295 2.00424C11.7329 2.44855 11.9304 1.31193 12.0583 1.93191C12.1455 2.35556 12.0932 2.9962 11.9827 3.41985C11.913 3.69884 11.6515 3.63684 11.5178 3.26486C11.2738 3.60584 11.0297 3.8435 10.7856 3.28552C10.7856 3.28552 10.9193 3.03753 10.9948 2.9032C10.8321 2.52088 10.6578 2.03524 10.3963 2.57255C10.0302 3.31652 10.0534 3.35785 9.68149 2.60355C10.1929 1.69425 10.8612 2.1489 11.4365 1.81824C11.4713 1.88024 11.5004 1.93191 11.5353 1.9939L11.5295 2.00424Z" fill="#282525" />
		<path d="M40.8241 3.42061C41.1786 3.75126 40.7776 3.99925 40.6614 4.26791C40.487 5.74552 40.057 4.72256 39.8304 4.47457C39.4352 4.04058 39.1098 3.37927 38.7611 2.81096C39.4933 2.45964 40.1907 2.83163 40.8299 3.43094L40.8241 3.42061Z" fill="#282525" />
		<path d="M77.3244 1.27081C77.6266 1.07449 77.8881 1.7668 77.8416 2.07678C77.5917 3.81272 78.2484 3.84372 78.7772 4.14337L78.8237 4.23637C78.7017 4.51536 78.6203 4.79435 78.3588 4.78402C77.4581 4.74269 77.4523 3.37874 77.3186 2.21111C77.2837 1.91146 77.0106 1.45681 77.3186 1.26048L77.3244 1.27081Z" fill="#282525" />
		<path d="M19.3865 5.01195C19.276 4.88795 19.3516 4.4333 19.4678 4.29898C19.7584 3.95799 20.0664 4.16465 20.3453 4.40231C20.479 4.51597 20.5952 4.90862 20.4383 5.01195C19.8165 5.41493 20.7289 5.91092 20.3686 6.3139C19.9966 6.24157 19.5957 6.16924 19.3865 6.12791C18.846 5.33227 20.3163 6.07624 19.3865 5.01195Z" fill="#282525" />
		<path d="M8.79803 2.00441C9.0363 1.78742 9.28037 1.35344 9.40822 2.2834C9.46633 2.72772 9.55931 3.24437 9.30361 3.37869C8.85614 3.61635 8.76317 2.91371 8.71668 2.24207C8.06581 3.02737 7.41495 3.40969 6.73503 2.36607C7.36846 1.01245 8.08906 1.67376 8.79803 2.00441Z" fill="#282525" />
		<path d="M89.3887 3.24483C89.9 3.37916 89.749 4.83611 90.2603 5.1151C90.2836 5.12543 90.086 5.58008 89.8477 5.66274C89.5107 5.37342 89.0923 5.07376 89.0167 4.16446C88.9819 3.76148 89.1388 3.18283 89.3945 3.24483H89.3887Z" fill="#282525" />
		<path d="M46.095 2.73812C46.4088 2.70712 46.6354 2.82078 46.5773 3.31677C46.4669 4.22607 45.9206 4.1434 45.6243 4.69105C45.5255 4.87704 45.4209 4.2984 45.3453 4.01941C45.7579 3.91608 45.816 2.94478 46.095 2.73812Z" fill="#282525" />
		<path d="M12.7846 1.65313C13.1042 1.50847 13.4296 1.52913 13.6795 2.05611C13.5633 2.19044 13.5575 2.41777 13.5633 2.65542C13.6911 2.52109 13.7027 2.29377 13.6969 2.05611C13.7667 1.96312 13.8306 1.81845 13.9003 1.81845C15.1265 1.75646 16.3469 1.69446 17.573 1.67379C17.7706 1.67379 17.9508 1.94245 17.9624 2.3971C17.9624 2.59343 17.9217 2.84142 17.852 2.98608C17.6544 3.3684 17.5847 2.80008 17.4452 2.71742C17.3174 2.64509 17.2011 2.46943 16.9454 2.20077C17.1895 3.37873 16.8931 3.61639 16.5038 3.45106C16.1318 3.29607 15.7076 3.38906 15.4113 2.73809C15.3241 2.55209 15.2485 2.3351 15.08 2.66576C14.6384 3.52339 14.0224 3.58539 13.4819 2.90341C13.2901 2.91375 13.0868 2.84142 12.9124 2.95508C12.5463 3.2134 12.3662 2.87242 12.3197 2.28344C12.2674 1.6118 12.5986 1.73579 12.7846 1.65313Z" fill="#282525" />
		<path d="M13.6798 2.05582C13.6798 2.05582 13.6856 2.04549 13.6914 2.03516C13.6914 2.03516 13.6914 2.04549 13.6914 2.05582C13.6914 2.05582 13.6914 2.05582 13.6856 2.06616L13.6798 2.05582Z" fill="#282525" />
		<path d="M74.4831 3.01756C74.7678 3.21389 75.1165 3.21389 75.07 4.08185C75.0584 4.35051 74.9131 4.54684 74.8724 4.43317C74.669 3.8132 74.146 4.23685 74.0124 3.47221C74.117 2.98656 74.2448 2.85223 74.4889 3.01756H74.4831Z" fill="#282525" />
		<path d="M32.3685 3.96751C32.4499 4.19484 32.3569 4.38083 32.2465 4.45316C31.799 4.75282 31.5608 4.22584 31.3109 3.57486C31.7293 3.32687 32.107 3.18221 32.3744 3.96751H32.3685Z" fill="#282525" />
		<path d="M88.1857 3.90539C88.4705 3.87439 88.4995 4.19472 88.3542 4.61837C88.4937 4.85602 88.7261 5.10402 88.3659 5.36234C88.0985 5.55867 87.8022 5.414 87.7673 4.89736C87.744 4.57704 87.8951 3.94673 88.1857 3.91573V3.90539Z" fill="#282525" />
		<path d="M60.3906 3.49235L60.379 3.47168C60.379 3.47168 60.3848 3.47168 60.3906 3.48201V3.49235Z" fill="#282525" />
		<path d="M61.3203 3.10034C61.3203 3.10034 61.5237 3.51365 61.3842 3.70998C61.175 3.9993 60.9368 4.46429 60.6636 3.83398C60.5997 3.67898 60.4893 3.59632 60.3963 3.48266C60.5067 1.71572 61.0762 3.83398 61.3203 3.10034Z" fill="#282525" />
		<path d="M51.0927 2.82059C51.3019 2.99625 51.6564 2.77926 51.6796 3.49224C51.697 3.92622 51.4937 3.96755 51.3193 3.98822C51.0869 3.91589 50.866 3.78156 50.8428 3.24425C50.8254 2.94459 50.9183 2.67593 51.0927 2.82059Z" fill="#282525" />
		<path d="M44.8688 2.45898C44.9967 2.51065 45.1768 2.60365 45.1245 3.03763C45.0896 3.30629 45.0896 3.8436 44.863 3.68861C44.7119 3.58528 44.5666 3.17196 44.5201 2.8413C44.4737 2.51065 44.6829 2.51065 44.863 2.45898H44.8688Z" fill="#282525" />
		<path d="M14.1913 4.50534C14.261 4.76366 14.2203 5.23898 14.0286 5.30097C13.6915 5.41464 13.5521 4.94965 13.4649 4.25735C13.7264 4.43301 14.0111 3.85436 14.1913 4.495V4.50534Z" fill="#282525" />
		<path d="M82.3687 4.06123C82.4791 4.11289 82.6185 3.97857 82.7464 3.93723C82.758 4.0199 82.7696 4.11289 82.7812 4.19556C82.7173 4.28855 82.6418 4.36089 82.5953 4.47455C82.328 5.14619 82.0548 4.66054 81.7875 4.49521C81.741 4.46422 81.6887 4.16456 81.7178 4.09223C81.9212 3.52392 82.142 3.93723 82.3687 4.06123Z" fill="#282525" />
		<path d="M101.749 2.10777C102.075 0.898816 102.505 1.72545 102.877 1.97344C102.941 2.01478 102.697 2.22143 102.598 2.35576C102.342 1.94244 102.028 2.2111 101.749 2.10777Z" fill="#282525" />
		<path d="M71.9724 3.35794C72.0537 3.51293 71.9898 3.81259 71.8852 3.89525C71.6004 4.10191 71.4377 3.74026 71.2053 3.15128C71.5598 2.94462 71.7922 3.00662 71.9782 3.35794H71.9724Z" fill="#282525" />
		<path d="M68.0555 2.30469C68.102 2.89367 68.3461 3.29665 68.1485 3.7513C68.0613 3.94763 67.8637 3.90629 67.7708 3.6583C67.5732 3.12099 67.7359 2.75934 68.0555 2.30469Z" fill="#282525" />
		<path d="M23.5242 4.1743C23.6811 4.13296 23.931 4.19496 23.9252 4.54628C23.9078 5.34192 23.5533 5.11459 23.3034 5.16626C23.3034 5.16626 23.2685 5.19726 23.2511 5.21792C23.2685 5.19726 23.286 5.17659 23.2976 5.15593C23.0709 4.56695 23.2162 4.26729 23.5242 4.1743Z" fill="#282525" />
		<path d="M30.5326 3.73068C30.6023 3.78235 30.6779 3.81335 30.7534 3.84434C30.7011 4.58832 30.5384 4.82597 30.2478 4.18533C30.1549 3.97867 29.7771 4.04067 30.0154 3.46202C30.2711 2.86271 30.3641 3.60669 30.5326 3.73068Z" fill="#282525" />
		<path d="M11.3201 3.98892C11.5003 3.93726 11.5352 4.25758 11.5352 4.5469C11.5352 5.00155 11.4306 5.27021 11.1807 5.27021C11.0238 5.27021 10.8494 5.15655 10.8785 4.86722C10.9192 4.44357 11.0761 4.05092 11.3201 3.98892Z" fill="#282525" />
		<path d="M57.3164 3.25492C57.3164 3.25492 57.2699 3.27558 57.2409 3.25492C57.2641 3.23425 57.2932 3.22392 57.3164 3.25492Z" fill="#282525" />
		<path d="M57.2407 3.25453C57.0838 3.37852 56.8979 4.16382 56.5782 3.61618C56.4853 3.46118 56.4562 3.21319 56.555 3.04787C56.8456 2.55188 57.078 3.17186 57.2407 3.25453Z" fill="#282525" />
		<path d="M50.0175 3.01715C50.0175 2.93449 50.1686 3.08948 50.1802 3.24448C50.2325 3.83346 50.0291 4.01945 49.7908 4.10211C49.6165 4.16411 49.4422 4.14345 49.4422 3.64746C49.4073 2.69683 50.0175 3.92645 50.0175 3.01715Z" fill="#282525" />
		<path d="M34.0017 3.11006C34.2109 3.15139 34.3678 3.39938 34.4375 3.77137C34.484 4.00903 34.3852 4.20535 34.2632 4.21569C34.0307 4.23635 33.9203 3.92636 33.8331 3.54404C33.8389 3.32705 33.8331 3.07906 34.0017 3.11006Z" fill="#282525" />
		<path d="M16.7017 4.65022C16.3356 4.57789 16.0799 4.63989 15.8707 4.03024C16.1845 3.83392 16.4402 3.64792 16.7017 4.65022Z" fill="#282525" />
		<path d="M5.03857 4.86637C4.60854 5.55867 4.25987 4.82504 3.90538 4.9077C4.25987 3.9364 4.61435 4.42205 5.03857 4.86637Z" fill="#282525" />
		<path d="M3.90527 4.9082C3.90527 4.9082 3.89946 4.91854 3.89365 4.92887L3.88202 4.9082C3.88202 4.9082 3.89946 4.9082 3.90527 4.9082Z" fill="#282525" />
		<path d="M7.28715 4.93945C7.28715 4.93945 7.29297 4.96012 7.29297 4.97045L7.28134 4.94979L7.28715 4.93945Z" fill="#282525" />
		<path d="M7.25815 3.93696C7.24652 3.6683 7.17098 3.09999 7.41505 3.46164C7.70562 3.88529 7.7521 4.5776 7.2872 4.92892C7.22328 4.6086 6.79906 4.33994 7.25234 3.93696H7.25815Z" fill="#282525" />
		<path d="M53.2427 2.78975C53.3997 2.85175 53.5914 2.96541 53.5333 3.38907C53.4926 3.68872 53.3473 3.66806 53.1963 3.66806C53.0045 3.66806 52.865 3.66806 52.8941 2.89308C52.8999 2.72776 53.0742 2.71742 53.2427 2.78975Z" fill="#282525" />
		<path d="M92.6957 0.91961C92.9339 0.64062 93.1373 0.46496 93.5034 1.15727C93.1606 1.18827 92.9397 1.52925 92.6957 0.91961Z" fill="#282525" />
		<path d="M8.00203 4.44321C8.00203 4.17455 8.12987 4.15389 8.30421 4.14355C8.41462 4.22622 8.55409 4.39155 8.59477 4.74287C8.62964 5.03219 8.51342 5.16652 8.403 5.12518C8.21704 5.05285 8.00203 4.91853 7.99621 4.44321H8.00203Z" fill="#282525" />
		<path d="M1.24963 2.25241C1.34261 2.23175 1.42397 2.30408 1.41816 2.51074C1.40654 2.85172 1.27288 2.95505 1.13341 2.97572C0.99975 2.99639 0.935825 2.83106 0.924203 2.5624C0.95907 2.19042 1.12178 2.28341 1.24963 2.25241Z" fill="#282525" />
		<path d="M53.9225 3.19336C54.0503 3.19336 54.1201 3.34835 54.1549 3.55501C54.1782 3.834 54.1143 3.99933 53.9922 4.05099C53.876 4.10266 53.7598 4.05099 53.7365 3.78234C53.7133 3.50335 53.7307 3.21403 53.9225 3.19336Z" fill="#282525" />
		<path d="M58.7171 2.95508C58.8972 3.03774 59.0193 3.26507 59.0135 3.61639C59.0135 3.91604 58.8856 4.07104 58.7287 4.02971C58.566 3.97804 58.5137 3.73005 58.4905 3.45106C58.4614 3.12041 58.5486 2.95508 58.7171 2.95508Z" fill="#282525" />
		<path d="M54.9631 3.3584C54.9748 3.94738 54.8469 4.30903 54.6261 4.54669C54.6087 4.56735 54.4692 4.35036 54.475 4.25736C54.4924 3.72005 54.6551 3.43073 54.9631 3.3584Z" fill="#282525" />
		<path d="M22.6697 0.784871C22.5825 0.836535 22.5128 0.733206 22.5186 0.43355C22.5942 0.381885 22.6871 0.278556 22.7859 0.247557C22.8615 0.226891 22.9835 0.299222 22.9312 0.485215C22.8905 0.640209 22.7685 0.733206 22.6697 0.784871Z" fill="#282525" />
		<path d="M28.725 4.1637C28.7192 4.41169 28.661 4.58735 28.5332 4.53569C28.4053 4.49435 28.2426 4.41169 28.2833 4.06037C28.3066 3.88471 28.4053 3.75038 28.4518 3.63672C28.6669 3.66772 28.7424 3.83305 28.7308 4.1637H28.725Z" fill="#282525" />
		<path d="M24.8256 4.14374C24.814 4.34007 24.8024 4.60872 24.6629 4.55706C24.5815 4.52606 24.4537 4.30907 24.4595 4.1954C24.4711 4.03008 24.5757 3.88542 24.628 3.76142C24.8024 3.74075 24.8372 3.91641 24.8256 4.13341V4.14374Z" fill="#282525" />
		<path d="M76.2207 4.07165C75.9941 4.6813 75.7907 4.71229 75.5873 3.97866C75.8372 3.66867 76.0173 4.15432 76.2207 4.07165Z" fill="#282525" />
		<path d="M76.2437 4.07104C76.2437 4.07104 76.2262 4.07104 76.2204 4.07104C76.2204 4.0607 76.2262 4.05037 76.232 4.04004L76.2437 4.0607V4.07104Z" fill="#282525" />
		<path d="M34.7805 3.28613C34.92 3.31713 34.9781 3.50312 34.9723 3.73045C34.9723 3.87511 34.9258 4.08177 34.8677 4.13343C34.7224 4.25743 34.6759 4.03011 34.6585 3.80278C34.641 3.59612 34.6468 3.37913 34.7805 3.28613Z" fill="#282525" />
		<path d="M78.1556 1.76699C78.0917 1.72565 78.051 1.54999 77.9755 1.38467C78.0568 1.28134 78.1265 1.13668 78.1788 1.14701C78.2486 1.16767 78.3416 1.31234 78.3532 1.426C78.3764 1.67399 78.2893 1.83932 78.1556 1.75665V1.76699Z" fill="#282525" />
		<path d="M21.67 0.45455C21.7862 0.382219 21.8676 0.27889 21.9373 0.299556C21.9954 0.320222 22.0419 0.485549 22.0942 0.578545C22.0245 0.640543 21.9548 0.754206 21.8908 0.743873C21.8269 0.73354 21.7688 0.588878 21.67 0.45455Z" fill="#282525" />
		<path d="M33.0544 3.34804C33.3042 3.23437 33.2984 3.60636 33.3101 3.93701C33.1764 4.05068 33.0311 4.402 32.9381 3.87502C32.9149 3.73036 32.9904 3.3687 33.0544 3.34804Z" fill="#282525" />
		<path d="M33.3102 3.94701C33.3102 3.94701 33.3102 3.93668 33.3102 3.92635C33.3102 3.92635 33.316 3.92635 33.3218 3.91602L33.3102 3.94701Z" fill="#282525" />
		<path d="M79.0507 3.45166C79.1727 3.49299 79.2715 3.65832 79.2424 3.87531C79.1843 4.2473 78.9926 4.22663 78.8298 4.23697L78.7834 4.14397C78.7543 3.73065 78.7485 3.369 79.0507 3.462V3.45166Z" fill="#282525" />
		<path d="M73.3031 2.68652C73.2624 3.01718 73.4135 3.3995 73.2449 3.68882C73.2217 3.73015 73.0648 3.62682 73.0474 3.54416C72.9718 3.09984 73.1636 2.92418 73.2972 2.69686L73.3031 2.68652Z" fill="#282525" />
		<path d="M18.3751 4.93869C18.3286 4.64937 18.2821 4.36004 18.2356 4.08105C18.3053 4.09139 18.4041 4.06039 18.439 4.13272C18.5727 4.43237 18.5029 4.70103 18.3751 4.93869Z" fill="#282525" />
		<path d="M18.3692 4.94979C18.3692 4.94979 18.3692 4.94979 18.375 4.93945V4.96012H18.3634L18.3692 4.94979Z" fill="#282525" />
		<path d="M36.0533 4.89829C36.0533 5.00162 35.9777 5.19794 35.9312 5.20828C35.8731 5.20828 35.8092 5.06362 35.7453 4.98095C35.7859 4.86729 35.8208 4.75363 35.8789 4.59863C35.9603 4.72263 36.0533 4.80529 36.0591 4.89829H36.0533Z" fill="#282525" />
		<path d="M17.1895 4.39122C17.2593 4.44289 17.329 4.54622 17.3697 4.65988C17.4278 4.82521 17.3697 4.95954 17.2825 4.92854C17.1895 4.88721 17.1082 4.75288 17.0442 4.68055C17.0442 4.39122 17.1024 4.31889 17.1895 4.38089V4.39122Z" fill="#282525" />
		<path d="M65.9056 3.12068C65.9696 3.22401 66.0625 3.30668 66.0684 3.39967C66.0684 3.503 65.9928 3.689 65.9405 3.70966C65.8475 3.74066 65.7022 3.76133 65.7139 3.45134C65.7197 3.33768 65.8243 3.24468 65.9056 3.11035V3.12068Z" fill="#282525" />
		<path d="M8.08919 5.87988C8.15892 5.87988 8.22865 5.96255 8.3042 6.00388C8.27514 6.14854 8.2519 6.3242 8.23447 6.3242C8.15892 6.31387 8.05432 6.2932 8.00783 6.2002C7.92647 6.04521 7.99621 5.89022 8.08919 5.87988Z" fill="#282525" />
		<path d="M52.2432 3.03769C52.3071 3.08935 52.371 3.25468 52.3827 3.37867C52.3943 3.49234 52.3129 3.74033 52.2955 3.72999C52.1909 3.68866 52.0921 3.58533 52.0863 3.575C52.0979 3.09968 52.1502 2.95502 52.2432 3.02735V3.03769Z" fill="#282525" />
		<path d="M94.2586 1.16738C94.2004 1.00205 94.2469 0.857393 94.3341 0.836727C94.398 0.826394 94.4619 0.919391 94.584 1.00205C94.491 1.15705 94.4445 1.27071 94.3864 1.31204C94.3573 1.33271 94.2876 1.23971 94.2586 1.16738Z" fill="#282525" />
		<path d="M47.2632 4.31949C47.2632 4.31949 47.2516 4.30916 47.2516 4.29883H47.2632C47.2632 4.29883 47.2632 4.29883 47.2632 4.31949Z" fill="#282525" />
		<path d="M47.3388 5.01164C47.0657 4.90831 47.1877 4.59833 47.2632 4.31934C47.3853 4.495 47.5073 4.67066 47.6235 4.84632C47.5247 4.90831 47.426 5.04264 47.3388 5.01164Z" fill="#282525" />
		<path d="M38.7554 2.79996C38.7554 2.79996 38.7437 2.79996 38.7379 2.79996C38.7379 2.79996 38.7379 2.78963 38.7379 2.7793L38.7496 2.79996H38.7554Z" fill="#282525" />
		<path d="M38.7378 2.8005C38.6913 3.17248 38.6216 3.4928 38.3775 3.43081C38.3484 3.43081 38.2961 3.27581 38.302 3.21381C38.3601 2.7385 38.5518 2.7695 38.7378 2.8005Z" fill="#282525" />
		<path d="M0.151058 2.65563C0.209171 2.6143 0.325397 2.67629 0.360264 2.76929C0.429999 2.97595 0.400945 3.19294 0.244041 3.20327C0.174306 3.20327 0.0987602 3.11028 -3.12328e-05 3.04828C0.0580814 2.88295 0.0929458 2.69696 0.151058 2.65563Z" fill="#282525" />
		<path d="M96.8913 1.22915C96.8913 1.22915 96.9262 1.17748 96.9436 1.14648C96.9726 1.20848 97.0017 1.26015 97.0308 1.32214C97.0133 1.35314 96.9785 1.40481 96.9726 1.39448C96.9378 1.35314 96.9145 1.28081 96.8855 1.22915H96.8913Z" fill="#282525" />
		<path d="M87.0005 4.7736C87.0005 4.7736 86.9947 4.7736 86.9889 4.7736L86.9947 4.75293C86.9947 4.75293 86.9947 4.75293 86.9947 4.76326L87.0005 4.7736Z" fill="#282525" />
		<path d="M87.3491 4.93944C87.3491 4.93944 87.3201 5.04277 87.3084 5.04277C87.1864 5.04277 87.0411 5.12543 87.0004 4.77411C87.1283 4.73278 87.2561 4.71211 87.3491 4.93944Z" fill="#282525" />
		<path d="M43.224 3.15136C43.224 3.15136 43.1834 3.06869 43.1659 3.02736C43.2647 2.7897 43.2996 2.41772 43.4972 2.38672C43.7238 3.03769 43.4332 3.04803 43.224 3.16169V3.15136Z" fill="#282525" />
		<path d="M43.4972 2.37629C43.4972 2.37629 43.4972 2.35563 43.4855 2.34529C43.4855 2.34529 43.4914 2.34529 43.4972 2.33496C43.4972 2.34529 43.503 2.35563 43.5088 2.37629C43.5088 2.37629 43.503 2.37629 43.4972 2.37629Z" fill="#282525" />
		<path d="M6.44467 5.91038C6.49697 6.01371 6.53184 6.15837 6.42142 6.21004C6.38656 6.2307 6.34006 6.12737 6.29938 6.07571C6.29938 5.99304 6.31101 5.90005 6.31682 5.81738C6.36331 5.84838 6.41561 5.84838 6.44467 5.91038Z" fill="#282525" />
		<path d="M5.89245 4.7528C5.92151 5.04212 5.80528 5.12478 5.69487 5.06279C5.63676 5.03179 5.60189 4.84579 5.53215 4.68047C5.61932 4.58747 5.68324 4.45314 5.73554 4.47381C5.79366 4.49447 5.87501 4.63914 5.88663 4.7528H5.89245Z" fill="#282525" />
		<path d="M27.7662 4.08131C27.8243 4.24664 27.7662 4.3913 27.679 4.37064C27.6209 4.3603 27.5686 4.20531 27.5163 4.12265C27.5453 3.97799 27.5686 3.88499 27.5918 3.79199C27.6499 3.88499 27.7313 3.95732 27.7662 4.07098V4.08131Z" fill="#282525" />
		<path d="M21.5015 6.14817C21.5015 6.14817 21.4666 6.2515 21.4433 6.2515C21.2341 6.27216 21.1818 5.97251 21.1354 5.67285C21.2748 5.77618 21.455 5.76585 21.5015 6.14817Z" fill="#282525" />
		<path d="M21.1357 5.68334C21.1357 5.68334 21.1241 5.68334 21.1183 5.67301L21.1299 5.65234C21.1299 5.65234 21.1299 5.67301 21.1357 5.68334Z" fill="#282525" />
		<path d="M16.9517 6.01347C16.9168 6.04447 16.8761 6.10647 16.8529 6.0858C16.818 6.0548 16.7948 5.97214 16.7599 5.89981C16.8122 5.89981 16.8587 5.87914 16.9052 5.89981C16.9226 5.89981 16.9342 5.97214 16.9517 6.01347Z" fill="#282525" />
		<path d="M86.7853 3.76131L86.8027 3.78198C86.8027 3.78198 86.7911 3.78198 86.7853 3.78198C86.7853 3.77164 86.7853 3.76131 86.7853 3.75098V3.76131Z" fill="#282525" />
		<path d="M86.8022 4.44295C86.8022 4.44295 86.8022 4.44295 86.8022 4.43262H86.8086V4.45328L86.8022 4.44295Z" fill="#282525" />
		<path d="M86.547 4.27764C86.5238 3.99865 86.6516 3.86432 86.7853 3.79199C86.7911 3.99865 86.7969 4.21564 86.8027 4.4223C86.6981 4.49463 86.5645 4.47397 86.547 4.27764Z" fill="#282525" />
		<path d="M10.1753 5.32121C10.1288 5.20754 9.96027 5.23854 10.0649 4.94922C10.0997 5.07321 10.1404 5.19721 10.1753 5.32121Z" fill="#282525" />
		<path d="M39.1097 4.87699C39.1097 4.87699 39.069 4.83566 39.0458 4.81499C39.0458 4.77366 39.0458 4.722 39.0458 4.68066C39.0807 4.71166 39.1155 4.75299 39.1504 4.78399C39.1388 4.81499 39.1271 4.87699 39.1155 4.87699H39.1097Z" fill="#282525" />
		<path d="M12.8023 4.1127C12.814 4.19536 12.814 4.27803 12.814 4.37102C12.7675 4.37102 12.7152 4.37102 12.6687 4.36069C12.6919 4.27803 12.7094 4.18503 12.7326 4.1127C12.7384 4.09203 12.8023 4.1127 12.8023 4.1127Z" fill="#282525" />
		<path d="M25.0871 2.00488L25.1045 2.02555C25.1045 2.03588 25.1045 2.04621 25.0987 2.05655C25.0987 2.03588 25.0929 2.02555 25.0871 2.00488Z" fill="#282525" />
		<path d="M24.9887 2.57329C25.0235 2.39763 25.0584 2.22197 25.0932 2.05664C25.1339 2.22197 25.1688 2.39763 25.2095 2.56296C25.1339 2.56296 25.0642 2.57329 24.9887 2.58362V2.57329Z" fill="#282525" />
		<path d="M4.36426 5.85834C4.32358 5.88934 4.27128 5.96167 4.24223 5.94101C4.20155 5.91001 4.18411 5.79634 4.14924 5.71368C4.20155 5.68268 4.25385 5.61035 4.29453 5.64135C4.32939 5.66202 4.34101 5.78601 4.36426 5.86868V5.85834Z" fill="#282525" />
		<path d="M23.5414 0.320694C23.5821 0.279362 23.6286 0.248363 23.6693 0.207031C23.6867 0.279362 23.7041 0.351693 23.71 0.424023C23.71 0.434356 23.6577 0.496354 23.646 0.486021C23.6054 0.444689 23.5763 0.382691 23.5414 0.320694Z" fill="#282525" />
		<path d="M72.5943 3.68845C72.5536 3.70911 72.5129 3.71945 72.4781 3.74011C72.4722 3.69878 72.4606 3.64712 72.4548 3.60578C72.4955 3.58512 72.5362 3.56445 72.5827 3.56445C72.5827 3.56445 72.5943 3.64712 72.6001 3.69878L72.5943 3.68845Z" fill="#282525" />
		<path d="M20.9556 4.83591C20.9556 4.83591 20.9381 4.94957 20.9323 4.93924C20.8916 4.92891 20.851 4.89791 20.8103 4.87724C20.8161 4.83591 20.8335 4.75325 20.8335 4.76358C20.8742 4.78425 20.9149 4.81525 20.9556 4.83591Z" fill="#282525" />
		<path d="M81.9504 2.6345C81.9911 2.6035 82.0434 2.6655 82.0898 2.68616C82.0666 2.76883 82.055 2.89282 82.0201 2.92382C81.9911 2.95482 81.9329 2.89282 81.8864 2.86182C81.9039 2.77916 81.9155 2.65516 81.9446 2.6345H81.9504Z" fill="#282525" />
		<path d="M97.7398 1.4469C97.7107 1.40556 97.6875 1.33323 97.6526 1.27124C97.7049 1.25057 97.7572 1.18857 97.7979 1.20924C97.8735 1.24024 97.8793 1.33323 97.8095 1.4159C97.7921 1.43656 97.7514 1.46756 97.7398 1.4469Z" fill="#282525" />
		<path d="M17.7012 6.06575C17.7012 6.06575 17.7012 6.16908 17.6837 6.17941C17.6663 6.18974 17.6372 6.15874 17.6198 6.14841C17.6256 6.10708 17.6314 6.06575 17.6372 6.02441C17.6605 6.03475 17.6895 6.04508 17.7012 6.06575Z" fill="#282525" />
		<path d="M81.3111 3.95773C81.3111 4.05073 81.2878 4.20572 81.2588 4.22639C81.1832 4.27805 81.0903 4.27805 81.1135 4.04039C81.1193 3.95773 81.1774 3.8854 81.2181 3.80273C81.253 3.86473 81.3111 3.9164 81.3169 3.96806L81.3111 3.95773Z" fill="#282525" />
		<path d="M78.5565 0.36196C78.5565 0.36196 78.5972 0.279297 78.6146 0.279297C78.6553 0.299963 78.6844 0.351628 78.7192 0.382626C78.7018 0.413625 78.6844 0.444624 78.6611 0.46529C78.6263 0.423958 78.5914 0.392959 78.5565 0.351628V0.36196Z" fill="#282525" />
		<path d="M103.307 2.00422C103.348 1.98356 103.388 1.96289 103.435 1.96289C103.441 1.96289 103.452 2.04555 103.458 2.09722C103.412 2.11788 103.371 2.12822 103.324 2.14888C103.319 2.09722 103.313 2.05589 103.307 2.00422Z" fill="#282525" />
		<path d="M30.3115 1.31231C30.3115 1.21931 30.2941 1.09532 30.3231 1.05399C30.4219 0.88866 30.5091 0.898993 30.5439 1.18832L30.5323 1.21931C30.4626 1.25031 30.387 1.28131 30.3173 1.31231H30.3115Z" fill="#282525" />
		<path d="M39.0051 3.77142C39.0806 3.90575 39.0574 4.04008 38.9586 4.08141C38.9121 4.10208 38.8598 4.01942 38.8133 3.98842C38.8249 3.88509 38.8249 3.74043 38.854 3.70943C38.8889 3.67843 38.9644 3.70943 38.9993 3.77142H39.0051Z" fill="#282525" />
		<path d="M94.9561 1.23003C94.9561 1.23003 94.9561 1.0957 94.9619 1.0957C95.0026 1.0957 95.0433 1.0957 95.0781 1.10604C95.0781 1.10604 95.0781 1.1887 95.0781 1.23003C95.0374 1.23003 94.9968 1.23003 94.9561 1.23003Z" fill="#282525" />
		<path d="M76.2437 4.07145L76.232 4.05078H76.2437V4.07145Z" fill="#282525" />
		<path d="M76.3774 3.61651C76.3774 3.61651 76.4297 3.67851 76.4297 3.71984C76.4587 4.02983 76.3541 4.04016 76.2437 4.04016C76.2553 3.8645 76.203 3.60618 76.3774 3.61651Z" fill="#282525" />
		<path d="M24.3608 5.94163L24.3085 5.9003L24.355 5.84863L24.3608 5.94163Z" fill="#282525" />
		<path d="M96.3042 1.06445L96.3101 1.14712L96.2578 1.11612L96.3042 1.06445Z" fill="#282525" />
		<path d="M95.7174 1.10547L95.7871 1.1468L95.7232 1.2088L95.7174 1.10547Z" fill="#282525" />
		<path d="M21.0428 5.66202C21.0428 5.66202 21.0021 5.63102 20.9847 5.61035C21.0196 5.63102 21.0486 5.64135 21.0835 5.66202C21.0719 5.66202 21.0544 5.66202 21.0428 5.66202Z" fill="#282525" />
		<path d="M21.1182 5.67301C21.1182 5.67301 21.095 5.66268 21.0833 5.65234C21.095 5.65234 21.1124 5.65234 21.124 5.65234L21.1124 5.67301H21.1182Z" fill="#282525" />
		<path d="M14.0809 6.21995C14.0809 6.21995 14.0402 6.18895 14.0053 6.15795C14.0518 6.14762 14.0867 6.13729 14.1216 6.12695C14.1041 6.15795 14.0925 6.20962 14.0751 6.21995H14.0809Z" fill="#282525" />
		<path d="M33.6238 4.87695C33.6238 4.87695 33.6412 4.95962 33.6528 5.00095C33.6238 5.00095 33.5889 5.01128 33.5598 5.02161C33.5598 4.98028 33.5599 4.92862 33.5715 4.89762C33.5773 4.87695 33.6063 4.89762 33.6238 4.88729V4.87695Z" fill="#282525" />
		<path d="M87.6162 4.22583C87.5813 4.26716 87.5465 4.30849 87.5058 4.33949C87.5 4.33949 87.4767 4.2775 87.4593 4.23616C87.4709 4.19483 87.4942 4.1225 87.5 4.13283C87.5407 4.1535 87.5755 4.19483 87.6162 4.23616V4.22583Z" fill="#282525" />
		<path d="M14.2667 0.527C14.2667 0.527 14.3015 0.444336 14.3248 0.444336C14.348 0.444336 14.3713 0.475335 14.3945 0.496001C14.3771 0.527 14.3597 0.557998 14.3364 0.588997C14.3132 0.568331 14.2899 0.547665 14.2667 0.537332V0.527Z" fill="#282525" />
		<path d="M26.7667 0L26.7725 0.0929966L26.7085 0.0619977L26.7667 0Z" fill="#282525" />
		<path d="M25.9647 0.0926804C25.9647 0.0926804 25.9996 0.0616815 26.017 0.0410156C26.0344 0.0616815 26.0577 0.0823474 26.0635 0.113346C26.0635 0.144345 26.046 0.185677 26.0402 0.216676C26.017 0.175344 25.9879 0.134012 25.9647 0.0926804Z" fill="#282525" />
		<path d="M20.0955 0.68218C20.0955 0.68218 20.0955 0.589183 20.1129 0.57885C20.1304 0.558185 20.1594 0.558185 20.1885 0.547852C20.1827 0.609849 20.1769 0.671847 20.171 0.733845C20.1478 0.723512 20.1246 0.702846 20.1013 0.692513L20.0955 0.68218Z" fill="#282525" />
		<path d="M19.584 0.629883L19.6479 0.660882L19.5956 0.733212L19.584 0.629883Z" fill="#282525" />
		<path d="M4.92812 6.02407V5.94141L4.97461 5.98274L4.92812 6.02407Z" fill="#282525" />
		<path d="M26.0459 4.38149C26.0459 4.38149 26.0227 4.50549 26.011 4.49515C25.9704 4.48482 25.9297 4.45382 25.889 4.42282C25.9006 4.38149 25.9122 4.29883 25.918 4.29883C25.9587 4.31949 26.0052 4.35049 26.0459 4.37116V4.38149Z" fill="#282525" />
		<path d="M33.3103 3.94701L33.3219 3.91602C33.3277 3.92635 33.3335 3.94701 33.3394 3.95735C33.3277 3.95735 33.3161 3.95735 33.3103 3.94701Z" fill="#282525" />
		<path d="M33.409 4.12317C33.3857 4.0715 33.3625 4.01984 33.3393 3.95784C33.3857 3.95784 33.4555 3.92684 33.409 4.12317Z" fill="#282525" />
		<path d="M20.624 4.00964C20.624 4.00964 20.5775 4.00964 20.5601 3.97865C20.5485 3.96831 20.5601 3.91665 20.5601 3.87532C20.5775 3.86498 20.6008 3.84432 20.6182 3.83398C20.6182 3.89598 20.6182 3.94765 20.624 4.00964Z" fill="#282525" />
		<path d="M7.10721 5.11521C7.15951 5.07387 7.21181 5.03254 7.2583 4.99121C7.22343 5.06354 7.18857 5.14621 7.15951 5.21854C7.14208 5.18754 7.12464 5.14621 7.10721 5.11521Z" fill="#282525" />
		<path d="M7.2872 4.93945L7.29883 4.96012C7.28721 4.96012 7.27558 4.98078 7.25815 4.99112C7.26396 4.97045 7.27558 4.94979 7.2814 4.93945H7.2872Z" fill="#282525" />
		<path d="M40.8999 2.73844L40.865 2.7901L40.8592 2.71777L40.8999 2.73844Z" fill="#282525" />
		<path d="M30.8403 3.69881C30.8403 3.69881 30.7997 3.75047 30.7822 3.78147C30.7822 3.76081 30.7822 3.72981 30.7938 3.70914C30.7997 3.68848 30.8229 3.69881 30.8403 3.68848V3.69881Z" fill="#282525" />
		<path d="M30.7764 3.78223C30.7764 3.78223 30.7706 3.82356 30.7648 3.84422C30.7648 3.84422 30.7531 3.84422 30.7473 3.84422C30.7473 3.84422 30.7473 3.83389 30.7473 3.82356C30.7531 3.81323 30.7647 3.80289 30.7706 3.79256L30.7764 3.78223Z" fill="#282525" />
		<path d="M21.0427 4.00879L21.0659 4.05012L21.0601 4.06045L21.0427 4.00879Z" fill="#282525" />
		<path d="M3.72484 4.94979C3.77133 4.94979 3.82363 4.94979 3.87012 4.93945C3.82363 5.12545 3.77714 5.15644 3.72484 4.94979Z" fill="#282525" />
		<path d="M3.89355 4.9392C3.89355 4.9392 3.88193 4.9392 3.87612 4.9392C3.87612 4.9392 3.87612 4.92887 3.88193 4.9082L3.89355 4.92887V4.9392Z" fill="#282525" />
		<path d="M3.7251 4.94994C3.7251 4.94994 3.71347 4.94994 3.70766 4.94994L3.71928 4.91895C3.71928 4.91895 3.71929 4.92928 3.7251 4.93961V4.94994Z" fill="#282525" />
		<path d="M6.72373 2.35547C6.72373 2.35547 6.72954 2.35547 6.73535 2.3658C6.66562 2.37613 6.59007 2.38647 6.52034 2.40713C6.52034 2.40713 6.52034 2.40713 6.52034 2.3968C6.52034 2.3968 6.53196 2.3968 6.53777 2.3968C6.60169 2.38647 6.66562 2.3658 6.73535 2.35547H6.72373Z" fill="#282525" />
		<path d="M11.5298 2.00455C11.4949 1.94255 11.4658 1.89089 11.431 1.82889C11.5123 1.78756 11.5414 1.84956 11.5298 2.00455Z" fill="#282525" />
		<path d="M27.1272 2.21125L27.1562 2.16992H27.1504L27.1272 2.21125Z" fill="#282525" />
		<path d="M3.70761 4.94985L3.67275 4.86719L3.71924 4.92919L3.70761 4.94985Z" fill="#282525" />
		<path d="M93.6368 5.4972C93.6368 5.4972 93.6194 5.39387 93.6136 5.35254C93.6252 5.39387 93.6368 5.4352 93.6484 5.4662L93.6368 5.4972Z" fill="#282525" />
		<path d="M93.6367 5.49682L93.6541 5.46582L93.689 5.54848L93.6367 5.49682Z" fill="#282525" />
		<path d="M86.9888 4.77417C86.9249 4.66051 86.8668 4.55718 86.8029 4.44352L86.8087 4.42285C86.8726 4.53651 86.9307 4.63984 86.9946 4.75351L86.9888 4.77417Z" fill="#282525" />
		<path d="M10.2046 5.3837L10.1813 5.3527C10.1813 5.3527 10.1813 5.33203 10.1755 5.33203C10.1755 5.33203 10.1872 5.33203 10.1872 5.3527L10.2046 5.39403V5.3837Z" fill="#282525" />
		<path d="M17.9624 4.84577L17.9217 4.8561L17.9333 4.77344L17.9624 4.84577Z" fill="#282525" />
	</g>
	<defs>
		<clipPath id="clip0_175_68527">
			<rect width="113" height="9" fill="white" transform="matrix(-1 0 0 1 113 0)" />
		</clipPath>
	</defs>
</svg>