<svg width="14" height="12" viewBox="0 0 14 12" fill="none" xmlns="http://www.w3.org/2000/svg">
<g clip-path="url(#clip0_175_67923)">
<path d="M3.76835 2.44776C3.72641 2.49237 3.68328 2.53549 3.64494 2.58457C3.58623 2.65891 3.482 2.67825 3.46762 2.81059C3.46522 2.82992 3.42449 2.85074 3.39933 2.8552C3.23758 2.88048 3.23998 2.88345 3.12137 2.97267C3.02911 3.04256 2.93446 3.10501 2.81704 3.04107C2.76073 3.00984 2.71401 3.04851 2.67806 3.12137C2.60498 3.27155 2.59419 3.27007 2.45162 3.19572C2.44083 3.25222 2.43005 3.30427 2.41927 3.36226C2.39171 3.3578 2.35697 3.35185 2.30784 3.34442C2.32342 3.29535 2.3366 3.25074 2.35217 3.20018C2.24914 3.22248 2.28987 2.99795 2.16647 3.01431V3.1288C2.04665 3.10055 1.91606 3.03066 1.87293 3.25668C1.825 3.21207 1.78666 3.1749 1.74832 3.13773C1.74233 3.14367 1.73634 3.14962 1.73035 3.15557C1.74473 3.1868 1.75911 3.21951 1.77708 3.25668C1.75431 3.30278 1.73155 3.35334 1.70639 3.4039C1.5734 3.38457 1.56381 3.40092 1.59137 3.61654C1.55063 3.61654 1.51229 3.61951 1.47276 3.61654C1.444 3.61356 1.41525 3.60464 1.38649 3.5972C1.39727 3.55706 1.40566 3.51691 1.42004 3.47973C1.42363 3.46932 1.4452 3.47081 1.46197 3.46486C1.42483 3.4262 1.41045 3.40984 1.38649 3.38308C1.4476 3.34144 1.50391 3.30129 1.59257 3.24033C1.54944 3.20761 1.52308 3.18828 1.47395 3.1526C1.58778 3.13029 1.59017 2.99795 1.66086 2.92955C1.64528 2.89535 1.62492 2.85074 1.60095 2.79572C1.64648 2.75111 1.75791 2.75854 1.68722 2.63958C1.73634 2.60538 1.77468 2.57713 1.81302 2.55036C1.81182 2.54144 1.80943 2.53252 1.80823 2.5236H1.68123C1.7627 2.41654 1.85496 2.43587 1.9544 2.46115C1.94961 2.40613 1.94481 2.3526 1.94002 2.29906C2.09937 2.26486 2.14011 2.19349 2.12693 1.97639C2.16766 1.94813 2.2084 1.91988 2.25632 1.88717C2.25273 1.79646 2.27549 1.73401 2.34978 1.68196C2.42047 1.63141 2.46959 1.53178 2.5259 1.45594C2.59419 1.46635 2.59779 1.59721 2.68166 1.55854C2.75834 1.52434 2.8422 1.5065 2.86257 1.37713C2.9057 1.40687 2.94285 1.43215 2.99796 1.46932C3.00515 1.37416 3.00994 1.29832 3.01713 1.19869C3.05906 1.16449 3.12017 1.11393 3.19685 1.05148C3.20044 1.11393 3.20284 1.15408 3.20404 1.19423C3.30588 1.221 3.29988 1.0946 3.34661 1.02918C3.40292 1.14813 3.38615 1.24033 3.32385 1.35185C3.39334 1.3459 3.46163 1.34144 3.53112 1.33549C3.53711 1.25371 3.53232 1.17341 3.55269 1.10352C3.57186 1.03661 3.61858 0.983079 3.66291 0.907242C3.68927 0.963748 3.70605 0.999436 3.72282 1.03661C3.73959 1.03364 3.75876 1.03661 3.76475 1.0262C3.80669 0.966722 3.84143 0.917651 3.91811 0.969696C3.93968 0.984566 4.00078 0.916164 4.04152 0.881963C4.08225 0.847763 4.10023 0.715421 4.17571 0.837354C4.19847 0.807614 4.22124 0.777874 4.244 0.748134C4.26077 0.72583 4.28833 0.68122 4.29432 0.685681C4.36501 0.730291 4.41174 0.657428 4.47404 0.632149C4.4992 0.724343 4.49321 0.84925 4.61422 0.859659C4.625 0.825458 4.64058 0.780848 4.66694 0.700551C4.67293 0.757056 4.67532 0.779361 4.67772 0.801666C4.77477 0.868581 4.86463 0.844789 4.9437 0.758543C4.97126 0.728804 4.98683 0.713934 5.02757 0.72583C5.08268 0.742187 5.12342 0.676759 5.11863 0.60241C5.11743 0.581592 5.11623 0.559287 5.11982 0.538469C5.12462 0.517651 5.1366 0.49832 5.14978 0.468581C5.15697 0.511703 5.16176 0.544417 5.16655 0.577131C5.26 0.541443 5.25881 0.541443 5.24443 0.440328C5.24083 0.415049 5.24802 0.386796 5.27438 0.357056C5.28876 0.415049 5.30314 0.474529 5.3235 0.556313C5.36184 0.510216 5.38581 0.480476 5.41816 0.443302C5.44811 0.465607 5.48285 0.492372 5.51161 0.51319C5.70211 0.412075 5.89381 0.36003 6.10588 0.36003C6.11067 0.388283 6.12025 0.416536 6.11666 0.441815C6.10468 0.52806 6.17297 0.5578 6.19933 0.545904C6.29398 0.501294 6.36826 0.544417 6.44854 0.593488C6.4737 0.608357 6.51204 0.597949 6.54319 0.58754C6.61148 0.566722 6.6618 0.580105 6.70134 0.661889C6.72291 0.706499 6.83313 0.682707 6.90262 0.626201C6.93138 0.660402 6.96013 0.694603 6.99128 0.731778C7.05838 0.688655 7.0476 0.547391 7.15662 0.547391C7.14944 0.580105 7.14225 0.608357 7.13266 0.649993C7.1686 0.645532 7.20095 0.639584 7.25247 0.632149C7.22492 0.589027 7.20694 0.562261 7.17939 0.519138C7.22731 0.501294 7.26805 0.484937 7.31717 0.465607C7.32795 0.514677 7.33514 0.551852 7.34712 0.600923C7.4262 0.577131 7.52085 0.673785 7.58076 0.514677C7.68859 0.66635 7.78923 0.624714 7.89706 0.554826C7.92821 0.535495 7.97254 0.490885 8.02406 0.551852C8.04083 0.571183 8.11632 0.508729 8.17143 0.481963C8.17502 0.489398 8.18461 0.507242 8.193 0.526573C8.23972 0.458172 8.27806 0.355569 8.33557 0.334752C8.37511 0.319882 8.45658 0.290142 8.5057 0.370439C8.55483 0.306499 8.59676 0.25148 8.63989 0.196462C8.62791 0.175644 8.61713 0.1578 8.60635 0.138469C8.61234 0.131034 8.61713 0.116164 8.62312 0.116164C8.71777 0.105755 8.81362 0.0804765 8.90348 0.0566847C9.02569 0.0224839 9.13951 0.0239709 9.25932 0.0418148C9.31204 0.0492497 9.36955 0.01951 9.42466 0.00612706C9.51332 -0.0161778 9.51452 -0.0146908 9.51691 0.108729C9.60318 0.131034 9.75294 0.241071 9.82483 0.322856C9.84879 0.349622 9.88833 0.363004 9.92188 0.365978C9.99856 0.373413 10.0764 0.370439 10.1531 0.376387C10.1759 0.377874 10.1986 0.395718 10.2322 0.410588C10.243 0.395718 10.2645 0.368952 10.2909 0.333265C10.3388 0.380848 10.3915 0.418023 10.4287 0.473042C10.4586 0.517651 10.4838 0.536982 10.5317 0.541443C10.5689 0.544417 10.6048 0.586053 10.6384 0.614305C10.6611 0.635123 10.6755 0.676759 10.6995 0.687168C10.757 0.71096 10.7965 0.734752 10.8205 0.820997C10.8372 0.87899 10.9103 0.916164 10.9786 0.884937C11.0217 0.86412 11.0769 0.865607 11.0888 0.923599C11.1164 1.04999 11.1955 1.05297 11.2758 1.0604C11.2386 1.22397 11.2386 1.22397 11.3608 1.29386C11.3512 1.24925 11.344 1.21654 11.3321 1.16449C11.362 1.17639 11.398 1.17936 11.4028 1.19572C11.4243 1.26858 11.4543 1.32806 11.5154 1.35631C11.5154 1.36523 11.5154 1.37416 11.5154 1.38308C11.5274 1.53921 11.5393 1.69535 11.5525 1.86189C11.5393 1.86635 11.5106 1.86932 11.489 1.88717C11.4818 1.89312 11.4842 1.94665 11.4962 1.95706C11.5693 2.021 11.5897 2.05817 11.5765 2.17267C11.5765 2.18308 11.5034 2.1801 11.4351 2.18605C11.483 2.26486 11.5178 2.31988 11.5609 2.38977H11.4483C11.5609 2.47602 11.4519 2.68865 11.616 2.70055C11.6424 2.74665 11.5609 2.75557 11.6052 2.80315C11.6244 2.82397 11.6328 2.85817 11.646 2.88345C11.6999 2.79423 11.7682 2.78828 11.8077 2.87602C11.8317 2.92955 11.8544 2.98308 11.8832 3.04851C11.8676 3.0723 11.8449 3.10501 11.8197 3.14219C11.8904 3.22694 11.9623 3.12583 12.0354 3.16746C12.0797 3.27155 12.0953 3.41877 12.2354 3.45445C12.275 3.43364 12.3301 3.40687 12.3984 3.37267C12.3349 3.33698 12.2894 3.31022 12.239 3.28196C12.2558 3.22397 12.2702 3.17639 12.2846 3.12732C12.2606 3.02769 12.1192 2.9578 12.2318 2.81505C12.2522 2.87602 12.2163 2.99497 12.3289 2.93103C12.3864 2.89832 12.4044 2.94442 12.3852 3.01133C12.3648 3.08122 12.3768 3.11988 12.4439 3.11839C12.4966 3.11839 12.5002 3.17044 12.4906 3.21356C12.4667 3.32211 12.4835 3.37416 12.5589 3.392C12.5901 3.39944 12.6236 3.392 12.6704 3.392C12.6069 3.5288 12.8093 3.54219 12.7303 3.70873C12.777 3.68494 12.8034 3.67155 12.8561 3.64479C12.8321 3.72657 12.8141 3.78457 12.7926 3.85892C12.898 3.84553 12.9639 3.9065 13.0082 4.01802C13.0202 4.04776 13.0681 4.05668 13.1065 4.0775C13.0669 4.09535 13.031 4.1117 12.9879 4.13103C13.0238 4.22769 13.0562 4.31245 13.0981 4.42546C13.1077 4.31691 13.1544 4.29312 13.2191 4.27378C13.3054 4.24851 13.3365 4.2604 13.3353 4.363C13.3329 4.51616 13.3796 4.60836 13.4683 4.65148C13.5078 4.75111 13.5474 4.83141 13.5701 4.91914C13.5893 4.99051 13.5881 5.07081 13.5965 5.15557C13.672 5.13029 13.7487 5.10352 13.8289 5.07676C13.8217 5.00538 13.8158 4.95483 13.8086 4.89089C13.8553 4.85966 13.9032 4.82843 13.9763 4.78234C13.9631 4.86858 13.9547 4.92211 13.9452 4.9801C13.9571 4.98605 13.9739 4.99349 14.0051 5.00687C13.9763 5.04702 13.9511 5.08122 13.926 5.11542C13.8817 5.17639 13.8984 5.21802 13.9547 5.25074C13.9428 5.28196 13.9308 5.31319 13.9188 5.34293H13.8098C13.8074 5.35037 13.8038 5.35929 13.8014 5.36672C13.8289 5.38903 13.8565 5.41133 13.8781 5.42769C13.8757 5.4604 13.8625 5.5065 13.8733 5.51839C13.9236 5.57193 13.9356 5.60464 13.8948 5.69089C13.8565 5.77267 13.9392 5.7578 13.9907 5.76375C13.9811 5.792 13.9727 5.81579 13.9643 5.84107C13.938 5.82174 13.9164 5.80687 13.8924 5.79051C13.8673 5.84107 13.8457 5.88271 13.8241 5.92434C13.8409 5.93921 13.8577 5.95557 13.89 5.98382C13.8553 6.00464 13.8361 6.02694 13.817 6.02397C13.7223 6.01356 13.7223 6.01207 13.7415 6.11765C13.7439 6.12806 13.7427 6.13996 13.7415 6.13103C13.6959 6.21579 13.6217 6.29014 13.6265 6.35408C13.6384 6.51765 13.5582 6.64702 13.5474 6.80018C13.5414 6.8894 13.4719 6.97416 13.424 7.05594C13.3808 7.13029 13.3317 7.11988 13.2898 7.0381C13.2179 7.11245 13.1101 7.13921 13.1304 7.29535C13.1304 7.29981 13.1268 7.30576 13.1232 7.30873C12.9783 7.44107 12.9639 7.67602 12.8489 7.83661C12.7746 7.94219 12.7039 8.0433 12.5937 8.10129V8.27825C12.5589 8.29014 12.529 8.29906 12.4918 8.31096C12.5122 8.35408 12.529 8.3868 12.5482 8.42694C12.4535 8.46412 12.5014 8.5697 12.4751 8.64405C12.4415 8.65445 12.4068 8.66338 12.3577 8.67825C12.3696 8.73475 12.3792 8.78234 12.396 8.86263C12.3636 8.90724 12.3193 8.96672 12.2762 9.0262C12.2642 9.01728 12.251 9.00687 12.239 8.99795C12.239 8.97564 12.2378 8.95185 12.2354 8.91319C12.1624 8.98903 12.0713 9.00836 12.0126 9.11542C11.9108 9.30129 11.7754 9.43364 11.5837 9.45594C11.5585 9.45891 11.5357 9.50204 11.5034 9.53624C11.489 9.47973 11.4782 9.4381 11.4603 9.36821C11.4219 9.42769 11.3932 9.46338 11.374 9.5065C11.3201 9.62694 11.2769 9.64925 11.1835 9.59274C11.1691 9.62546 11.1559 9.68642 11.1392 9.68791C11.0241 9.69981 10.9678 9.80092 10.9127 9.90501C10.866 9.99423 10.8181 10.0835 10.7821 10.1786C10.7642 10.2247 10.7689 10.2857 10.7642 10.3303C10.745 10.2991 10.7222 10.2634 10.6947 10.2203C10.6587 10.2872 10.6276 10.3437 10.5832 10.424C10.6455 10.4195 10.6851 10.4165 10.7474 10.4121C10.6863 10.4567 10.6455 10.4968 10.6 10.5191C10.5257 10.5533 10.4706 10.6113 10.4251 10.6872C10.3808 10.763 10.3185 10.7838 10.2502 10.7541C10.1927 10.7288 10.1435 10.7288 10.0872 10.7823C10.1136 10.8076 10.1315 10.8269 10.1531 10.8478C10.0992 10.9281 10.0453 10.8299 9.98298 10.8597C9.9746 10.8983 9.96381 10.9459 9.95183 11.0039C9.91589 10.9875 9.87994 10.9712 9.8452 10.9563C9.83801 10.9637 9.82962 10.9712 9.82244 10.9786C9.85598 11.0515 9.88953 11.1243 9.92427 11.2017C9.87635 11.2478 9.84041 11.3206 9.76493 11.3087C9.70023 11.2983 9.66189 11.4173 9.58281 11.3578C9.55885 11.34 9.50973 11.3637 9.47498 11.3786C9.43664 11.3935 9.4007 11.4203 9.35157 11.4485C9.28328 11.3533 9.20301 11.3831 9.11914 11.444C9.06642 11.4827 9.0197 11.5556 8.94302 11.4931C8.93104 11.4827 8.88072 11.5214 8.86394 11.5496C8.84956 11.5749 8.85795 11.621 8.85436 11.676C8.828 11.6492 8.81003 11.6314 8.79685 11.618C8.61353 11.6686 8.46137 11.8158 8.27327 11.8619C8.29723 11.8351 8.32239 11.8084 8.35234 11.7742C8.3188 11.7712 8.29004 11.7697 8.26249 11.7667C8.16184 11.7593 8.15945 11.7623 8.13189 11.9006C8.1283 11.9169 8.11632 11.9303 8.10913 11.9452V11.9422C8.0636 11.9571 8.01807 11.9734 7.96056 11.9927C7.9977 11.9377 8.02406 11.8976 8.05282 11.8559C8.00489 11.8009 7.96655 11.9229 7.9354 11.8351C7.933 11.8292 7.90784 11.8292 7.89826 11.8351C7.86591 11.8604 7.83715 11.8857 7.80121 11.844C7.79163 11.8336 7.76167 11.8277 7.75688 11.8336C7.72573 11.8827 7.68499 11.8842 7.66343 11.8426C7.64905 11.8143 7.66582 11.7593 7.67062 11.7177C7.67062 11.7072 7.6802 11.6983 7.68379 11.6894C7.62868 11.6448 7.57237 11.6002 7.51366 11.5526C7.53523 11.5348 7.5508 11.5214 7.56159 11.5124C7.5532 11.4946 7.54961 11.4842 7.54961 11.4842C7.44537 11.5496 7.32795 11.4842 7.21773 11.5288C7.1714 11.4525 7.07236 11.4371 6.92059 11.4827C6.94815 11.5035 6.96373 11.5154 6.9805 11.5273C6.97571 11.5348 6.96972 11.5481 6.96493 11.5481C6.89304 11.5526 6.81995 11.5541 6.74807 11.5571C6.71092 11.5585 6.69056 11.5838 6.6606 11.615C6.58991 11.6894 6.51084 11.8113 6.39462 11.7028C6.35988 11.7742 6.28919 11.6448 6.25804 11.7385C6.25684 11.7429 6.25205 11.7474 6.24965 11.7519C6.16219 11.6448 6.05675 11.737 5.9621 11.7132C5.94413 11.7087 5.92017 11.6998 5.91298 11.6835C5.85547 11.5541 5.75962 11.5972 5.67815 11.6106C5.61345 11.621 5.56552 11.621 5.50682 11.5734C5.44811 11.5258 5.37023 11.5154 5.29954 11.4872C5.30194 11.4678 5.30673 11.4351 5.31392 11.3861C5.25401 11.3786 5.16416 11.3489 5.15337 11.3712C5.11503 11.4589 4.99282 11.3756 4.98923 11.5333C4.95329 11.4827 4.92693 11.447 4.89937 11.4098C4.75919 11.444 4.61662 11.4336 4.47524 11.3652H4.56629C4.55791 11.2998 4.49081 11.2091 4.39616 11.1333C4.40575 11.0991 4.41533 11.0634 4.42492 11.0292C4.35063 11.0366 4.28114 11.0158 4.22843 10.9429C4.18529 10.8834 4.17211 10.7675 4.07147 10.8165C4.06788 10.818 4.0559 10.7942 4.04871 10.7794C4.00198 10.6842 4.00198 10.6842 3.93968 10.7556C3.9265 10.7704 3.90973 10.7823 3.89415 10.7957C3.89056 10.7987 3.88457 10.7987 3.87858 10.8017C3.8618 10.7779 3.84263 10.7526 3.80908 10.7065C3.74319 10.8492 3.68328 10.9816 3.62697 11.102C3.6737 11.2284 3.75637 11.2611 3.85341 11.2849C3.82945 11.3206 3.81508 11.3414 3.79111 11.3756C3.84503 11.4232 3.89894 11.4693 3.95645 11.5184C3.93728 11.5362 3.91691 11.5556 3.88816 11.5823C3.94327 11.5957 3.9924 11.6091 4.04032 11.621C4.01037 11.8113 3.89295 11.6522 3.83305 11.734C3.82825 11.6775 3.82346 11.6255 3.81627 11.5571C3.67849 11.621 3.62218 11.4738 3.53352 11.4084C3.57785 11.4247 3.609 11.4128 3.61739 11.3355C3.59223 11.3444 3.57186 11.3429 3.56107 11.3563C3.54909 11.3697 3.5455 11.395 3.53831 11.4143C3.52034 11.4321 3.50117 11.45 3.47721 11.4738C3.46163 11.4426 3.45324 11.3979 3.43048 11.3831C3.39454 11.3593 3.34901 11.34 3.31067 11.3474C3.20284 11.3697 3.101 11.3355 2.99676 11.3177C2.9752 11.3132 2.94884 11.3459 2.92607 11.3608C2.95962 11.2983 2.96082 11.2448 2.89732 11.2002C2.88653 11.2552 2.87695 11.3013 2.86736 11.3474C2.89372 11.3519 2.9117 11.3548 2.92967 11.3578C2.89372 11.4009 2.85658 11.444 2.82064 11.4887H2.81225C2.80267 11.4366 2.79428 11.3861 2.7835 11.3295C2.72479 11.3444 2.66009 11.3712 2.63613 11.2537C2.66728 11.2492 2.69723 11.2448 2.73318 11.2403C2.70083 11.1972 2.67207 11.1585 2.64212 11.1184C2.56424 11.1704 2.51751 11.16 2.47438 11.0753C2.45761 11.0426 2.44203 11.0098 2.42526 10.9771L2.42766 10.9831C2.39411 10.9756 2.35936 10.9712 2.32582 10.9608C2.29347 10.9504 2.26232 10.9355 2.22997 10.9221C2.28268 10.9295 2.32582 10.8507 2.38932 10.8998C2.40849 10.9147 2.47079 10.879 2.44563 10.8121C2.37973 10.8255 2.32102 10.8329 2.26711 10.8537C2.25153 10.8597 2.24554 10.9013 2.23476 10.9281C2.21199 10.9191 2.17725 10.9177 2.16647 10.8983C2.12693 10.8195 2.12932 10.818 2.04306 10.8448C1.99394 10.7362 1.97117 10.6128 1.88131 10.5236C1.81182 10.4537 1.78187 10.3229 1.72915 10.2098C1.74353 10.1994 1.7627 10.1846 1.78906 10.1652C1.70879 10.0507 1.62971 9.93624 1.54944 9.82025C1.49432 9.81133 1.45838 9.8381 1.46557 9.91542C1.47036 9.97193 1.47875 10.0314 1.49552 10.0849C1.51948 10.1637 1.49911 10.2143 1.44999 10.2619C1.40446 10.1548 1.34096 10.1177 1.25949 10.1504C1.21636 10.0849 1.17323 10.018 1.13249 9.95557C1.15166 9.90501 1.17323 9.84851 1.20318 9.7697H1.04742C1.04503 9.71616 1.04503 9.66561 1.04024 9.61654C1.03784 9.59572 1.02586 9.55854 1.01987 9.56003C0.936 9.56598 0.940792 9.46932 0.907245 9.40984C0.866509 9.45594 0.828169 9.49906 0.774254 9.56152C0.726329 9.44256 0.705961 9.32509 0.647253 9.25817C0.569376 9.16895 0.618499 9.05297 0.571772 8.96375C0.522649 8.86858 0.571772 8.76895 0.54781 8.64107C0.501083 8.63512 0.430394 8.62471 0.357309 8.61431C0.394451 8.57416 0.427998 8.52657 0.378875 8.47155C0.366894 8.45817 0.332148 8.47453 0.298601 8.47899C0.263856 8.43141 0.231507 8.32286 0.144044 8.41802L0.132063 8.42546C0.124874 8.40613 0.108101 8.38233 0.112893 8.36895C0.148837 8.26338 0.136855 8.18011 0.0865344 8.07304C0.0505909 7.9972 0.0194399 7.87825 0.0422041 7.76821C0.0685627 7.6433 0.0661664 7.51245 0.0146474 7.40538C-0.020098 7.33252 0.00506247 7.29535 0.0290248 7.25222C0.0961194 7.1288 0.171601 7.01133 0.239893 6.88791C0.254271 6.86115 0.257865 6.82397 0.260261 6.78977C0.269846 6.66784 0.268648 6.66784 0.329752 6.592C0.318969 6.54739 0.306988 6.49981 0.291412 6.44033C0.322564 6.45669 0.341733 6.46709 0.374083 6.48345C0.374083 6.39274 0.36929 6.30352 0.448366 6.26784C0.454356 6.09683 0.606517 5.98234 0.568178 5.79497C0.562187 5.76523 0.570574 5.72211 0.557395 5.70576C0.513064 5.65074 0.557395 5.61356 0.575366 5.5868C0.607715 5.53773 0.701169 5.53624 0.646055 5.4262C0.646055 5.42471 0.658036 5.40687 0.666423 5.4039C0.750291 5.38308 0.830565 5.31319 0.921622 5.37564C0.928811 5.3697 0.943188 5.36375 0.943188 5.35631C0.943188 5.16598 1.07977 5.08717 1.15406 4.95631C1.1888 4.89535 1.22355 4.83438 1.26189 4.77787C1.29304 4.73178 1.33138 4.69163 1.37092 4.64256C1.45598 4.73029 1.54584 4.67378 1.6345 4.65892C1.64768 4.59795 1.66206 4.53698 1.67763 4.46412C1.71957 4.48791 1.75551 4.50873 1.80823 4.53996C1.79864 4.44479 1.79026 4.37044 1.78067 4.28419C1.81182 4.25297 1.85615 4.21133 1.89689 4.16523C1.92564 4.13401 1.94601 4.1236 1.98076 4.16077C2.03228 4.21431 2.05264 4.20241 2.07301 4.1236C2.07541 4.11319 2.07181 4.09981 2.07541 4.0894C2.079 4.08048 2.08859 4.07602 2.09578 4.06858C2.12932 4.10526 2.12853 4.23512 2.09338 4.45817C2.17166 4.57713 2.19203 4.69956 2.15448 4.82546C2.18683 4.8091 2.2108 4.80464 2.22757 4.7868C2.25033 4.76449 2.26591 4.73178 2.28388 4.70352L2.28029 4.69758C2.29586 4.73326 2.31264 4.76895 2.34259 4.83587C2.35697 4.76747 2.36416 4.73178 2.37134 4.69758L2.36895 4.70352C2.45401 4.73921 2.39051 4.63958 2.43365 4.61133C2.52111 4.61133 2.60258 4.57267 2.64691 4.43289C2.68285 4.32137 2.74995 4.2262 2.80147 4.12211C2.83861 4.04628 2.93566 4.02248 2.92487 3.89758C2.92487 3.88419 3.00994 3.8604 3.06386 3.83661C3.07344 3.91096 3.08063 3.96003 3.08662 4.01059C3.08303 3.90799 3.23998 3.89906 3.15491 3.76077C3.20523 3.7697 3.23159 3.77416 3.26514 3.7801C3.25316 3.73252 3.2292 3.6894 3.23638 3.6552C3.24357 3.61654 3.27832 3.5868 3.2927 3.56598C3.40772 3.55706 3.51075 3.54962 3.62338 3.54219C3.61978 3.51839 3.61499 3.48717 3.6066 3.44107C3.72881 3.47081 3.82706 3.42471 3.90374 3.29088C3.88696 3.27602 3.86779 3.25966 3.8606 3.25222C3.90254 3.17787 3.94926 3.11542 3.97562 3.04256C4.00198 2.97118 3.96963 2.8775 3.91811 2.87453C3.83305 2.86858 3.8007 2.80613 3.77074 2.72583C3.75996 2.69758 3.7372 2.67825 3.71443 2.64702C3.76116 2.59051 3.7983 2.5236 3.76236 2.43438C3.77793 2.46263 3.78991 2.51022 3.81028 2.51616C3.89056 2.53996 3.97323 2.54888 4.07027 2.56672C4.01396 2.47007 3.96364 2.38382 3.90853 2.28866C3.85581 2.34367 3.81028 2.39126 3.76595 2.43735L3.76835 2.44776ZM11.9659 4.92211L11.9623 4.91765C11.9874 4.97416 12.0114 5.03066 12.0401 5.0946C11.9215 5.25074 12.1096 5.32657 12.0953 5.4604C12.1252 5.44999 12.142 5.44405 12.1695 5.43512C12.1516 5.57639 12.1252 5.69089 12.0006 5.71616C11.9982 5.71616 11.997 5.72509 11.9982 5.72063C12.0066 5.78457 12.015 5.84107 12.0282 5.93773C12.1324 5.83215 12.2139 5.74888 12.2953 5.66561C12.2426 5.8262 12.1552 5.93475 12.003 5.97639C12.0665 6.04033 12.112 6.08494 12.142 6.11616C12.1863 6.08345 12.2295 6.07007 12.239 6.04033C12.2558 5.99126 12.2486 5.93178 12.2558 5.87676C12.2594 5.85594 12.2774 5.83958 12.2882 5.82174C12.3744 5.8604 12.4355 5.83512 12.4499 5.74888C12.4775 5.59423 12.4918 5.43512 12.3816 5.31765C12.3361 5.26858 12.3229 5.21505 12.3229 5.15111C12.3229 5.03512 12.2774 4.94144 12.2259 4.8552C12.2031 4.81654 12.1576 4.77787 12.1228 4.77787C12.0557 4.77936 11.9898 4.81059 11.912 4.83289C11.9335 4.87007 11.9491 4.89683 11.9635 4.92211H11.9659ZM2.37733 9.8381L2.38093 9.84256C2.37614 9.81431 2.37134 9.78605 2.36655 9.76077C2.3354 9.70873 2.24914 9.77267 2.24674 9.67453C2.24434 9.55706 2.14849 9.69386 2.13771 9.60761C2.13412 9.58382 2.12573 9.56152 2.11495 9.51988C2.19762 9.52583 2.26471 9.66115 2.3342 9.53624C2.2731 9.47825 2.19402 9.43958 2.16407 9.36821C2.11375 9.25074 2.00232 9.36077 1.96039 9.25371C1.99753 9.17787 2.02868 9.08717 2.079 9.02025C2.13531 8.9459 2.11734 8.89683 2.06702 8.84776C2.03827 8.81951 2.00232 8.79869 1.96758 8.78382C1.90647 8.75854 1.825 8.63512 1.83579 8.56672C1.84537 8.49981 1.86334 8.43438 1.88012 8.36003C1.90887 8.35111 1.94242 8.34219 1.97716 8.33178C1.97716 8.26189 1.97716 8.20538 1.97716 8.14739C1.97716 8.0894 1.97237 8.03289 1.97237 8.01356C1.91127 7.96003 1.87293 7.92583 1.8286 7.88568C1.86095 7.83066 1.88131 7.79497 1.90767 7.75036C1.87413 7.72955 1.84657 7.7117 1.81662 7.69386C1.83459 7.53773 1.88251 7.47527 2.00113 7.45445C1.92365 7.52385 1.90128 7.59473 1.93403 7.66709C1.99274 7.6433 2.05145 7.61802 2.11015 7.59423C2.12693 7.621 2.1425 7.64776 2.14969 7.65966C2.24794 7.63735 2.18564 7.48122 2.28268 7.45148C2.29946 7.44553 2.22038 7.38308 2.2695 7.36672C2.3342 7.3459 2.31743 7.29386 2.32701 7.24776C2.3378 7.19126 2.34858 7.13475 2.35936 7.07825L2.35457 7.08568C2.39051 7.06338 2.43844 7.05148 2.45881 7.01579C2.51033 6.92063 2.56544 6.81951 2.5882 6.71245C2.61576 6.5801 2.65051 6.46115 2.70921 6.36003C2.74396 6.38382 2.77271 6.40315 2.80506 6.42397C2.83981 6.34962 2.73437 6.28271 2.81944 6.22174C2.82543 6.23958 2.83142 6.26189 2.83741 6.28271C2.86617 6.19646 2.89852 6.11765 2.88294 6.05817C2.83981 5.88866 2.92008 5.6433 3.00036 5.53029C3.02671 5.49312 3.04948 5.45297 3.07344 5.41579C3.02072 5.39646 2.98837 5.37713 2.95363 5.37267C2.87695 5.36375 2.79308 5.30427 2.73078 5.42769C2.71161 5.46486 2.6553 5.47081 2.58701 5.5065C2.61935 5.51988 2.64571 5.53029 2.67087 5.5407C2.66608 5.5526 2.66129 5.563 2.6565 5.5749C2.58581 5.58382 2.51512 5.59126 2.45282 5.59869C2.45162 5.62248 2.45881 5.66709 2.44683 5.67602C2.38932 5.7236 2.37134 5.792 2.35577 5.86784C2.35098 5.89312 2.32462 5.91096 2.30904 5.93178C2.29946 5.89609 2.30784 5.87527 2.31144 5.85445C2.33181 5.73698 2.27549 5.65222 2.18444 5.67304C2.12932 5.68642 2.10656 5.6552 2.08859 5.60167C2.06582 5.53773 2.03108 5.54219 1.98076 5.57936C2.05145 5.59126 2.0802 5.63884 2.05983 5.71022C2.04306 5.76672 2.00113 5.77267 1.9532 5.7578C1.8933 5.73996 1.85016 5.76672 1.82021 5.84107C1.79146 5.91393 1.75431 5.98085 1.71837 6.04776C1.6992 6.08196 1.67404 6.1117 1.65128 6.14293C1.60335 6.29163 1.79385 6.26486 1.77348 6.41356C1.70879 6.37341 1.64049 6.4775 1.5734 6.38382C1.55543 6.35854 1.51948 6.39126 1.53027 6.43735C1.53506 6.45966 1.54944 6.4775 1.56621 6.51319C1.46437 6.50129 1.47036 6.42546 1.46677 6.39721C1.50271 6.32732 1.52428 6.28271 1.54704 6.23958C1.51229 6.22471 1.47755 6.20836 1.43801 6.19051C1.41644 6.29906 1.39967 6.38828 1.3829 6.47602C1.36253 6.49237 1.34096 6.50873 1.31221 6.53252C1.34336 6.56375 1.36732 6.58754 1.39009 6.61133C1.32659 6.66189 1.317 6.72732 1.36253 6.80167C1.26908 6.88791 1.27027 6.89089 1.26788 7.00241C1.26788 7.04405 1.26189 7.09609 1.24272 7.12583C1.20318 7.18382 1.15885 7.24776 1.10493 7.27453C1.01747 7.31765 1.08457 7.42025 1.03544 7.47973C0.993509 7.53029 0.947981 7.61505 0.953971 7.6775C0.962358 7.77118 0.940792 7.83661 0.90365 7.89312C0.957566 7.95111 1.00309 8.00167 1.04982 8.05222C0.944386 8.06412 0.987519 8.13103 1.00789 8.20984C1.03744 8.13748 1.04862 8.08642 1.04143 8.05668C1.08936 8.021 1.13609 7.98531 1.1876 7.94516C1.16364 7.90947 1.14567 7.88271 1.11692 7.83958C1.22594 7.83958 1.24032 7.93475 1.27267 8.00315L1.26908 7.99869C1.26908 8.10873 1.20078 7.99126 1.17922 8.04628C1.18401 8.06115 1.18641 8.09683 1.19719 8.09981C1.27507 8.12955 1.30023 8.17862 1.2547 8.2723C1.24631 8.28866 1.26309 8.32286 1.26788 8.34962C1.19 8.28122 1.20198 8.38233 1.17802 8.41654C1.22714 8.42694 1.24991 8.39274 1.26548 8.34516C1.32179 8.43289 1.26908 8.52955 1.27387 8.61431C1.31341 8.62769 1.34815 8.63958 1.39727 8.65594C1.36732 8.68717 1.35175 8.70204 1.34576 8.70947C1.36612 8.76747 1.3805 8.86263 1.40566 8.86709C1.50151 8.88345 1.42962 8.96523 1.45359 9.01728C1.47635 8.99646 1.49552 8.97862 1.51469 8.96226C1.55662 9.01133 1.55662 9.06338 1.54824 9.13178C1.53626 9.22843 1.53027 9.33549 1.55303 9.4262C1.57939 9.53029 1.58178 9.62546 1.56261 9.71468C1.59736 9.75631 1.63091 9.792 1.65846 9.83364C1.69201 9.88271 1.73035 9.88568 1.76629 9.84851C1.85136 9.76375 1.8897 9.75037 1.9556 9.79795C1.99274 9.82471 1.99034 9.89609 1.94122 9.94813C1.98076 9.97787 2.0179 10.0269 2.05624 10.0284C2.08859 10.0284 2.12333 9.97787 2.15089 9.95408C2.18564 9.99423 2.23955 10.0745 2.24914 10.0671C2.33181 10.0002 2.36296 10.0968 2.41448 10.1533C2.43724 10.0344 2.45641 9.93178 2.47678 9.83066C2.49475 9.87081 2.50913 9.91542 2.53309 9.94665C2.54387 9.96152 2.57622 9.94962 2.61456 9.94962C2.58221 9.86932 2.55705 9.80984 2.53668 9.7578C2.51392 9.78605 2.49475 9.80836 2.47678 9.83215C2.466 9.84107 2.45401 9.85594 2.44323 9.85594C2.42166 9.85594 2.4013 9.84405 2.37973 9.83661L2.37733 9.8381ZM5.17374 2.39423C5.22766 2.40315 5.27318 2.41951 5.31632 2.41505C5.43852 2.40018 5.56313 2.50576 5.68773 2.39423C5.62303 2.30055 5.68773 2.20687 5.7105 2.09981C5.67695 2.1117 5.65658 2.11914 5.62783 2.12806V2.01207C5.5823 2.08791 5.55834 2.17416 5.5164 2.18903C5.43733 2.21728 5.45769 2.28717 5.4517 2.34813C5.35705 2.35408 5.2624 2.29906 5.17494 2.39274L5.17374 2.39423ZM9.41987 1.43364C9.46659 1.45594 9.49774 1.47676 9.53249 1.48419C9.55645 1.48865 9.58281 1.47676 9.60677 1.46635C9.61157 1.46338 9.61516 1.4262 9.60917 1.42025C9.5876 1.40092 9.56244 1.37713 9.53848 1.37713C9.47857 1.37416 9.41747 1.38308 9.35517 1.38754C9.34079 1.43066 9.32162 1.48717 9.30006 1.5526C9.38273 1.57639 9.41747 1.53773 9.42107 1.43364H9.41987ZM12.1372 6.55185C12.1743 6.59349 12.2151 6.63661 12.2618 6.68865C12.2906 6.52509 12.2618 6.41802 12.1731 6.33178C12.1624 6.40018 12.1516 6.46561 12.1372 6.55185ZM12.4511 8.50129C12.3672 8.4775 12.3361 8.52211 12.3181 8.59646C12.3864 8.6262 12.4116 8.56672 12.4511 8.50129ZM2.21798 5.47676C2.18204 5.47081 2.16527 5.46635 2.14849 5.46338C2.12932 5.4604 2.10896 5.4604 2.08979 5.45892C2.12693 5.50204 2.15688 5.60464 2.21918 5.47527L2.21798 5.47676ZM10.3832 10.3615C10.4335 10.3184 10.4335 10.3184 10.4191 10.2485C10.4179 10.2426 10.4035 10.2396 10.3879 10.2307C10.3867 10.2753 10.3844 10.3169 10.3832 10.363V10.3615ZM9.56484 11.0753C9.47977 11.0664 9.45461 11.1035 9.43065 11.1838C9.47738 11.1466 9.50853 11.1214 9.56484 11.0753ZM11.2722 1.77713L11.2674 1.72955C11.2434 1.73103 11.2206 1.73401 11.1967 1.7355C11.1979 1.75036 11.1991 1.77862 11.2003 1.77862C11.2242 1.77862 11.247 1.77862 11.271 1.77564L11.2722 1.77713ZM2.28628 10.6693C2.28149 10.7348 2.2695 10.7779 2.28029 10.7883C2.29706 10.8046 2.32701 10.8002 2.38093 10.8091C2.34259 10.7511 2.32582 10.7273 2.28748 10.6693H2.28628ZM3.60301 1.13624C3.61259 1.14219 3.62218 1.14813 3.63176 1.15557C3.64494 1.12137 3.71443 1.1065 3.64015 1.03364C3.62577 1.0723 3.61379 1.10501 3.60301 1.13624ZM3.36219 2.46858C3.38775 2.52013 3.41371 2.52955 3.44006 2.49683C3.41371 2.48791 3.38735 2.4775 3.36219 2.46858ZM9.17665 1.57639C9.18384 1.56895 9.19103 1.563 9.19702 1.55557C9.18144 1.53029 9.16467 1.50501 9.14909 1.47973C9.1419 1.48717 9.13472 1.4946 9.12753 1.50204C9.1443 1.52732 9.15988 1.5526 9.17665 1.57639ZM12.1084 4.72137C12.1144 4.70799 12.1192 4.6946 12.1252 4.68122C12.1036 4.66486 12.0821 4.64702 12.0605 4.63066C12.0545 4.64107 12.0485 4.65297 12.0425 4.66338C12.0641 4.68271 12.0857 4.70204 12.1084 4.71988V4.72137Z" fill="#A83E34"/>
</g>
<defs>
<clipPath id="clip0_175_67923">
<rect width="14" height="12" fill="white"/>
</clipPath>
</defs>
</svg>
