<svg width="157" height="95" viewBox="0 0 157 95" fill="none" xmlns="http://www.w3.org/2000/svg">
<g clip-path="url(#clip0_333_1282)">
<path d="M50.9346 44.4068C51.6059 44.4068 52.3611 44.4068 53.0324 44.2373C52.8646 46.3559 52.8646 48.5593 52.6967 53.6441V60.0848C52.6967 64.0678 53.0324 66.5254 53.368 67.5424C54.7106 70.678 57.4797 73.6441 62.3467 73.4746C66.6262 73.3051 69.5631 71.9492 71.3253 68.3898C72.5001 65.9322 72.6679 64.2373 72.8357 57.9661V53.9831C72.6679 50.5085 72.5001 48.2204 72.3322 44.2373C72.8357 44.3221 73.3392 44.4068 73.8427 44.4068C74.3461 44.4068 74.8496 44.4068 75.3531 44.2373C75.1853 45.5932 75.0174 53.1356 75.0174 53.1356V57.8814C75.0174 64.1526 74.6818 65.5085 74.0105 67.6271C73.5909 69.2373 72.6679 70.678 71.4092 71.7797C69.3114 74.2373 65.871 75.4237 61.7593 75.4237C57.9832 75.4237 54.375 74.4068 52.2772 72.4576C50.0115 70.1695 49.1724 68.1356 49.1724 63.3899V52.7966C49.1724 49.661 48.8368 46.017 48.6689 44.2373C49.4242 44.4068 50.1794 44.4915 50.9346 44.4068Z" fill="#003471"/>
<path d="M33.3131 43.2202C33.3131 43.2202 34.4879 46.3558 35.5788 48.8134C37.3409 52.288 40.0261 58.7287 41.117 61.3558C42.1239 63.8134 44.893 69.7456 44.893 69.7456L47.3265 74.9999C46.4874 74.9999 45.8161 74.8304 44.893 74.8304C44.0539 74.8304 43.2987 74.8304 42.4596 74.9999L40.6974 70.5083C40.3618 69.3219 39.8583 68.1355 39.2709 67.0338C38.7674 65.5083 38.0961 64.0677 37.3409 62.7117H25.8449C25.6771 63.2202 24.838 65.3389 24.2506 66.8643C23.0758 69.5761 22.0689 72.3728 21.3137 75.2541C20.8102 75.0846 20.3067 74.9151 19.7193 74.9151C19.2159 74.9151 18.7124 74.9151 18.125 75.0846C18.125 75.0846 18.9641 72.7965 20.055 70.7626C21.3976 67.627 23.3276 63.4745 24.9219 59.9999C26.0967 57.2033 32.1384 43.7287 32.1384 43.3897H33.3131V43.2202ZM30.7119 51.5253C30.0406 52.966 26.6001 60.7626 26.6001 60.7626H36.7535C36.7535 60.7626 34.9914 56.6948 33.9844 54.1524C32.474 50.6778 31.7188 49.2372 31.7188 49.4914C31.4671 50.1694 31.1314 50.9321 30.7119 51.5253Z" fill="#003471"/>
<path d="M83.9965 44.5763H86.2621L89.7025 44.4068L92.6395 44.2373H93.4786C99.3524 44.2373 101.954 44.9153 104.891 47.7119C107.828 50.5085 109.422 54.4068 109.338 58.5593C109.338 63.5593 107.156 68.3051 103.296 71.4407C100.192 74.0678 96.7512 74.9153 88.9473 74.7458H82.9056C82.0665 74.7458 81.3113 74.8305 80.4722 74.9153C80.64 74.2373 80.8078 67.6271 80.8078 66.017V58.3898C80.8078 56.6102 80.8078 51.9492 80.64 49.3221C80.64 47.7966 80.4722 44.4068 80.4722 44.4068C81.7309 44.5763 82.8217 44.661 83.9965 44.5763ZM89.8703 73.2204C91.4647 73.3051 93.059 73.2204 94.7373 73.0509C97.1707 72.7966 99.4364 71.6102 101.115 69.7458C103.716 67.2882 104.891 63.4746 104.891 59.0678C104.723 54.5763 103.716 50.339 100.611 48.0509C98.1777 46.3559 96.8351 45.9322 91.9682 45.7627C89.6186 45.7627 87.2691 45.9322 84.9195 46.2712L84.5839 46.4407C84.5839 47.2882 84.416 51.6949 84.416 55V68.2204C84.5839 70.339 84.5839 71.5254 84.7517 72.9661C86.4299 73.2204 88.1921 73.3051 89.8703 73.2204Z" fill="#003471"/>
<path d="M114.037 44.2374C118.149 44.4069 119.911 44.4069 121.841 44.4069H129.393C129.393 44.7458 129.225 45.2543 129.225 45.5933C129.225 45.9323 129.225 46.7797 129.393 46.7797C128.386 46.6102 127.295 46.6102 125.785 46.4408C121.673 46.2713 120.582 46.2713 119.24 46.2713H117.561V51.695C117.394 52.6272 117.31 53.5594 117.394 54.4916C117.394 56.017 117.561 57.6272 117.561 57.6272H124.946C126.12 57.5424 127.211 57.4577 128.386 57.4577C128.218 57.4577 128.218 57.9662 128.218 58.6441C128.218 59.1526 128.386 59.8306 128.218 59.8306C126.624 59.6611 123.183 59.4916 120.498 59.4916H117.477V65.9323C117.477 67.6272 117.645 68.8984 117.645 69.0679C117.645 70.2543 117.645 71.5255 117.813 72.7119C118.233 72.8814 118.736 72.8814 119.156 72.8814C122.68 72.7967 126.204 72.4577 129.645 72.034C129.561 72.4577 129.477 72.8814 129.477 73.2204V74.5763H117.477C116.135 74.4916 114.708 74.5763 113.366 74.7458C113.534 74.7458 113.869 71.1018 113.869 68.6441V64.8306L114.037 59.2374C114.037 59.2374 113.701 45.8475 113.534 44.0679H114.037V44.2374Z" fill="#003471"/>
<path d="M6.20951 72.9661H8.47515C9.64992 73.0509 10.9086 72.9661 12.0834 72.7966C14.5168 72.7966 16.1951 72.4576 16.6986 72.4576V74.9153H15.6916C14.5168 74.9153 13.2582 74.8305 12.0834 74.7458H3.77606C1.3426 74.7458 0.167825 74.9153 0 74.9153C0.167825 73.3898 0.503474 65.5085 0.503474 59.7458C0.503474 53.9831 0 44.2373 0 44.2373C0.671299 44.2373 1.59433 44.4068 2.26563 44.4068C2.93693 44.4068 4.53127 44.2373 4.53127 44.2373C4.11171 48.7288 3.94388 53.1356 4.02779 57.6271C4.02779 57.6271 4.02779 68.8136 4.19562 72.1187L4.36344 72.7966C4.27953 72.9661 5.11865 72.9661 6.20951 72.9661Z" fill="#003471"/>
<path d="M138.707 60.0848V65.5085L138.875 69.8305L139.043 74.5763V74.9153C138.287 74.8305 137.532 74.7458 136.777 74.7458C136.106 74.7458 135.35 74.7458 134.679 74.9153L134.847 70.1695C135.015 66.6949 135.015 63.5593 135.015 58.1356C135.015 54.661 135.015 52.8814 134.847 48.8983C134.847 47.3729 134.679 44.4068 134.679 44.4068C135.77 44.5763 136.861 44.5763 137.952 44.5763C138.791 44.5763 140.217 44.4068 141.392 44.4068C143.49 44.2373 144.833 44.2373 145.168 44.2373C152.385 44.2373 154.483 47.7119 154.483 51.1865C154.483 55.339 150.874 58.4746 144.833 59.7458V59.9153L148.105 63.8983L151.042 67.5424L154.315 71.6949C155.657 73.4746 156.077 74.1526 156.916 75H152.049L146.846 67.7966C145.504 65.8475 140.805 60.1695 140.637 60.1695L138.707 60.0848ZM141.14 58.5593C144.581 58.5593 145.84 58.0509 147.35 57.1187C149.364 56.017 150.539 53.8136 150.455 51.5254C150.287 48.2204 148.357 45.7627 143.238 45.7627C141.728 45.7627 140.217 45.9322 138.707 46.2712V58.3051C139.462 58.5593 140.301 58.5593 141.14 58.5593Z" fill="#003471"/>
<path d="M29.5369 6.10162C25.6769 6.27112 23.4952 8.38976 23.4952 11.6948C23.4952 13.983 24.8378 16.0169 26.9356 16.9491C27.9426 17.2881 29.5369 18.1355 31.0473 18.7287C36.0821 20.3389 38.096 22.7118 38.096 26.3559C38.096 32.1186 33.2291 36.2711 27.1874 36.2711C24.4183 36.3559 21.7331 35.4237 19.6353 33.644C19.6353 33.644 20.1387 31.1864 20.3066 30.1694C20.3066 30.1694 23.4113 35.0847 27.8587 34.8304C31.5508 34.9999 34.6556 32.0338 34.7395 28.305C34.7395 28.2203 34.7395 28.1355 34.7395 28.0508C34.7395 24.9152 32.8095 22.966 28.3621 21.4406C23.9148 19.9152 21.9848 18.1355 21.1457 16.6948C20.4744 15.5084 20.1387 14.2372 20.1387 12.8813C20.1387 7.96603 24.0826 4.49146 29.7886 4.49146C34.4038 4.49146 36.6695 6.77959 36.6695 6.77959C36.166 7.88129 35.7464 9.06773 35.4947 10.2542C35.5786 10.2542 33.8164 6.10162 29.5369 6.10162Z" fill="#003471"/>
<path d="M53.1165 7.45751L52.9487 12.5423L52.7809 18.644C52.697 20.6778 52.697 22.7117 52.7809 24.7456C52.697 28.4745 52.8648 32.2033 53.1165 35.9321C53.1165 35.9321 51.7739 35.7626 50.8509 35.7626C50.1796 35.7626 49.4244 35.8473 48.7531 35.9321C48.9209 33.4745 49.0887 30.8473 49.0887 24.9151V12.5423C49.0887 12.5423 48.9209 8.7287 48.9209 7.45751L44.1379 7.627C42.5436 7.627 40.8653 7.71175 39.271 7.96599C39.271 7.45751 39.3549 7.03378 39.4388 6.52531C39.4388 6.10158 39.3549 5.67785 39.271 5.33887C39.6906 5.50836 50.3474 5.50836 50.3474 5.50836H51.7739C55.55 5.50836 62.4308 5.33887 62.4308 5.33887V6.61005C62.4308 7.11853 62.5147 7.54226 62.5986 8.05073C60.5008 7.71175 59.326 7.71175 57.2282 7.54226H53.1165V7.45751Z" fill="#003471"/>
<path d="M0.671299 5.42361C4.783 5.5931 6.37734 5.5931 8.39123 5.5931C9.56601 5.5931 14.6007 5.5931 15.4399 5.42361H15.9433C15.9433 5.7626 15.7755 6.27107 15.7755 6.61005V7.79649C14.6007 7.79649 13.5099 7.79649 12.3351 7.627C8.30732 7.45751 7.04864 7.45751 5.87386 7.45751H4.1117V7.96599L3.94388 12.8812V18.644C3.94388 18.7287 4.02779 18.8134 4.1117 18.8134H8.22341C8.72688 18.8134 9.56601 18.8134 11.496 18.644H14.7686V20.9321C13.0064 20.9321 9.73383 20.7626 6.7969 20.5931C5.87386 20.5931 4.95083 20.5931 4.02779 20.7626H3.94388V23.7287L4.1117 27.2033V30.3389C4.1117 31.0168 4.27953 32.627 4.27953 33.8134L4.44735 33.9829H5.87386C9.48209 33.9829 14.6847 33.4745 16.3629 33.305C16.279 33.7287 16.1951 34.1524 16.1951 34.4914V35.8473H12.419L9.48209 35.6779L3.94388 35.8473H0C0 35.8473 0.335649 32.3728 0.335649 29.9151L0.503474 26.1016V20.5084C0.503474 20.5084 0.335649 7.11853 0.167825 5.33887H0.671299V5.42361Z" fill="#003471"/>
<path d="M66.4585 1.94915H82.4858V0H66.4585V1.94915Z" fill="#003471"/>
<path d="M67.1298 5.42361C71.2415 5.5931 73.0037 5.5931 74.9336 5.5931C76.1084 5.5931 81.311 5.5931 81.9823 5.42361H82.6536C82.4858 5.84734 82.4858 6.27107 82.4858 6.61005V7.79649C81.311 7.79649 80.0523 7.79649 78.8775 7.627C74.9336 7.45751 73.675 7.45751 72.3324 7.45751H70.6541V18.8134H74.9336C75.4371 18.8134 76.1084 18.8134 78.2062 18.644H81.3949C81.3949 18.9829 81.311 19.3219 81.2271 19.6609C81.2271 20.0846 81.311 20.5084 81.3949 20.8473C79.6327 20.8473 76.3602 20.6779 73.4232 20.5084C72.4163 20.5084 71.4932 20.5084 70.4863 20.6778V23.7287L70.6541 27.2033V30.3389C70.6541 31.0168 70.8219 32.627 70.8219 33.8134V33.9829H72.3324C75.7728 33.9829 81.1432 33.4745 82.6536 33.305C82.5697 33.7287 82.4858 34.1524 82.4858 34.4914C82.4858 34.9999 82.4858 35.4236 82.6536 35.8473H78.8775L75.9406 35.6779L70.4024 35.8473H66.4585C66.4585 35.8473 66.7941 32.3728 66.7941 29.9151V26.1016L66.962 20.5084C66.962 20.5084 66.7941 7.11853 66.4585 5.33887L67.1298 5.42361Z" fill="#003471"/>
<path d="M88.1918 5.42361C92.3035 5.5931 94.0657 5.5931 95.9117 5.5931C97.0865 5.5931 102.289 5.5931 102.96 5.42361H103.632C103.464 5.84734 103.464 6.27107 103.464 6.61005V7.79649C102.289 7.79649 101.03 7.79649 99.8556 7.627C95.9117 7.45751 94.6531 7.45751 93.3105 7.45751H91.6322V18.8134H95.9117C96.4152 18.8134 97.0865 18.8134 99.1843 18.644H102.457C102.457 18.9829 102.373 19.3219 102.289 19.6609C102.289 20.0846 102.373 20.5084 102.457 20.8473C100.695 20.8473 97.4222 20.6779 94.4852 20.5084C93.4783 20.5084 92.5552 20.5084 91.5483 20.6778V23.7287L91.7161 27.2033V30.3389C91.7161 31.0168 91.8839 32.627 91.8839 33.8134V33.9829H93.3944C96.8348 33.9829 102.205 33.4745 103.716 33.305C103.632 33.7287 103.548 34.1524 103.548 34.4914C103.548 34.9999 103.548 35.4236 103.716 35.8473H99.9395L97.0026 35.6779L91.4644 35.8473H87.5205C87.5205 35.8473 87.8562 32.3728 87.8562 29.9151V26.1016L88.024 20.5084C88.024 20.5084 87.8562 7.11853 87.5205 5.33887L88.1918 5.42361Z" fill="#003471"/>
<path d="M10.7409 92.7119L10.4052 93.8984C9.23043 94.6611 7.80392 95.0001 6.46132 94.9153C2.51744 94.9153 0.0839844 92.4577 0.0839844 88.4747C0.0839844 86.695 0.755283 84.9153 2.01397 83.5594C3.44048 82.4577 5.20264 81.8645 7.04871 82.034C8.39131 81.9492 9.64999 82.2035 10.8248 82.7119C10.6569 83.1357 10.4891 83.6441 10.4891 84.0679H10.3213C9.39826 83.1357 8.13957 82.6272 6.79697 82.7119C5.37046 82.6272 3.94395 83.3052 3.02092 84.4069C2.18179 85.5933 1.76223 86.9492 1.84614 88.3899C1.76223 89.9153 2.26571 91.356 3.18874 92.5424C4.02787 93.5594 5.28655 94.1526 6.62915 94.0679C8.13957 94.0679 9.48217 93.5594 10.573 92.5424L10.7409 92.7119Z" fill="#003471"/>
<path d="M32.5938 88.4407C32.5938 92.4237 29.9925 94.8814 25.8808 94.8814C21.6013 94.8814 19 92.4237 19 88.4407C19 84.4576 21.6013 82 25.8808 82C29.9925 82 32.5938 84.4576 32.5938 88.4407ZM21.853 84.4576C21.0978 85.6441 20.7622 87.0847 20.8461 88.4407C20.7622 89.7966 21.0978 91.1525 21.853 92.339C22.6921 93.6949 24.2026 94.4576 25.7969 94.4576C27.3073 94.4576 28.7338 93.6949 29.573 92.339C30.3282 91.2373 30.6638 89.8814 30.5799 88.5254C30.6638 87.0847 30.2443 85.7288 29.573 84.5424C28.7338 83.2712 27.3073 82.5932 25.7969 82.5932C24.2865 82.5085 22.7761 83.2712 21.853 84.4576Z" fill="#003471"/>
<path d="M43.8021 82.034C43.97 82.373 43.97 82.373 44.3056 83.0509C44.6412 83.5594 44.8091 84.0679 45.1447 84.5763L45.4804 85.4238C46.6551 87.5424 46.3195 87.2035 47.1586 88.5594C47.6621 89.6611 48.2495 90.678 48.9208 91.695C49.3403 90.9323 49.8438 90.1696 50.3473 89.4068C50.6829 88.5594 51.1025 87.7119 51.5221 86.9492L51.8577 86.1018L52.3612 85.4238L52.8647 84.5763C53.2003 83.8136 53.6199 83.0509 54.0394 82.2882L54.2073 81.9492H54.5429C54.7107 82.2882 54.7107 82.1187 54.7107 82.9662C54.7946 83.8136 54.8786 84.7458 55.0464 85.5933V86.2713L55.2142 86.9492V88.3052C55.382 88.8984 55.4659 89.5763 55.5499 90.2543V90.9323L55.7177 92.373C55.8855 93.3899 55.8855 93.8984 56.0533 94.6611C55.8016 94.5763 55.4659 94.4916 55.2142 94.4916C54.9625 94.4916 54.6268 94.5763 54.3751 94.6611C54.3751 93.8136 54.3751 92.8814 54.2073 92.034C54.0394 89.2374 54.0394 89.2374 53.536 85.2543C53.1164 85.7628 52.7807 86.356 52.529 87.034C52.3612 87.3729 52.529 87.034 51.8577 88.3899C51.5221 89.1526 51.1025 89.8306 50.6829 90.5085C49.5082 92.9662 49.1725 93.4746 48.753 94.3221H48.5851C48.4173 93.9831 48.4173 93.9831 47.9138 92.7967C47.746 92.4577 48.2495 93.3052 46.4873 90.0001C46.1517 89.2374 45.816 88.5594 45.3125 87.8814L44.9769 87.2035L44.6413 86.5255L44.3056 85.8475L44.1378 85.678V85.5933C43.8021 87.2035 43.5504 88.8136 43.4665 90.5085C43.2987 92.9662 43.2987 93.6441 43.1308 94.8306C42.7952 94.5763 42.2917 94.5763 41.9561 94.8306C42.1239 94.1526 42.1239 93.6441 42.2917 92.7119C42.7952 89.5763 42.6274 90.4238 42.6274 89.9153C42.7952 89.4916 42.7952 89.1526 42.7952 88.7289L42.963 88.0509C43.2987 85.9323 43.1308 87.034 43.4665 84.9153C43.6343 83.1357 43.6343 83.1357 43.8021 82.1187V82.034Z" fill="#003471"/>
<path d="M67.8013 89.4068V93.7288C67.9691 94.0678 67.9691 94.4068 67.9691 94.7457C67.7174 94.661 67.3817 94.5763 67.13 94.5763C66.7943 94.5763 66.4587 94.661 66.123 94.7457C66.2909 93.983 66.2909 93.2203 66.2909 92.4576C66.2909 91.2712 66.4587 89.1525 66.4587 88.3051C66.4587 86.6101 66.2909 85.339 66.2909 84.1525C66.2909 83.4746 66.207 82.8813 66.123 82.2034C66.6265 82.3729 67.13 82.3729 67.6335 82.3729C68.1369 82.3729 68.5565 82.2881 69.06 82.2034H70.0669C72.836 82.2034 74.1786 83.2203 74.1786 85.339C74.0947 86.5254 73.5912 87.6271 72.6682 88.3051C71.5773 88.8135 70.3187 89.0678 69.06 88.983H67.8852V89.4068H67.8013ZM67.8013 88.3051H68.6404C71.2417 88.3051 72.4165 87.2881 72.4165 85.339C72.4165 83.8135 71.4095 82.8813 69.3117 82.8813C68.8082 82.8813 68.3887 82.8813 67.8852 83.0508C67.8013 83.4746 67.7174 83.8983 67.7174 84.2373L67.8013 88.3051Z" fill="#003471"/>
<path d="M86.5974 82.0339C86.7652 82.5424 86.5974 82.0339 87.1009 83.4746C87.3526 84.1526 87.6044 84.7458 87.94 85.4238C89.7022 89.4068 89.1148 88.2204 89.7022 89.5763L90.0378 90.5933C91.0448 92.5424 90.7091 91.9492 90.877 92.5424C91.3804 93.7288 91.5483 93.7288 91.8839 94.8305C91.6322 94.6611 91.2965 94.661 91.0448 94.661C90.7091 94.661 90.3735 94.6611 90.0378 94.8305C89.87 93.9831 89.6183 93.1356 89.1987 92.3729C88.947 91.5255 88.6113 90.678 88.1918 89.9153H83.7444C82.9053 92.0339 82.9053 91.8644 81.8144 94.8305C81.6466 94.6611 81.4788 94.661 81.3109 94.661C81.0592 94.661 80.8075 94.7458 80.6396 94.8305C80.9753 93.9831 81.3109 93.3051 81.9822 91.6949C82.4857 90.678 82.8214 89.5763 83.4088 88.5594C84.0801 87.0339 84.5835 85.9322 84.7514 85.4238C85.1709 84.8305 85.4227 84.1526 85.5905 83.4746C85.8422 83.1356 86.01 82.7966 86.094 82.4577L86.2618 82.2882V82.1187L86.5974 82.0339ZM83.9961 89.0678H87.94C87.7722 88.8136 87.6044 88.4746 87.4365 88.2204C86.5974 85.9322 86.9331 86.6949 86.5974 86.1017C86.4296 85.5933 86.1779 85 85.9261 84.5763L83.9961 89.0678Z" fill="#003471"/>
<path d="M100.779 82.0339L100.947 82.2034C101.534 82.7119 102.038 83.2204 102.457 83.7289C102.961 84.4068 103.548 85.0848 104.219 85.678L104.723 86.356L105.394 86.8644L105.898 87.5424C106.569 88.1356 107.24 88.8983 107.828 89.6611L109.757 91.6102V91.4407C109.925 91.1017 109.757 91.6102 109.925 89.9153V87.6272C109.925 86.1865 109.925 84.7458 109.757 83.3051V82.2034C109.925 82.2882 110.177 82.3729 110.429 82.3729C110.597 82.3729 110.764 82.3729 110.932 82.2034V83.7289C110.764 84.8305 110.764 85.9322 110.764 87.0339C110.597 88.3899 110.597 89.8305 110.597 91.1865V93.8136C110.597 94.1526 110.681 94.4916 110.764 94.8305H110.429C109.674 93.8136 108.918 92.8814 107.995 92.0339C107.156 91.1865 106.233 89.9153 105.394 89.2373C105.058 88.7289 105.562 89.4068 103.632 87.2882L102.457 86.1017C101.282 84.6611 101.618 85.0848 101.45 85.0848L101.282 84.9153V89.6611C101.282 90.9322 101.282 92.2034 101.45 93.4746V94.661C101.282 94.4916 101.115 94.4916 100.779 94.4916C100.611 94.4916 100.443 94.4916 100.275 94.661C100.275 93.8983 100.275 93.1356 100.443 92.3729V88.2204L100.611 87.5424V82.0339H100.779Z" fill="#003471"/>
<path d="M122.344 82.3729C122.596 82.3729 122.931 82.3729 123.183 82.2034C123.183 82.8813 123.183 83.644 123.015 84.322V92.5423C123.015 93.3898 123.183 93.8983 123.183 94.8305C122.931 94.7457 122.596 94.661 122.344 94.661C122.092 94.661 121.757 94.661 121.505 94.8305V92.5423C121.505 91.8644 121.589 91.1017 121.673 90.4237V87.6271C121.673 86.5254 121.673 85.4237 121.505 84.322V82.2034C121.757 82.3729 122.008 82.3729 122.344 82.3729Z" fill="#003471"/>
<path d="M136.442 94.5763H134.512C134.092 94.4915 133.673 94.5763 133.337 94.7457C133.337 93.8983 133.505 92.9661 133.505 91.2712V84.322C133.589 83.644 133.505 82.8813 133.337 82.2034C133.84 82.2034 134.008 82.3729 134.68 82.3729H138.623C139.295 82.3729 139.295 82.2034 139.63 82.2034V83.2203H138.288C137.952 83.2203 137.449 83.0508 136.693 83.0508H135.015V86.0169C134.847 87.0339 134.847 86.6949 135.015 86.6949C134.847 87.0339 134.847 87.0339 134.847 87.2034C134.847 87.3729 134.847 87.5424 135.015 87.5424C135.183 87.7118 135.435 87.7118 135.686 87.7118C136.106 87.7118 136.526 87.6271 136.861 87.5424H139.295V88.5593C138.288 88.3898 137.197 88.3051 136.19 88.3898H134.847C134.931 88.4746 135.015 88.644 135.015 88.7288L134.847 90.1695C134.847 90.7627 134.931 91.2712 135.015 91.8644V93.644C135.183 93.7288 135.435 93.8135 135.686 93.8135C136.19 93.8135 136.693 93.7288 137.281 93.644C138.12 93.7288 139.043 93.6441 139.882 93.4746V94.661H139.714V94.4915L136.442 94.5763Z" fill="#003471"/>
<path d="M153.728 84.322C153.392 83.3898 152.469 82.7965 151.462 82.7965C150.371 82.7118 149.364 83.4745 149.196 84.6609C149.196 84.7457 149.196 84.8304 149.196 84.9152C149.112 85.5931 149.364 86.2711 149.868 86.6948C150.539 87.1186 151.21 87.4576 151.965 87.7118C152.721 87.966 153.476 88.3898 154.063 88.8982C154.567 89.4067 154.902 90.0847 154.902 90.8474C154.902 93.305 152.972 94.9999 150.371 94.9999C149.28 94.9999 148.273 94.6609 147.434 93.983C147.602 93.4745 147.686 92.966 147.77 92.4576H147.938C148.441 93.4745 149.532 94.1525 150.707 94.2372C152.049 94.322 153.224 93.305 153.308 91.9491C153.308 91.8643 153.308 91.7796 153.308 91.7796C153.308 91.1864 153.14 90.5084 152.804 89.9999C152.133 89.5762 151.462 89.2372 150.707 88.983C148.441 88.1355 147.77 87.2881 147.77 85.5084C147.77 84.5762 148.105 83.7287 148.777 83.0508C149.616 82.4576 150.539 82.2033 151.546 82.2033C152.553 82.1186 153.56 82.4576 154.315 83.0508C153.979 83.4745 153.811 83.8982 153.811 84.4914L153.728 84.322Z" fill="#003471"/>
</g>
<defs>
<clipPath id="clip0_333_1282">
<rect width="157" height="95" fill="white"/>
</clipPath>
</defs>
</svg>
