<svg width="164" height="72" viewBox="0 0 164 72" fill="none" xmlns="http://www.w3.org/2000/svg">
<g clip-path="url(#clip0_333_1265)">
<mask id="mask0_333_1265" style="mask-type:luminance" maskUnits="userSpaceOnUse" x="-63" y="-104" width="842" height="1102">
<path d="M-62.415 997.987H778.024V-103.924H-62.415V997.987Z" fill="white"/>
</mask>
<g mask="url(#mask0_333_1265)">
<mask id="mask1_333_1265" style="mask-type:luminance" maskUnits="userSpaceOnUse" x="4" y="5" width="156" height="63">
<path d="M4.98242 67.8256H159.121V5.07568H4.98242V67.8256Z" fill="white"/>
</mask>
<g mask="url(#mask1_333_1265)">
<path d="M134.622 42.9125C134.574 42.619 134.574 42.3636 136.017 41.9071C137.454 41.456 140.952 40.2549 143.076 39.0647C145.2 37.8636 145.554 37.6951 146.053 38.0321C146.552 38.3636 146.407 39.1788 146.407 39.7549V45.5919C147.185 44.2984 149.739 39.994 151.766 38.7277C153.359 37.7277 153.923 37.6462 154.91 37.6245C156.095 37.6027 158.895 38.3419 159.019 41.3364C159.115 43.6788 157.41 44.619 156.326 44.4723C155.457 44.3473 154.835 43.5375 154.32 42.7223C153.799 41.8962 152.973 41.4071 152.147 41.6897C151.321 41.9777 146.692 45.0212 146.429 49.3473C146.241 52.5321 146.429 62.4614 146.429 62.4614C146.429 63.9668 146.997 64.5483 147.663 64.9505C148.322 65.3581 150.752 65.3799 151.434 65.4777C152.126 65.5755 152.099 65.7386 152.099 65.9559C152.099 66.1679 152.099 66.2712 151.487 66.2712H135.212C134.692 66.2712 134.482 66.1679 134.482 65.8581C134.482 65.4288 135.164 65.5049 135.684 65.4288C136.204 65.3581 138.956 65.5864 139.745 64.1842C140.324 63.2657 140.254 61.7875 140.254 61.7875L140.174 44.3473C140.174 42.9397 139.761 42.7332 139.38 42.5103C138.994 42.2875 138.355 42.168 137.009 42.6299C135.738 43.0538 134.863 43.4506 134.622 42.9125Z" fill="#211E1E"/>
<path d="M77.701 42.918C77.481 42.4886 77.8887 42.2114 79.0957 41.8908C80.4421 41.5267 83.3925 40.6191 85.7313 39.2767C88.0702 37.9397 88.4725 37.7984 88.966 37.9614C89.4649 38.1299 89.4166 39.0158 89.4166 39.7332V62.2984C89.4166 63.5647 89.5829 64.0918 90.1462 64.619C90.7148 65.1462 92.131 65.456 93.9709 65.456C94.8024 65.456 95.0599 65.5538 95.0599 65.9125C95.0599 66.2712 94.8024 66.2712 94.4698 66.2712H78.3179C77.819 66.2712 77.701 66.0538 77.701 65.8418C77.701 65.5755 77.9209 65.407 78.6719 65.407C79.3049 65.407 82.2284 65.6299 82.8936 64.0918C83.1511 63.5049 83.2745 62.6842 83.2745 61.9179V44.0158C83.2745 42.6571 82.2338 42.0538 81.0322 42.3473C79.6267 42.6734 77.9906 43.4777 77.701 42.918Z" fill="#211E1E"/>
<path d="M85.9354 27.3093C88.1294 27.3093 89.9104 25.505 89.9104 23.2876C89.9104 21.0648 88.1294 19.2659 85.9354 19.2659C83.7468 19.2659 81.9712 21.0648 81.9712 23.2876C81.9712 25.505 83.7468 27.3093 85.9354 27.3093Z" fill="#211E1E"/>
<path d="M105.349 52.9018C106.148 60.2224 110.45 65.918 115.783 64.9615C121.125 64.005 123.802 58.8365 123.158 50.5594C122.499 42.1409 118.39 37.9398 112.859 38.4453C107.141 38.9724 104.544 45.5757 105.349 52.9018ZM110.638 37.1572C117.521 35.8529 127.31 37.3909 129.537 48.3039C131.757 59.217 124.344 65.0267 117.912 66.4452C111.625 67.8256 100.95 66.8419 99.019 55.1028C97.281 44.5648 104.829 38.255 110.638 37.1572Z" fill="#211E1E"/>
<path d="M29.154 64.5049H33.1451C47.9935 64.5049 51.9792 63.1082 57.2041 56.0756C62.4289 49.043 63.0512 38.9452 63.0512 35.5321C63.0512 32.1191 62.1553 23.5539 56.9305 16.3094C51.7003 9.06481 42.9725 7.18437 35.3391 7.18437H29.1219C27.6467 7.18437 27.5716 7.84742 27.5716 8.89089V63.1788C27.5716 64.3636 27.9846 64.5049 29.154 64.5049ZM4.97705 65.7766C4.97705 65.2277 5.67978 65.1353 6.33422 65.1136C13.8926 64.8962 15.3034 64.6299 16.167 63.7223C16.6391 63.2223 17.3311 62.8147 17.3311 59.2658V10.4398C17.3311 6.05394 12.074 6.74959 8.36194 6.36372C7.05841 6.23329 6.95112 6.05394 6.95112 5.66807C6.95112 5.28764 7.19788 5.10286 7.87915 5.07568H38.3324C71.8165 5.07568 73.5277 29.8745 73.5277 36.4887C73.5277 50.7006 64.2528 66.331 44.8661 66.331H5.95336C5.47593 66.331 4.97705 66.2658 4.97705 65.7766Z" fill="#211E1E"/>
</g>
</g>
</g>
<defs>
<clipPath id="clip0_333_1265">
<rect width="164" height="72" fill="white"/>
</clipPath>
</defs>
</svg>
