<svg width="32" height="32" viewBox="0 0 32 32" fill="none" xmlns="http://www.w3.org/2000/svg">
	<path d="M20.5652 26.8551C17.5497 26.8551 14.9867 25.7998 12.876 23.6892C10.7654 21.5786 9.71009 19.0156 9.71009 16.0001C9.71009 12.9923 10.7654 10.4312 12.876 8.31672C14.9867 6.20225 17.5497 5.14502 20.5652 5.14502C23.5729 5.14502 26.1341 6.20225 28.2485 8.31672C30.363 10.4312 31.4203 12.9923 31.4203 16.0001C31.4203 19.0156 30.363 21.5786 28.2485 23.6892C26.1341 25.7998 23.5729 26.8551 20.5652 26.8551ZM20.563 23.5102C22.6485 23.5102 24.4219 22.7803 25.8833 21.3204C27.3446 19.8605 28.0753 18.0878 28.0753 16.0023C28.0753 13.9168 27.3454 12.1433 25.8855 10.682C24.4256 9.22063 22.6529 8.48995 20.5674 8.48995C18.4819 8.48995 16.7084 9.2199 15.2471 10.6798C13.7857 12.1397 13.0551 13.9124 13.0551 15.9979C13.0551 18.0834 13.785 19.8568 15.2449 21.3182C16.7047 22.7795 18.4774 23.5102 20.563 23.5102ZM23.2405 21.061L25.6116 18.6899L22.2377 15.316V10.7044H18.8927V16.6987L23.2405 21.061ZM1.91292 12.3392V8.99428H8.37676V12.3392H1.91292ZM0.57959 17.6726V14.3276H8.37676V17.6726H0.57959ZM1.91292 23.0059V19.661H8.37676V23.0059H1.91292Z" fill="#506736" />
</svg>