<svg width="140" height="140" viewBox="0 0 140 140" fill="none" xmlns="http://www.w3.org/2000/svg">
<rect width="140" height="140" fill="#282525"/>
<g clip-path="url(#clip0_175_68698)">
<path d="M92.3844 77.2622V77.5304H89.0369C88.9719 77.5304 88.915 77.4776 88.915 77.4085V75.0925C88.915 75.0478 88.8541 75.0316 88.8297 75.0722C88.4884 75.7142 87.0869 77.9773 84.105 77.9773C81.3384 77.9773 79.9166 75.8198 79.9166 74.0117C79.9166 72.2037 79.9166 65.9302 79.9166 65.9302V65.5117C79.9166 64.8698 79.4494 64.5853 79.1163 64.4635C79.0147 64.4269 79.0147 64.2806 79.1122 64.24L82.0413 63.0251C82.1184 62.9926 82.2078 63.0495 82.2078 63.1348V73.1178C82.2078 79.0825 88.8744 75.9376 88.8744 73.7639C88.8744 71.7323 88.8744 66.5153 88.8744 65.5117C88.8744 64.8698 88.4072 64.5853 88.0741 64.4635C87.9725 64.4269 87.9725 64.2806 88.07 64.24L90.9991 63.0251C91.0763 62.9926 91.1656 63.0495 91.1656 63.1348V76.0311C91.1778 77.1241 92.3844 77.2622 92.3844 77.2622ZM53.9816 77.9773C51.215 77.9773 49.7931 75.8198 49.7931 74.0117C49.7931 69.5301 53.7947 69.5626 58.755 68.4656C58.755 67.657 58.755 67.0029 58.755 66.686C58.755 63.7321 57.2722 63.2405 55.8584 63.2405C54.7575 63.2405 53.7419 63.6752 53.4088 64.5569C53.1569 65.2192 53.3194 65.6092 53.3884 66.1456C53.4778 66.8119 53.2544 67.6408 52.2997 67.8033C51.475 67.9455 50.4716 67.072 51.1622 65.3817C51.8122 63.7849 54.2416 62.5904 56.6791 62.761C58.9663 62.9195 61.0463 64.2969 61.0463 67.2345C61.0463 71.3463 61.0463 76.0311 61.0463 76.0311C61.0463 77.1241 62.2528 77.2622 62.2528 77.2622V77.5304H58.9094C58.8444 77.5304 58.7875 77.4776 58.7875 77.4085V75.0925C58.7875 75.0478 58.7266 75.0316 58.7022 75.0722C58.365 75.7182 56.9634 77.9773 53.9816 77.9773ZM58.7591 73.7598C58.7591 72.5409 58.7591 70.5865 58.7591 69.0101C55.8056 69.587 52.0925 69.9649 52.0925 73.1178C52.0884 79.0825 58.7591 75.9376 58.7591 73.7598ZM34.4694 76.0352V62.3344C34.4694 62.2491 34.3841 62.1922 34.3028 62.2247L31.3738 63.4355C31.2722 63.4761 31.2763 63.6224 31.3778 63.659C31.7109 63.7809 32.1781 64.0653 32.1781 64.7072C32.1781 65.7108 32.1781 71.7283 32.1781 73.7598L32.2106 75.0925V76.0311C32.2106 77.1241 31.0041 77.2622 31.0041 77.2622V77.5304H32.3325H34.3516H35.68V77.2622C35.6759 77.2622 34.4694 77.1241 34.4694 76.0352ZM35.0381 56.9183H33.34L31 60.0794H32.3975L35.0381 56.9183ZM107.793 76.2099V62.5132C107.793 62.4278 107.708 62.371 107.627 62.4035L104.698 63.6183C104.596 63.659 104.6 63.8052 104.702 63.8418C105.035 63.9637 105.502 64.2481 105.502 64.8901C105.502 65.8937 105.502 71.9111 105.502 73.9427L105.535 75.2754V76.2139C105.535 77.3069 104.328 77.4451 104.328 77.4451V77.7132H105.657H107.676H109.004V77.4451C109 77.441 107.793 77.3028 107.793 76.2099ZM108.362 57.0971H106.66L104.32 60.2541H105.718L108.362 57.0971ZM47.5669 62.7204H45.3691V62.9885C45.3691 62.9885 47.185 62.9154 45.7753 64.3253L40.7256 68.8516V55.1224C40.7256 55.0371 40.6403 54.9802 40.5591 55.0127L37.63 56.2276C37.5284 56.2682 37.5325 56.4145 37.6341 56.451C37.9672 56.5729 38.4344 56.8573 38.4344 57.4993C38.4344 58.5029 38.4344 71.7323 38.4344 73.7679L38.4669 75.1006V76.0392C38.4669 77.1322 37.2603 77.2703 37.2603 77.2703V77.5385H38.5888H40.6078H41.9363V77.2703C41.9363 77.2703 40.7297 77.1322 40.7297 76.0392V69.6358L45.5234 75.9255C46.5838 77.3191 45.2716 77.2622 45.2716 77.2622V77.5304H49.9475V77.2622C49.9475 77.2622 49.3259 77.4004 48.3144 76.0433L42.5091 68.4331L47.2216 64.2115C47.2256 64.2075 47.2338 64.2034 47.2378 64.1953L47.5384 63.9231C48.7613 62.9195 50.0409 62.9885 50.0409 62.9885V62.7204H48.8791H47.5669ZM78.9334 62.9845C78.4784 63.9353 77.9706 65.1542 77.4019 66.6413C76.8331 68.1284 76.1872 69.7252 75.4641 71.4357C74.7369 73.1463 73.9122 74.8975 72.9819 76.6893C72.0516 78.4811 71.0116 80.1592 69.8538 81.7235C70.3291 81.9063 70.7313 82.1257 71.0603 82.3858C71.3894 82.6458 71.6534 82.918 71.8606 83.2025C72.0638 83.4869 72.2181 83.7672 72.3197 84.0516C72.4213 84.3361 72.4741 84.588 72.4741 84.8155C72.4741 85.3356 72.3481 85.7094 72.1003 85.9369C71.8525 86.1645 71.6006 86.2782 71.3528 86.2782C71.1497 86.2782 70.9669 86.2173 70.8084 86.0913C70.65 85.9654 70.5688 85.7907 70.5688 85.5631C70.5688 85.36 70.5728 85.1893 70.585 85.0512C70.5972 84.9171 70.6134 84.7911 70.6378 84.6774C70.6622 84.5636 70.6784 84.4336 70.6906 84.2873C70.7028 84.141 70.7069 83.9541 70.7069 83.7266C70.7069 83.365 70.6053 83.0481 70.4022 82.7758C70.1991 82.5036 69.9147 82.2761 69.5531 82.0973C68.8056 83.0968 68.0013 84.011 67.14 84.8521C66.2788 85.6891 65.3566 86.4164 64.3694 87.0299C63.3822 87.6434 62.33 88.1229 61.2088 88.4764C60.0875 88.8298 58.9013 89.0046 57.6541 89.0046C56.4963 89.0046 55.6553 88.8177 55.1191 88.4439C54.5869 88.07 54.3188 87.5865 54.3188 86.9974C54.3188 86.4286 54.5909 85.8069 55.1353 85.1284C55.6797 84.4498 56.48 83.8119 57.5322 83.2228C58.5844 82.6336 59.8966 82.1461 61.4606 81.7601C63.0247 81.3741 64.8163 81.1831 66.8313 81.1831C67.0588 81.1831 67.2781 81.1872 67.4934 81.1993C67.7088 81.2115 67.92 81.2278 68.1231 81.2481C68.8016 80.2283 69.3988 79.2206 69.9066 78.2211C70.4184 77.2256 70.845 76.3236 71.1984 75.5191C71.5478 74.7146 71.8159 74.0524 71.9988 73.5282C72.1816 73.0081 72.2709 72.7115 72.2709 72.6425C72.2709 72.5734 72.2384 72.5409 72.1694 72.5409C71.1497 73.5607 70.1503 74.4668 69.1753 75.2632C68.7691 75.6045 68.3384 75.9336 67.8834 76.2505C67.4284 76.5674 66.9816 76.8559 66.5388 77.1159C66.0959 77.376 65.6734 77.5791 65.2631 77.7295C64.8569 77.8757 64.4791 77.9489 64.1419 77.9489C63.6219 77.9489 63.2644 77.8229 63.0694 77.5751C62.8784 77.3272 62.7809 76.9981 62.7809 76.5877C62.7809 76.0677 62.8988 75.4419 63.1384 74.7187C63.3781 73.9955 63.6747 73.2235 64.0403 72.4068C64.4019 71.5901 64.7919 70.7572 65.2144 69.908C65.6328 69.0588 66.0228 68.2462 66.3884 67.4783C66.75 66.7063 67.0506 66.0115 67.2903 65.3858C67.53 64.7641 67.6478 64.2684 67.6478 63.9068C67.6478 63.7037 67.5869 63.5777 67.4609 63.533C67.335 63.4883 67.1725 63.4639 66.9694 63.4639C66.8556 63.4639 66.7663 63.4233 66.6972 63.3461C66.6281 63.2689 66.5956 63.1714 66.5956 63.0576C66.5956 62.8545 66.6972 62.7529 66.9003 62.7529C66.9694 62.7529 67.0831 62.757 67.2416 62.7691C67.4 62.7813 67.5747 62.7854 67.7697 62.7854C67.9606 62.7854 68.1597 62.7895 68.3628 62.8016C68.5659 62.8138 68.7488 62.8179 68.9072 62.8179C69.2241 62.8179 69.4922 62.8138 69.7075 62.8016C69.9228 62.7895 70.1219 62.7854 70.3006 62.7854C70.4144 62.7854 70.5038 62.7895 70.5728 62.8016C70.6419 62.8138 70.6744 62.8748 70.6744 62.9885C70.6744 63.1226 70.6134 63.3624 70.4875 63.7037C70.3616 64.045 70.1463 64.5528 69.8416 65.2354C69.5369 65.914 69.1347 66.8038 68.635 67.9049C68.1353 69.006 67.5259 70.3834 66.7988 72.0371C66.5022 72.6953 66.295 73.2438 66.1691 73.6867C66.0431 74.1296 65.9822 74.4871 65.9822 74.7593C65.9822 75.3038 66.1975 75.576 66.6281 75.576C67.1278 75.576 67.7453 75.3485 68.4806 74.8975C69.2159 74.4424 69.9716 73.837 70.7434 73.0772C71.5153 72.3174 72.2506 71.456 72.9534 70.4931C73.6563 69.5301 74.2128 68.5387 74.6191 67.5189C74.9806 66.6331 75.3056 65.7718 75.59 64.9348C75.8744 64.0978 76.0166 63.5046 76.0166 63.1673C76.0166 63.0779 76.0288 63.0048 76.0491 62.9479C76.0734 62.891 76.1547 62.8463 76.305 62.8138C76.4513 62.7813 76.6828 62.761 77.0038 62.761C77.3206 62.761 77.7634 62.761 78.3281 62.761C78.5109 62.761 78.6572 62.7773 78.7709 62.8138C78.8766 62.8301 78.9334 62.8951 78.9334 62.9845ZM67.8509 81.6544C67.7169 81.63 67.5788 81.6219 67.4447 81.6219C67.3106 81.6219 67.1725 81.6219 67.0384 81.6219C65.385 81.6219 63.8941 81.821 62.5656 82.2151C61.2413 82.6133 60.1119 83.1009 59.1816 83.6778C58.2513 84.2548 57.5403 84.8683 57.0406 85.5144C56.5409 86.1604 56.2931 86.7333 56.2931 87.2331C56.2931 87.5947 56.4394 87.8913 56.7359 88.1188C57.0325 88.3463 57.4713 88.4601 58.0603 88.4601C59.08 88.4601 60.0509 88.2732 60.9691 87.8994C61.8872 87.5256 62.7525 87.0218 63.5691 86.3879C64.3856 85.7541 65.1494 85.0268 65.8644 84.2101C66.5753 83.3894 67.2375 82.5402 67.8509 81.6544ZM102.841 63.5574C101.046 62.3953 99.0591 63.8337 97.4341 65.4589V62.5172C97.4341 62.4319 97.3488 62.375 97.2675 62.4075L94.3384 63.6224C94.2369 63.663 94.2409 63.8093 94.3425 63.8459C94.6756 63.9678 95.1428 64.2522 95.1428 64.8941C95.1428 65.8977 95.1428 71.9152 95.1428 73.9467L95.1753 75.2794V76.218C95.1753 77.311 93.9688 77.4491 93.9688 77.4491V77.7173H95.2972H97.3163H98.6447V77.4491C98.6447 77.4491 97.4381 77.311 97.4381 76.218V67.7789C97.4381 66.2472 98.8356 64.114 100.518 64.114C101.224 64.114 101.176 64.9388 101.415 65.4264C101.712 66.0318 102.354 66.5966 103.239 66.2025C103.999 65.8652 104.377 64.5488 102.841 63.5574Z" fill="white"/>
</g>
<defs>
<clipPath id="clip0_175_68698">
<rect width="78" height="34" fill="white" transform="translate(31 55)"/>
</clipPath>
</defs>
</svg>
