<svg width="32" height="32" viewBox="0 0 32 32" fill="none" xmlns="http://www.w3.org/2000/svg">
	<path d="M24.0173 23.7739H30.3507V27.3072H20.484L24.0173 23.7739ZM5.61728 27.3072L2.74628 24.4362C2.0593 23.7493 1.71339 22.9181 1.70855 21.9427C1.70372 20.9674 2.04479 20.1251 2.73175 19.4159L17.2288 4.61158C17.9158 3.90238 18.7477 3.55092 19.7245 3.55721C20.7014 3.56348 21.5333 3.9101 22.2202 4.59708L28.4579 10.8347C29.1448 11.5217 29.4883 12.356 29.4883 13.3376C29.4883 14.3193 29.1448 15.1536 28.4579 15.8406L17.1637 27.3072H5.61728ZM15.6774 23.7739L25.9694 13.3232L19.7463 7.10001L5.22021 21.9043L7.08975 23.7739H15.6774Z" fill="#506736" />
</svg>