<svg width="32" height="32" viewBox="0 0 32 32" fill="none" xmlns="http://www.w3.org/2000/svg">
	<path d="M21.7289 16.8244C20.6313 15.8409 19.5743 14.8783 18.558 13.9367C17.5417 12.9951 16.6421 12.071 15.8595 11.1642C15.0767 10.2575 14.4537 9.37347 13.9905 8.51211C13.5272 7.65076 13.2956 6.80909 13.2956 5.98711C13.2956 4.63324 13.7617 3.49012 14.6941 2.55775C15.6265 1.62537 16.7714 1.15918 18.1289 1.15918C18.8149 1.15918 19.469 1.29348 20.0912 1.56208C20.7134 1.83068 21.2593 2.18913 21.7289 2.63745C22.1985 2.18913 22.7444 1.83068 23.3666 1.56208C23.9888 1.29348 24.6429 1.15918 25.3289 1.15918C26.6864 1.15918 27.8313 1.62537 28.7637 2.55775C29.6961 3.49012 30.1623 4.63324 30.1623 5.98711C30.1623 6.80909 29.9306 7.65076 29.4673 8.51211C29.004 9.37347 28.3813 10.2563 27.5992 11.1607C26.8171 12.065 25.9198 12.99 24.9074 13.9354C23.895 14.8809 22.8355 15.8439 21.7289 16.8244ZM21.7289 12.4519C23.0149 11.2326 24.2002 10.0281 25.2847 8.83831C26.3692 7.64856 26.9115 6.69997 26.9115 5.99255C26.9115 5.53168 26.7644 5.14956 26.4702 4.84618C26.176 4.5428 25.7956 4.39111 25.3289 4.39111C25.0555 4.39111 24.783 4.45222 24.5115 4.57444C24.24 4.69667 24.0168 4.86116 23.842 5.06791L21.7289 7.61865L19.6159 5.06791C19.441 4.86116 19.2178 4.69667 18.9463 4.57444C18.6748 4.45222 18.4001 4.39111 18.1223 4.39111C17.6658 4.39111 17.289 4.5428 16.992 4.84618C16.6948 5.14956 16.5463 5.53168 16.5463 5.99255C16.5463 6.67563 17.0886 7.61815 18.1731 8.82008C19.2576 10.022 20.4429 11.2326 21.7289 12.4519ZM18.4782 30.8665L9.44626 28.3231V30.1622H0.57959V14.3462H11.8579L20.2187 17.4505C21.0651 17.7675 21.7506 18.3001 22.2753 19.0484C22.7999 19.7967 23.0622 20.6462 23.0622 21.5969H25.1448C26.4182 21.5969 27.5005 21.9354 28.3919 22.6122C29.2832 23.289 29.7289 24.2839 29.7289 25.5969V27.3636L18.4782 30.8665ZM3.81149 26.9303H6.19552V17.5969H3.81149V26.9303ZM18.4115 27.4636L26.3448 24.9969C26.2782 24.7399 26.1279 24.5535 25.8939 24.4375C25.66 24.3216 25.4094 24.2636 25.1421 24.2636H18.726C18.0999 24.2636 17.4871 24.216 16.8876 24.1209C16.288 24.0257 15.6975 23.8796 15.1158 23.6825L12.7782 22.8636L13.5448 20.3303L16.1173 21.1593C16.5926 21.3177 17.0948 21.4303 17.6237 21.4969C18.1526 21.5636 18.8818 21.5969 19.8115 21.5969C19.8115 21.3525 19.7393 21.1192 19.5948 20.8969C19.4504 20.6747 19.2782 20.5303 19.0782 20.4636L11.2782 17.5969H9.44626V24.9868L18.4115 27.4636Z" fill="#506736" />
</svg>