<svg width="32" height="32" viewBox="0 0 32 32" fill="none" xmlns="http://www.w3.org/2000/svg">
	<path d="M27.0826 30.9582L20.2739 24.1495L17.1638 27.3075H5.61736L2.74636 24.4365C2.05938 23.7495 1.71347 22.9183 1.70863 21.943C1.7038 20.9676 2.04487 20.1253 2.73183 19.4161L9.07386 12.9494L1.04199 4.91754L3.13039 2.8291L29.1711 28.8698L27.0826 30.9582ZM7.08983 23.7741H15.6724L17.771 21.6465L11.5623 15.4378L5.22029 21.9045L7.08983 23.7741ZM24.4174 19.9581L21.9145 17.4552L25.9695 13.3234L19.7464 7.1002L15.6913 11.232L13.2029 8.7436L17.2289 4.61177C17.9159 3.90257 18.7478 3.55111 19.7246 3.5574C20.7014 3.56367 21.5333 3.91029 22.2203 4.59727L28.458 10.8349C29.1449 11.5219 29.4884 12.3562 29.4884 13.3378C29.4884 14.3195 29.1449 15.1538 28.458 15.8408L24.4174 19.9581Z" fill="#282525" />
</svg>