<svg width="32" height="32" viewBox="0 0 32 32" fill="none" xmlns="http://www.w3.org/2000/svg">
	<path d="M27.2999 31.0665L25.5666 29.3332H5.33324V26.6665H7.9999V22.6665C7.9999 21.3109 8.31657 20.0387 8.9499 18.8498C9.58324 17.6609 10.4666 16.7109 11.5999 15.9998C10.8888 15.5554 10.2832 15.0221 9.78324 14.3998C9.28324 13.7776 8.87768 13.0887 8.56657 12.3332L0.899902 4.6665L2.7999 2.7665L29.1999 29.1665L27.2999 31.0665ZM20.0666 16.1998L18.0666 14.2332C19.0666 13.811 19.861 13.1554 20.4499 12.2665C21.0388 11.3776 21.3332 10.3998 21.3332 9.33317V5.33317H10.6666V6.83317L6.4999 2.6665H26.6666V5.33317H23.9999V9.33317C23.9999 10.7554 23.6555 12.0776 22.9666 13.2998C22.2777 14.5221 21.311 15.4887 20.0666 16.1998ZM10.6666 26.6665H21.3332V25.0998L13.9666 17.7332C12.9666 18.1554 12.1666 18.811 11.5666 19.6998C10.9666 20.5887 10.6666 21.5776 10.6666 22.6665V26.6665Z" fill="#282525" />
</svg>