<svg width="32" height="32" viewBox="0 0 32 32" fill="none" xmlns="http://www.w3.org/2000/svg">
	<path d="M7.99984 28.0001C6.99984 28.0001 6.01095 27.7557 5.03317 27.2668C4.05539 26.7779 3.2665 26.1334 2.6665 25.3334C3.24428 25.3334 3.83317 25.1057 4.43317 24.6501C5.03317 24.1946 5.33317 23.5334 5.33317 22.6668C5.33317 21.5557 5.72206 20.6112 6.49984 19.8334C7.27762 19.0557 8.22206 18.6668 9.33317 18.6668C10.4443 18.6668 11.3887 19.0557 12.1665 19.8334C12.9443 20.6112 13.3332 21.5557 13.3332 22.6668C13.3332 24.1334 12.8109 25.389 11.7665 26.4334C10.7221 27.4779 9.4665 28.0001 7.99984 28.0001ZM7.99984 25.3334C8.73317 25.3334 9.36095 25.0723 9.88317 24.5501C10.4054 24.0279 10.6665 23.4001 10.6665 22.6668C10.6665 22.289 10.5387 21.9723 10.2832 21.7168C10.0276 21.4612 9.71095 21.3334 9.33317 21.3334C8.95539 21.3334 8.63873 21.4612 8.38317 21.7168C8.12761 21.9723 7.99984 22.289 7.99984 22.6668C7.99984 23.1779 7.93873 23.6446 7.8165 24.0668C7.69428 24.489 7.53317 24.889 7.33317 25.2668C7.44428 25.3112 7.55539 25.3334 7.6665 25.3334H7.99984ZM15.6665 20.0001L11.9998 16.3334L23.9332 4.40011C24.1776 4.15567 24.4832 4.02789 24.8498 4.01678C25.2165 4.00567 25.5332 4.13345 25.7998 4.40011L27.5998 6.20011C27.8665 6.46678 27.9998 6.77789 27.9998 7.13345C27.9998 7.489 27.8665 7.80011 27.5998 8.06678L15.6665 20.0001Z" fill="#282525" />
</svg>