<svg width="32" height="32" viewBox="0 0 32 32" fill="none" xmlns="http://www.w3.org/2000/svg">
	<path d="M11.5335 7C12.1335 7.6 12.5891 8.28889 12.9002 9.06667C13.2113 9.84444 13.3668 10.6222 13.3668 11.4C13.3668 12.1778 13.2168 12.9444 12.9168 13.7C12.6168 14.4556 12.1557 15.1333 11.5335 15.7333L9.0335 18.2333C8.70016 18.5667 8.45016 18.9444 8.2835 19.3667C8.11683 19.7889 8.0335 20.2222 8.0335 20.6667C8.0335 21.1111 8.11683 21.5444 8.2835 21.9667C8.45016 22.3889 8.70016 22.7667 9.0335 23.1L11.5335 25.6L9.6335 27.5L7.1335 25C6.5335 24.4 6.0835 23.7222 5.7835 22.9667C5.4835 22.2111 5.3335 21.4444 5.3335 20.6667C5.3335 19.8889 5.4835 19.1278 5.7835 18.3833C6.0835 17.6389 6.5335 16.9667 7.1335 16.3667L9.6335 13.8667C9.98905 13.5111 10.2502 13.1222 10.4168 12.7C10.5835 12.2778 10.6668 11.8444 10.6668 11.4C10.6668 10.9556 10.5835 10.5167 10.4168 10.0833C10.2502 9.65 9.98905 9.25556 9.6335 8.9L7.1335 6.4L9.0335 4.5L11.5335 7ZM18.2002 7C18.8002 7.6 19.2502 8.28333 19.5502 9.05C19.8502 9.81667 20.0002 10.5889 20.0002 11.3667C20.0002 12.1444 19.8502 12.9167 19.5502 13.6833C19.2502 14.45 18.8002 15.1333 18.2002 15.7333L15.7002 18.2333C15.3668 18.5667 15.1168 18.9444 14.9502 19.3667C14.7835 19.7889 14.7002 20.2222 14.7002 20.6667C14.7002 21.1111 14.7835 21.5444 14.9502 21.9667C15.1168 22.3889 15.3668 22.7667 15.7002 23.1L18.2002 25.6L16.3335 27.5L13.8002 25C13.2002 24.4 12.7502 23.7222 12.4502 22.9667C12.1502 22.2111 12.0002 21.4444 12.0002 20.6667C12.0002 19.8889 12.1502 19.1278 12.4502 18.3833C12.7502 17.6389 13.2002 16.9667 13.8002 16.3667L16.3002 13.8667C16.6557 13.5111 16.9168 13.1222 17.0835 12.7C17.2502 12.2778 17.3335 11.8444 17.3335 11.4C17.3335 10.9556 17.2502 10.5167 17.0835 10.0833C16.9168 9.65 16.6557 9.25556 16.3002 8.9L13.8002 6.4L15.7002 4.5L18.2002 7ZM24.8668 7.03333C25.4668 7.63333 25.9168 8.31111 26.2168 9.06666C26.5168 9.82222 26.6668 10.5889 26.6668 11.3667C26.6668 12.1444 26.5168 12.9167 26.2168 13.6833C25.9168 14.45 25.4668 15.1333 24.8668 15.7333L22.3668 18.2667C22.0335 18.6 21.7835 18.9778 21.6168 19.4C21.4502 19.8222 21.3668 20.2556 21.3668 20.7C21.3668 21.1444 21.4502 21.5778 21.6168 22C21.7835 22.4222 22.0335 22.8 22.3668 23.1333L24.8668 25.6333L23.0002 27.5L20.4668 25C19.8668 24.4 19.4168 23.7222 19.1168 22.9667C18.8168 22.2111 18.6668 21.4444 18.6668 20.6667C18.6668 19.8889 18.8168 19.1278 19.1168 18.3833C19.4168 17.6389 19.8668 16.9667 20.4668 16.3667L22.9668 13.8667C23.3224 13.5111 23.5835 13.1167 23.7502 12.6833C23.9168 12.25 24.0002 11.8111 24.0002 11.3667C24.0002 10.9222 23.9168 10.4889 23.7502 10.0667C23.5835 9.64444 23.3224 9.25556 22.9668 8.9L20.4668 6.4L22.3668 4.53333L24.8668 7.03333Z" fill="#282525" />
</svg>