<svg width="24" height="24" viewBox="0 0 24 24" fill="none" xmlns="http://www.w3.org/2000/svg">
	<g clip-path="url(#clip0_175_56257)">
		<path d="M18.723 22.0752C18.6362 22.0088 18.5493 21.9427 18.4628 21.8763C18.4534 21.8693 18.4464 21.8599 18.4471 21.8395C18.55 21.8787 18.6526 21.9178 18.759 21.9582C18.7815 21.9415 18.7899 21.9234 18.7696 21.9009C18.7398 21.867 18.7177 21.8208 18.6775 21.8032C18.6186 21.7772 18.5969 21.7301 18.556 21.695C18.4345 21.5903 18.3137 21.485 18.1964 21.3768C18.1218 21.3081 18.0553 21.2332 17.9825 21.163C17.9317 21.1142 17.8743 21.0703 17.8232 21.0215C17.7542 20.9557 17.6891 20.8872 17.6218 20.8203C17.472 20.6714 17.3221 20.5223 17.1705 20.3746C17.1334 20.3386 17.0861 20.3099 17.0487 20.2743C16.9797 20.2084 16.9174 20.138 16.847 20.0736C16.8022 20.033 16.7609 19.9891 16.693 19.9666C16.6639 19.9569 16.6103 19.9391 16.6271 19.8859C16.6313 19.8724 16.589 19.8484 16.5519 19.8376C16.554 19.8546 16.5557 19.8715 16.5585 19.8964C16.4958 19.8771 16.4657 19.8373 16.4405 19.8014C16.3768 19.7107 16.2875 19.6376 16.2077 19.5586C16.1209 19.4723 16.0193 19.3966 15.9244 19.3165C15.8341 19.2404 15.7431 19.1653 15.6541 19.0883C15.631 19.0685 15.6146 19.0427 15.5964 19.0193C15.5873 19.0076 15.5834 18.9921 15.5719 18.9828C15.4773 18.9076 15.3765 18.8374 15.2872 18.7582C15.1321 18.6204 14.9837 18.4774 14.8334 18.3362C14.755 18.2622 14.6797 18.1858 14.6003 18.1124C14.4781 17.9992 14.351 17.8899 14.2309 17.7749C14.1062 17.6559 13.9868 17.5331 13.8671 17.4108C13.7022 17.2427 13.5387 17.0733 13.3752 16.9043C13.3395 16.8674 13.3062 16.8294 13.2852 16.7806C13.2985 16.7894 13.3115 16.7984 13.3248 16.8072C13.3979 16.8557 13.435 16.9356 13.5264 16.9681C13.5292 16.9689 13.5324 16.9716 13.5334 16.9742C13.5709 17.0804 13.6777 17.1386 13.7659 17.2096C13.7778 17.219 13.7887 17.2316 13.7939 17.2441C13.8261 17.3237 13.8888 17.383 13.9662 17.4345C13.9945 17.4535 14.0142 17.4816 14.038 17.5053C14.0824 17.5495 14.108 17.6088 14.1864 17.6258C14.2046 17.6299 14.2239 17.653 14.2298 17.6705C14.2575 17.7512 14.3317 17.7977 14.401 17.851C14.4802 17.9118 14.5512 17.9805 14.6244 18.0469C14.6349 18.0563 14.636 18.0727 14.6419 18.0855C14.6482 18.0984 14.651 18.1165 14.6626 18.123C14.7946 18.1955 14.8632 18.3154 14.9686 18.4075C15.0761 18.5014 15.1773 18.6005 15.2886 18.6909C15.4385 18.8129 15.5953 18.9287 15.7641 19.0588C15.728 18.9544 15.651 18.8918 15.5806 18.8316C15.5067 18.7684 15.4871 18.676 15.3943 18.6242C15.3054 18.5745 15.2266 18.5119 15.1741 18.4265C15.2004 18.4379 15.2266 18.4496 15.2641 18.466C15.2571 18.4151 15.2298 18.385 15.1962 18.3578C15.033 18.2268 14.9024 18.0688 14.7172 17.956C14.6923 17.9408 14.6685 17.922 14.6993 17.8937C14.7028 17.8907 14.7029 17.8814 14.7 17.8779C14.6664 17.8378 14.6307 17.7992 14.5982 17.7588C14.4994 17.6372 14.3454 17.5562 14.2529 17.4293C14.213 17.3746 14.1574 17.3278 14.1101 17.2769C14.1006 17.2669 14.0961 17.2538 14.0989 17.2324C14.1427 17.2549 14.1864 17.2775 14.2421 17.3061C14.2494 17.2491 14.2179 17.2228 14.192 17.1953C14.1192 17.1175 14.0548 17.0321 13.97 16.9648C13.8387 16.8613 13.7421 16.7353 13.6227 16.6247C13.5944 16.5984 13.5527 16.5823 13.5233 16.5569C13.4946 16.5323 13.4319 16.5244 13.4575 16.4671C13.462 16.4565 13.4231 16.4326 13.3885 16.4004V16.477C13.3825 16.4794 13.3766 16.4817 13.3703 16.484C13.2404 16.3393 13.1105 16.1942 12.9806 16.0494C12.9603 16.0559 12.9459 16.0606 12.9281 16.0661C12.8363 15.9559 12.7446 15.8453 12.6476 15.7286C12.6609 15.7219 12.6777 15.7134 12.7033 15.7006C12.6581 15.6391 12.6147 15.5766 12.5667 15.5166C12.4999 15.4324 12.4312 15.349 12.3602 15.2671C12.3129 15.2127 12.259 15.1627 12.2103 15.1092C12.1907 15.0879 12.1774 15.0627 12.1616 15.039C12.1518 15.0247 12.1459 15.0071 12.1322 14.9957C12.0951 14.9644 12.0549 14.9358 12.0104 14.9019C11.9981 14.9103 11.9806 14.9182 11.9698 14.9305C11.7023 15.2288 11.4327 15.5257 11.1694 15.8266C10.9761 16.0477 10.7923 16.2746 10.6036 16.4984C10.5686 16.5399 10.5308 16.58 10.4912 16.6189C10.4761 16.6338 10.4534 16.6431 10.4341 16.6551C10.4275 16.6502 10.4205 16.6452 10.4138 16.6399C10.46 16.58 10.5038 16.5185 10.5532 16.4604C10.6095 16.3937 10.6705 16.3299 10.7293 16.2647C10.7738 16.2153 10.8179 16.1658 10.862 16.1161C10.9033 16.0696 10.9177 16.0179 10.9201 15.96C10.9215 15.9252 10.945 15.8909 10.9744 15.8594C10.9632 15.8988 10.952 15.9383 10.9408 15.9775C10.9436 15.9784 10.9464 15.9793 10.9492 15.9801C11.1897 15.6783 11.4299 15.3765 11.6753 15.0683C11.6666 15.0554 11.6522 15.034 11.6288 14.9992C11.6617 15.0109 11.6799 15.0177 11.703 15.0256C11.7551 15.0127 11.7629 14.9633 11.7972 14.9346C11.8325 14.9051 11.8763 14.8826 11.9264 14.8504C11.8514 14.8083 11.8003 14.7796 11.7404 14.746C11.6722 14.8258 11.6077 14.8975 11.5479 14.972C11.4765 15.0604 11.412 15.1528 11.3385 15.2399C11.3052 15.2794 11.2457 15.2978 11.2118 15.3417C11.1673 15.399 11.1249 15.4537 11.1456 15.5245C11.0808 15.5391 11.1183 15.4941 11.1081 15.4786C11.0966 15.4836 11.0885 15.485 11.0864 15.4885C11.0623 15.528 11.0451 15.5713 11.0146 15.607C10.7723 15.8927 10.5269 16.177 10.2836 16.4621C10.0087 16.7844 9.73423 17.1067 9.46183 17.4304C9.27907 17.6477 9.1019 17.8682 8.91949 18.0855C8.78574 18.2452 8.64674 18.4017 8.51124 18.5602C8.26546 18.8477 8.02107 19.1357 7.77528 19.4232C7.66534 19.5519 7.5526 19.6791 7.44301 19.8084C7.41045 19.847 7.38524 19.8897 7.35688 19.9297C7.38629 19.9637 7.4178 19.9648 7.44686 19.9423C7.47382 19.9216 7.49658 19.8964 7.51934 19.8718C7.66464 19.7157 7.80924 19.5592 7.95455 19.4033C7.9591 19.3983 7.9703 19.3972 7.99271 19.3893C7.9794 19.4138 7.97415 19.4291 7.964 19.4419C7.85371 19.5808 7.74692 19.7218 7.63103 19.8569C7.43986 20.0795 7.24799 20.3014 7.04667 20.5173C6.79318 20.7887 6.53619 21.0586 6.26869 21.3204C5.99455 21.5888 5.70464 21.8462 5.42419 22.11C5.26244 22.2621 5.10663 22.4182 4.94592 22.5709C4.86399 22.6484 4.77751 22.7227 4.68508 22.7932C4.67528 22.7414 4.71379 22.7078 4.7446 22.6765C4.84754 22.5724 4.95643 22.4718 5.06287 22.37C5.06952 22.3635 5.08107 22.358 5.08212 22.351C5.09613 22.2635 5.17981 22.2123 5.23373 22.146C5.23653 22.1425 5.23408 22.136 5.23408 22.1155C4.92036 22.372 4.64797 22.6458 4.35666 22.9233C4.35036 22.8651 4.39203 22.8394 4.41128 22.8063C4.43019 22.7739 4.4568 22.7446 4.48516 22.7072C4.41934 22.6996 4.39518 22.7382 4.36577 22.7689C4.33671 22.799 4.30905 22.83 4.28104 22.8604C4.27438 22.8569 4.26773 22.8534 4.26108 22.8499C4.3052 22.7873 4.34931 22.725 4.39343 22.6624C4.38712 22.6583 4.38082 22.6542 4.37417 22.6499C4.27578 22.6969 4.23692 22.7926 4.15709 22.8555C4.07726 22.9183 4.02159 23.0023 3.95962 23.0722C3.95402 23.0379 3.96803 23.0096 4.00269 22.9663C4.14344 22.7902 4.28209 22.613 4.42109 22.4361C4.42599 22.4299 4.42529 22.4212 4.43089 22.3998C4.40253 22.415 4.38222 22.4217 4.36822 22.4337C4.32865 22.4677 4.29224 22.5036 4.25408 22.5384C4.14694 22.6355 4.03385 22.7277 3.93896 22.835C3.85493 22.93 3.7548 23.0154 3.66097 23.1043C3.63926 23.1248 3.56118 23.1336 3.49641 23.1228C3.53597 23.0649 3.57273 23.009 3.6123 22.9546C3.65431 22.8967 3.69808 22.84 3.74289 22.7835C3.80102 22.7104 3.85669 22.6385 3.84653 22.5428C3.84303 22.5109 3.87104 22.4767 3.87244 22.4375C3.79891 22.5068 3.72609 22.5765 3.65186 22.6452C3.42953 22.8505 3.21036 23.0581 2.98347 23.2599C2.76115 23.4576 2.53111 23.6492 2.30493 23.844C2.26502 23.8785 2.22896 23.9162 2.18974 23.951C2.17959 23.9598 2.16418 23.9647 2.13862 23.9776C2.14598 23.9469 2.15368 23.9285 2.15333 23.9103C2.15333 23.8986 2.14423 23.8814 2.13302 23.8764C2.12147 23.8714 2.09976 23.8747 2.0875 23.8811C2.05039 23.9004 2.01573 23.9232 1.98982 23.939C1.98877 23.9276 1.98562 23.8972 1.98247 23.8665C1.97441 23.8627 1.96636 23.8589 1.95866 23.8551C1.94816 23.875 1.938 23.8945 1.9275 23.9141C1.92295 23.9106 1.91874 23.9074 1.91419 23.9039C1.91769 23.8694 1.92155 23.8349 1.92505 23.8001C1.91734 23.7972 1.90999 23.7939 1.90264 23.791C1.85642 23.8381 1.81056 23.8852 1.76434 23.9326C1.75979 23.9302 1.75489 23.9276 1.75033 23.925C1.77799 23.8226 1.806 23.72 1.83577 23.6094C1.75664 23.6199 1.75979 23.6878 1.69431 23.7115C1.70517 23.5258 1.79865 23.3646 1.84102 23.1833C1.73598 23.2286 1.74648 23.3336 1.6432 23.3877C1.70027 23.2652 1.7913 23.1736 1.84067 23.0643C1.6656 23.1693 1.57317 23.3345 1.40476 23.4474C1.42157 23.4199 1.43837 23.3924 1.45518 23.3649C1.45063 23.3617 1.44643 23.3585 1.44187 23.3556C1.41947 23.3699 1.39146 23.3807 1.375 23.3988C1.31443 23.4658 1.2262 23.5012 1.14497 23.5442C1.13201 23.5509 1.11381 23.5544 1.0984 23.5538C1.05709 23.5518 1.01577 23.5468 0.966055 23.5421C0.955902 23.4804 0.940846 23.4114 0.828106 23.4149V23.3175C0.750729 23.2459 0.655495 23.2304 0.540304 23.2675C0.516495 23.2061 0.496538 23.1538 0.47448 23.097C0.449621 23.1008 0.428614 23.104 0.399553 23.1087C0.402705 23.0646 0.405506 23.0233 0.409707 22.9631C0.355788 22.9955 0.315173 23.0178 0.27736 23.0432C0.241297 23.0675 0.208735 23.0953 0.171972 23.1239C0.127857 23.0382 0.186678 22.9511 0.160068 22.849C0.111051 22.8944 0.0721867 22.9303 0.0266705 22.9724C-0.0114931 22.8727 -0.0020397 22.778 0.014066 22.6852C0.0357738 22.5589 0.0830406 22.4384 0.150615 22.3229C0.377846 21.9357 0.667049 21.5804 0.955552 21.2247C1.15302 20.9814 1.35014 20.7381 1.54796 20.4948C1.78955 20.1979 2.02728 19.8987 2.27412 19.6051C2.52306 19.3092 2.77865 19.017 3.03599 18.7263C3.27723 18.4534 3.52057 18.1817 3.7709 17.9147C3.96277 17.71 4.1669 17.5135 4.36612 17.314C4.4505 17.2295 4.53838 17.1476 4.62136 17.0625C4.64342 17.04 4.64832 17.0061 4.67108 16.9847C4.69418 16.9631 4.73515 16.9543 4.75896 16.933C4.93402 16.7759 5.11013 16.6194 5.27924 16.4577C5.34507 16.3948 5.41649 16.3346 5.46026 16.2556C5.48371 16.2132 5.52818 16.179 5.56354 16.1413C5.57405 16.1302 5.5884 16.1211 5.59611 16.1091C5.726 15.9003 5.90351 15.7184 6.06457 15.5271C6.16646 15.4061 6.27815 15.2908 6.38108 15.1706C6.51063 15.0194 6.63563 14.8653 6.76272 14.7126C6.78023 14.6919 6.79598 14.6694 6.81734 14.6515C7.05893 14.4515 7.24589 14.2149 7.45002 13.99C7.75883 13.6502 8.06483 13.3083 8.37154 12.9673C8.58897 12.7257 8.80675 12.4841 9.02348 12.242C9.04974 12.2127 9.07144 12.1806 9.09875 12.1452C9.07249 12.1139 9.04518 12.0814 9.01787 12.049C9.02698 12.0422 9.03643 12.0355 9.04553 12.0291C9.06654 12.0598 9.08755 12.0905 9.10856 12.1212C9.16108 12.0905 9.16878 12.0729 9.15617 12.0335C9.11136 11.8919 8.99722 11.786 8.90338 11.6699C8.78259 11.5199 8.65374 11.3746 8.5256 11.2286C8.38765 11.0713 8.2497 10.9142 8.1065 10.7601C7.93039 10.5706 7.74762 10.3852 7.57046 10.1966C7.49763 10.1191 7.43006 10.0378 7.36248 9.95645C7.34673 9.93773 7.34218 9.91258 7.34323 9.8848C7.42516 9.93656 7.48853 9.99973 7.5477 10.0664C7.63033 10.1588 7.72311 10.246 7.79629 10.3434C7.91568 10.5022 8.08269 10.627 8.21784 10.775C8.33233 10.9005 8.46258 11.016 8.58302 11.138C8.6562 11.212 8.72307 11.2903 8.79344 11.3661C8.8141 11.3883 8.83581 11.4102 8.86032 11.4295C8.90233 11.4626 8.93209 11.5003 8.9608 11.543C9.00282 11.6059 9.06619 11.6588 9.11941 11.7167C9.13727 11.7363 9.15442 11.7574 9.16598 11.7796C9.19504 11.8366 9.27662 11.9264 9.35224 11.9712C9.33474 11.9355 9.32318 11.9124 9.30918 11.8837C9.3736 11.8793 9.3778 11.9337 9.42332 11.9554C9.43732 11.9478 9.45518 11.9384 9.47304 11.9288C9.44643 11.9545 9.43417 11.9794 9.48284 12.0068C9.50035 11.9867 9.52626 11.97 9.52766 11.9519C9.53046 11.9185 9.50875 11.9051 9.47269 11.932C9.49194 11.9019 9.47724 11.8785 9.45273 11.8557C9.39006 11.7969 9.32844 11.7372 9.26646 11.6778C9.25806 11.6696 9.25106 11.6603 9.23705 11.6439C9.26051 11.6419 9.27487 11.6404 9.28957 11.6392C9.29027 11.6343 9.29342 11.6278 9.29062 11.6246C9.15897 11.4676 9.02803 11.3099 8.89393 11.1541C8.82496 11.0739 8.76228 10.9865 8.6758 10.9215C8.42686 10.7344 8.26125 10.4925 8.05153 10.2799C7.84076 10.0661 7.64854 9.84005 7.44616 9.62071C7.38909 9.559 7.34218 9.49057 7.25675 9.44729C7.22138 9.42915 7.20773 9.38178 7.18322 9.34814C7.16536 9.32358 7.14646 9.2996 7.1181 9.27971C7.10584 9.33791 7.14366 9.38119 7.16782 9.42828C7.19267 9.47712 7.21158 9.528 7.23714 9.58766C7.21438 9.58152 7.19372 9.58123 7.18392 9.57246C7.14471 9.53795 7.10584 9.50256 7.07293 9.46396C6.98435 9.36072 6.89717 9.25661 6.81314 9.15074C6.75887 9.08259 6.713 9.01007 6.65978 8.94134C6.60096 8.8653 6.54004 8.79073 6.47737 8.71703C6.41435 8.64304 6.36463 8.56524 6.34992 8.47341C6.34642 8.45235 6.33207 8.43071 6.31666 8.41317C6.21373 8.29765 6.10939 8.183 6.00505 8.06865C5.84749 7.89552 5.69029 7.7221 5.53168 7.54955C5.20011 7.18866 4.86715 6.82835 4.53628 6.46717C4.40253 6.32153 4.27368 6.17267 4.13959 6.02703C4.10142 5.98579 4.05311 5.95128 4.00724 5.91151C3.96662 5.94075 3.95542 5.96737 3.97608 5.99925C3.99393 6.02644 4.01389 6.05276 4.03525 6.07792C4.19736 6.26918 4.36051 6.46015 4.52262 6.65171C4.52927 6.65932 4.52963 6.67043 4.51737 6.68885C4.46415 6.6406 4.40638 6.59498 4.35806 6.5435C4.16199 6.3344 3.96732 6.12471 3.77546 5.91297C3.63471 5.75768 3.49711 5.60063 3.36231 5.44183C3.23942 5.29677 3.12107 5.14879 3.00343 5.00051C2.82802 4.77942 2.65296 4.55803 2.48175 4.33459C2.33399 4.14187 2.19149 3.94651 2.04759 3.75202C1.90544 3.55988 1.76469 3.36686 1.62184 3.17501C1.52555 3.04545 1.42507 2.91794 1.32948 2.78809C1.25876 2.69188 1.19259 2.59332 1.12501 2.49564C1.11556 2.48219 1.11136 2.46639 1.11696 2.44329C1.13096 2.45119 1.14847 2.45674 1.15827 2.46727C1.30007 2.61847 1.44082 2.77025 1.53781 2.94631C1.54341 2.95625 1.54936 2.97 1.55952 2.97409C1.6656 3.01504 1.70447 3.10365 1.76819 3.17501C1.77379 3.18144 1.78325 3.18554 1.7913 3.19022C1.79305 3.1911 1.7969 3.18963 1.81371 3.18759C1.57282 2.8109 1.29552 2.45703 1.01647 2.08415C1.0977 2.09848 1.11311 2.14762 1.14952 2.17628C1.18558 2.20435 1.21639 2.2374 1.26261 2.28039C1.27697 2.16049 1.14392 2.11194 1.13306 2.01572C1.20064 2.07772 1.26821 2.13943 1.33579 2.20143C1.34244 2.19821 1.34874 2.1947 1.35539 2.19149C1.34979 2.17511 1.34839 2.15639 1.33719 2.14294C1.23355 2.01806 1.12711 1.89494 1.02488 1.76918C1.00352 1.74286 0.996516 1.70806 0.982861 1.67706L0.980761 1.6791C1.00107 1.69227 1.02558 1.70309 1.04168 1.71946C1.12851 1.80954 1.21114 1.90254 1.29902 1.99174C1.39986 2.0941 1.50455 2.19383 1.60818 2.29443C1.61379 2.29999 1.62534 2.30145 1.63829 2.30671C1.6544 2.26957 1.62674 2.24822 1.60643 2.22366C1.57982 2.19149 1.55497 2.15815 1.53151 2.12451C1.48424 2.05637 1.43802 1.98735 1.39181 1.91863C1.3736 1.89172 1.35609 1.86423 1.33859 1.83732C1.32388 1.8151 1.31373 1.78995 1.29412 1.77123C1.16213 1.6446 1.06934 1.49661 0.964305 1.35536C0.92194 1.29833 0.95065 1.24481 0.958703 1.18983C0.968506 1.18573 0.97866 1.18164 0.988463 1.17755C1.01332 1.20387 1.03748 1.23048 1.06304 1.25592C1.16283 1.35536 1.25876 1.45742 1.3645 1.55218C1.43172 1.61243 1.49404 1.68349 1.61063 1.68905C1.63724 1.69022 1.6649 1.72005 1.68696 1.74052C1.88758 1.92711 2.0868 2.11486 2.28708 2.30145C2.41102 2.41697 2.54057 2.5281 2.65961 2.64684C2.74399 2.73077 2.81436 2.82465 2.89314 2.91268C2.94146 2.96649 2.99188 3.01942 3.0451 3.07002C3.07416 3.09751 3.07766 3.09488 3.15363 3.07909C3.05525 2.93637 2.94321 2.80476 2.82032 2.67228C2.97577 2.69041 3.01394 2.70679 3.10602 2.79102C3.14033 2.82231 3.17219 2.85594 3.21071 2.88285C3.23416 2.89952 3.26813 2.90595 3.29719 2.91677C3.3329 2.99895 3.48345 3.15483 3.55873 3.1832C3.55453 3.12705 3.50376 3.09722 3.46945 3.06359C3.41623 3.01182 3.38122 2.9428 3.29474 2.91853C3.24817 2.86413 3.2065 2.80564 3.15363 2.75592C3.01429 2.6252 2.86653 2.5009 2.72788 2.3693C2.6295 2.276 2.54302 2.17452 2.48525 2.05813C2.47999 2.0476 2.46809 2.03765 2.46844 2.02771C2.46949 1.9391 2.39561 1.87944 2.35045 1.80808C2.25732 1.66068 2.16838 1.51153 2.0784 1.36296C2.07315 1.35419 2.07455 1.34249 2.0721 1.32787C2.11762 1.32582 2.14142 1.34044 2.15123 1.37174C2.18204 1.47 2.26852 1.54165 2.32979 1.62471C2.36936 1.67823 2.44358 1.70601 2.52551 1.72063C2.44358 1.62061 2.3571 1.52293 2.28042 1.41999C2.2027 1.315 2.13477 1.20474 2.07665 1.08571C2.09381 1.09507 2.11411 1.10209 2.12777 1.11467C2.17539 1.15883 2.2202 1.20474 2.26677 1.24978C2.28673 1.26908 2.30738 1.29219 2.3431 1.27581C2.37986 1.25885 2.37846 1.23136 2.36515 1.20211C2.3571 1.18427 2.35185 1.16555 2.3424 1.13836C2.38231 1.15005 2.41102 1.15854 2.43973 1.16702C2.46774 1.11379 2.3445 1.08425 2.42538 1.02576C2.59624 1.10794 2.70232 1.26206 2.89034 1.31939C2.87529 1.21059 2.76325 1.1056 2.65086 1.09624C2.64385 1.07548 2.64175 1.04097 2.62985 1.03863C2.54057 1.01933 2.50555 0.953233 2.45654 0.902053C2.3613 0.802618 2.27797 0.696165 2.25276 0.566023C2.25066 0.555494 2.25276 0.544673 2.25276 0.524787C2.27587 0.533268 2.29443 0.536485 2.30773 0.545551C2.37076 0.588249 2.43343 0.63124 2.4933 0.67657C2.52551 0.700844 2.55772 0.728042 2.57873 0.759043C2.61514 0.812562 2.67957 0.834788 2.73594 0.868128C2.69077 0.766062 2.57943 0.705231 2.49925 0.607844C2.60079 0.616617 2.68377 0.626561 2.75309 0.675401C2.79756 0.706693 2.83922 0.734184 2.9068 0.725118C2.94181 0.720146 2.98207 0.740618 3.02864 0.751731C3.03109 0.677155 2.94181 0.654929 2.9257 0.599362C2.9103 0.545258 2.89629 0.490862 2.88054 0.432371C2.93271 0.414531 2.98137 0.397861 3.03494 0.379437C3.02409 0.339663 2.97892 0.318606 2.94181 0.320946C2.88859 0.324455 2.87143 0.298134 2.84588 0.273568C2.85603 0.239351 2.86618 0.205134 2.87774 0.166822C2.89419 0.166822 2.91555 0.171501 2.93271 0.165945C3.0423 0.131143 3.12738 0.178228 3.21561 0.219756C3.23626 0.2297 3.26182 0.232039 3.28528 0.237889C3.28878 0.232624 3.29228 0.227068 3.29614 0.221803C3.26953 0.198407 3.24327 0.175011 3.21701 0.151907C3.23731 0.113303 3.25692 0.0758686 3.28213 0.0276136C3.35706 0.0249815 3.40082 0.101897 3.481 0.123246C3.55698 0.143133 3.57063 0.239936 3.67287 0.259238C3.67812 0.199869 3.64241 0.164775 3.61405 0.129095C3.58709 0.0951706 3.55313 0.0653402 3.53282 0.0217645C3.54998 0.0264438 3.56923 0.0284909 3.58429 0.0358023C3.73939 0.110671 3.89485 0.185247 4.0482 0.262747C4.08812 0.282927 4.12173 0.31188 4.15674 0.3382C4.42844 0.542041 4.70434 0.742373 4.97078 0.951185C5.26174 1.1793 5.54709 1.41326 5.82894 1.64927C6.00295 1.79492 6.17031 1.94699 6.33452 2.10024C6.53234 2.28507 6.72421 2.47458 6.91783 2.66263C6.93183 2.67638 6.93953 2.6948 6.94934 2.71147C6.95984 2.72989 6.96614 2.75095 6.98015 2.76733C6.99345 2.78312 7.01866 2.7919 7.03162 2.80769C7.10619 2.89806 7.17622 2.99076 7.2522 3.08026C7.29491 3.13056 7.34393 3.17735 7.3947 3.22239C7.48468 3.30252 7.57816 3.38002 7.67024 3.45869C7.71226 3.49466 7.75427 3.52654 7.76408 3.58386C7.77003 3.61837 7.81345 3.64966 7.84356 3.68008C7.90973 3.74705 7.978 3.81256 8.05328 3.88655C7.96575 3.90878 7.94334 3.83333 7.87542 3.8345C7.87857 3.84707 7.87752 3.86082 7.88487 3.86988C8.02142 4.03395 8.14746 4.20328 8.30327 4.35653C8.47973 4.53025 8.64534 4.71186 8.812 4.89201C8.90864 4.99642 8.99652 5.10638 9.0928 5.21108C9.12956 5.25085 9.18173 5.28068 9.22025 5.31958C9.28747 5.38684 9.35049 5.45674 9.41387 5.52664C9.51015 5.63221 9.60608 5.73779 9.70062 5.84454C9.75629 5.90741 9.80671 5.9738 9.86343 6.03609C9.91384 6.09166 9.97231 6.14226 10.0227 6.19782C10.1813 6.373 10.3273 6.55725 10.4989 6.72307C10.6249 6.84473 10.6985 6.99096 10.813 7.1173C11.0132 7.33781 11.2016 7.56592 11.3963 7.79024C11.6704 8.1058 11.946 8.42077 12.2212 8.73574C12.2271 8.74247 12.2359 8.74715 12.253 8.76002C12.3094 8.70533 12.3654 8.65152 12.4211 8.59741C12.426 8.59917 12.4309 8.60121 12.4361 8.60297C12.4284 8.63075 12.4246 8.66 12.4116 8.68632C12.3903 8.73019 12.3661 8.77376 12.3374 8.81441C12.3115 8.85097 12.3297 8.87203 12.37 8.89864C12.6987 8.4892 12.9673 8.05023 13.2964 7.64284C13.6248 7.23662 13.9109 6.80671 14.2802 6.42301C14.2533 6.51367 14.1791 6.58562 14.1395 6.67248C14.234 6.57948 14.3268 6.4856 14.3811 6.36774C14.3639 6.37944 14.3468 6.39113 14.3296 6.40283C14.4462 6.16975 14.6199 5.97 14.8124 5.77289C14.8594 5.79423 14.8891 5.78429 14.9164 5.73867C14.9423 5.69538 14.9924 5.66204 15.0313 5.62403C15.0418 5.61379 15.0509 5.60268 15.0663 5.58601C15.0397 5.58162 15.0222 5.5787 14.9963 5.57431C15.0397 5.4699 15.1255 5.38977 15.1972 5.3032C15.2102 5.2877 15.2361 5.27951 15.2715 5.25904C15.2567 5.35526 15.1412 5.39152 15.1465 5.49681C15.2249 5.40498 15.2904 5.32835 15.3558 5.25144L15.3544 5.24968C15.3611 5.26489 15.3681 5.2801 15.381 5.30993C15.5502 5.12627 15.713 4.94963 15.8754 4.77298C15.8712 4.76889 15.8667 4.76509 15.8625 4.76099C15.8429 4.77211 15.8236 4.78293 15.8036 4.79433C15.8117 4.73204 16.0379 4.48901 16.1531 4.41794C16.1065 4.47614 16.0606 4.53405 16.0144 4.59166C16.0204 4.59546 16.0263 4.59897 16.0323 4.60277C16.0767 4.55598 16.123 4.51007 16.1643 4.46123C16.1709 4.45333 16.1566 4.43315 16.1517 4.41853C16.2322 4.32611 16.3117 4.23253 16.3943 4.14128C16.4374 4.0939 16.4864 4.05033 16.5456 4.01436C16.499 4.06817 16.4524 4.12198 16.4059 4.17579C16.4125 4.17988 16.4192 4.18398 16.4258 4.18807C16.5123 4.11291 16.5886 4.03015 16.6646 3.94709L16.6607 3.95002C16.7185 3.89094 16.7759 3.83186 16.8334 3.77279C16.9139 3.69587 17.0014 3.62334 17.0679 3.53151C17.0529 3.53151 17.0438 3.52917 17.0413 3.53181C16.9794 3.59147 16.9163 3.65025 16.8579 3.71225C16.8428 3.72833 16.8425 3.75407 16.8351 3.77542C16.8092 3.78127 16.7829 3.78683 16.736 3.79735C16.95 3.5669 17.1702 3.36043 17.3995 3.15161C17.4107 3.16624 17.4191 3.17647 17.4352 3.19724C17.4916 3.14489 17.5452 3.09488 17.5991 3.04487C17.5945 3.04077 17.59 3.03697 17.5854 3.03288C17.5536 3.0554 17.5217 3.07792 17.4849 3.10394C17.5031 3.05393 18.0644 2.52518 18.2888 2.34327C18.2944 2.35263 18.2997 2.36082 18.3088 2.37573C18.3375 2.34707 18.4079 2.34532 18.361 2.28273C18.348 2.26577 18.4667 2.16633 18.4845 2.17745C18.522 2.20055 18.5329 2.17745 18.549 2.16195C18.6386 2.07772 18.7279 1.9932 18.8154 1.90751C18.8298 1.89347 18.8392 1.87329 18.8431 1.85487C18.8476 1.83235 18.8725 1.82943 18.8823 1.81948C18.9359 1.7645 19.0304 1.74491 19.0612 1.67092C19.0686 1.65366 19.0931 1.63728 19.1144 1.62851C19.2104 1.58874 19.2671 1.52498 19.2891 1.44631C19.3304 1.42584 19.3795 1.41473 19.4019 1.38811C19.4414 1.34073 19.4964 1.35185 19.5468 1.346C19.5769 1.34249 19.5979 1.35887 19.5979 1.38694C19.5979 1.43403 19.6123 1.48287 19.5664 1.52352C19.5538 1.53463 19.5486 1.55218 19.5346 1.57587C19.619 1.56622 19.6035 1.47351 19.6855 1.47088C19.6739 1.53171 19.5629 1.56476 19.6249 1.64606C19.8875 1.41853 20.1438 1.19363 20.4039 0.972534C20.6637 0.751731 20.9008 0.512503 21.191 0.29053C21.19 0.350484 21.1571 0.376804 21.1308 0.401663C21.0366 0.489984 20.9382 0.575381 20.8412 0.661948C20.8321 0.670136 20.8178 0.678618 20.8171 0.687684C20.8108 0.750562 20.7464 0.781562 20.7099 0.827477C20.7012 0.83859 20.6903 0.848241 20.6872 0.864326C20.9736 0.661948 21.2211 0.426522 21.4802 0.201332C21.4865 0.205134 21.4928 0.208643 21.4991 0.212445C21.4617 0.26304 21.4245 0.313927 21.3832 0.369493C21.4907 0.372125 21.4963 0.271521 21.5828 0.243445C21.5562 0.308663 21.4872 0.349606 21.476 0.411607C21.4823 0.415116 21.4886 0.418918 21.4946 0.422427C21.6196 0.301936 21.7442 0.181445 21.8703 0.060076C21.8696 0.0969253 21.8433 0.125293 21.8167 0.156294C21.6931 0.301351 21.5726 0.447871 21.4512 0.594098C21.4484 0.597608 21.4508 0.604334 21.4508 0.615447C21.4638 0.61223 21.4785 0.611938 21.4858 0.605796C21.5996 0.514258 21.7155 0.424475 21.824 0.328842C21.9147 0.249294 21.9967 0.162728 22.0824 0.0790856C22.136 0.0267362 22.1966 -0.0133301 22.2953 0.00333984C22.2722 0.0793781 22.2092 0.134944 22.163 0.197822C22.1171 0.260115 22.0639 0.318898 22.0222 0.382654C22.0044 0.409852 22.0089 0.446701 22.0002 0.478579C21.9938 0.502268 21.9875 0.527711 21.9725 0.547598C21.8275 0.737986 21.6808 0.927204 21.5341 1.11671C21.461 1.21147 21.3888 1.30652 21.3122 1.39952C21.2778 1.44105 21.233 1.47643 21.1956 1.51621C21.1623 1.55159 21.1301 1.58786 21.1035 1.62676C21.093 1.64226 21.0989 1.66565 21.1087 1.68934C21.2271 1.6174 21.3087 1.52176 21.4032 1.42672C21.4361 1.49193 21.421 1.54604 21.3839 1.60131C21.3496 1.6522 21.3234 1.70689 21.2936 1.76011C21.2253 1.82007 21.1637 1.88353 21.1325 1.96425C21.2012 1.90868 21.267 1.85165 21.2978 1.77328C21.2996 1.76918 21.2933 1.76304 21.2908 1.75778C21.3314 1.72151 21.3794 1.68905 21.4112 1.64781C21.4904 1.54604 21.5558 1.43695 21.6381 1.33693C21.7253 1.23077 21.8111 1.12081 21.9641 1.067C21.9991 1.05471 22.0229 1.02137 22.0527 0.998563C22.177 0.903808 22.3016 0.809637 22.4329 0.70991C22.4578 0.744712 22.448 0.759043 22.4259 0.776297C22.3646 0.823968 22.3037 0.872515 22.2466 0.923695C22.2046 0.961714 22.1938 1.01026 22.2036 1.06583C22.3324 0.921647 22.4865 0.800279 22.6447 0.68242C22.6507 0.686221 22.6566 0.690316 22.6629 0.694118C22.6517 0.712835 22.6419 0.732429 22.629 0.749977C22.6094 0.776298 22.5838 0.800279 22.5681 0.82777C22.5597 0.842392 22.5604 0.865496 22.5688 0.879826C22.5733 0.88743 22.6045 0.887723 22.622 0.884506C22.6409 0.880996 22.6573 0.869591 22.6836 0.8576V0.9196C22.7368 0.933053 22.7431 0.842977 22.8086 0.894449C22.755 1.00324 22.7004 1.11321 22.6461 1.22317C22.7487 1.19626 22.7974 1.1407 22.8058 1.05998C22.8068 1.05091 22.8187 1.04243 22.8261 1.03395C22.8352 1.02342 22.8482 1.01465 22.8534 1.00295C22.9203 0.863741 23.0341 0.761967 23.1958 0.697627C23.2007 0.69558 23.2084 0.698797 23.221 0.699967C23.193 0.830109 23.0841 0.929544 23.0313 1.04974C23.1156 1.01055 23.136 0.929836 23.2056 0.870175C23.2287 0.921355 23.2333 0.966101 23.2189 1.01202C23.193 1.09566 23.1923 1.09566 23.2221 1.22551C23.2596 1.19012 23.2872 1.15503 23.3247 1.13104C23.3639 1.10619 23.4133 1.09186 23.4616 1.07138C23.4931 1.10034 23.5235 1.12812 23.5663 1.16731C23.5733 1.13221 23.582 1.10882 23.5813 1.08571C23.5799 1.02986 23.5817 1.02664 23.6447 1.02664C23.6545 1.02664 23.6646 1.02488 23.6744 1.0243C23.6843 1.02371 23.6941 1.02342 23.6976 1.02342C23.7812 1.10355 23.7539 1.19568 23.7368 1.28663C23.7438 1.28751 23.7508 1.28839 23.7581 1.28926C23.7753 1.27084 23.7924 1.25241 23.8089 1.23487C23.8499 1.24159 23.888 1.24773 23.936 1.25534C23.9227 1.30242 23.908 1.35331 23.894 1.40391C23.8817 1.44982 23.8008 1.47292 23.8299 1.53873C23.9083 1.51533 23.9395 1.45538 24.0004 1.39572C23.9973 1.43286 23.998 1.45099 23.9941 1.46854C23.95 1.68437 23.8621 1.88675 23.7396 2.08123C23.5694 2.35146 23.4161 2.62871 23.2462 2.89893C23.0953 3.13875 22.9416 3.37739 22.7449 3.59527C22.6598 3.68944 22.595 3.79618 22.5169 3.89503C22.4795 3.94241 22.4494 3.99242 22.3814 4.0243C22.33 4.04828 22.2995 4.10355 22.2603 4.14538C22.1546 4.25826 22.045 4.3691 21.9704 4.50012C21.9459 4.54341 21.9126 4.58318 21.8836 4.62442C21.8801 4.62939 21.878 4.63611 21.8727 4.63845C21.7516 4.69548 21.7074 4.80603 21.6224 4.88792C21.6189 4.89143 21.6112 4.89201 21.5891 4.89932C21.5989 4.85984 21.6073 4.82767 21.6182 4.78468C21.5527 4.83732 21.4918 4.87651 21.4452 4.92564C21.3426 5.03356 21.2484 5.14674 21.149 5.2567C21.0391 5.37807 20.9242 5.49652 20.8157 5.61876C20.738 5.7065 20.6697 5.80038 20.5927 5.88841C20.4869 6.00919 20.3777 6.12793 20.2688 6.24666C20.0419 6.49408 19.8161 6.74208 19.5853 6.98686C19.5104 7.06641 19.4173 7.13397 19.3399 7.21205C19.1284 7.42525 18.9208 7.64109 18.7118 7.85604C18.5287 8.04497 18.3455 8.23389 18.1631 8.4234C17.9468 8.64801 17.7311 8.8729 17.5154 9.09809C17.4646 9.15103 17.416 9.20513 17.368 9.25953C17.3428 9.28819 17.3043 9.30778 17.2756 9.28351C17.2402 9.25368 17.2118 9.26479 17.1688 9.28556C17.2283 9.20455 17.2791 9.13582 17.3291 9.06709C17.3379 9.0551 17.3519 9.04136 17.3505 9.02937C17.3407 8.94163 17.4142 8.89542 17.4758 8.84103C17.5088 8.81178 17.5319 8.77464 17.5567 8.73955C17.5592 8.73604 17.542 8.72288 17.534 8.7141C17.4016 8.80593 16.2483 10.0854 16.1783 10.2635C16.2844 10.1568 16.4115 10.0655 16.4822 9.93393C16.5098 9.88246 16.5379 9.82806 16.5991 9.78975C16.6369 9.76606 16.6474 9.71371 16.6832 9.68534C16.7658 9.61896 16.799 9.52566 16.8768 9.45635C16.9542 9.38704 17.0175 9.30632 17.0949 9.2221C17.1191 9.27825 17.0711 9.29784 17.0557 9.32738C17.0399 9.35838 17.0179 9.38675 16.9976 9.41629C16.9759 9.44787 16.9538 9.47916 16.9331 9.5087C16.9471 9.52859 16.9587 9.54467 16.9696 9.55988C16.6425 9.8924 16.2791 10.1939 15.9959 10.5501C15.9861 10.5624 15.9819 10.5782 15.9829 10.5963C16.1475 10.482 16.2683 10.3363 16.4101 10.2065C16.5508 10.0775 16.6919 9.94855 16.8491 9.82748C16.8383 9.84473 16.8306 9.86403 16.8162 9.87924C16.6678 10.0366 16.5193 10.1945 16.368 10.3501C16.2532 10.4682 16.13 10.5808 16.0186 10.701C15.9031 10.8259 15.7984 10.9578 15.686 11.0847C15.5859 11.1982 15.4815 11.3093 15.3789 11.4216C15.3481 11.4553 15.317 11.4889 15.2848 11.5214C15.2641 11.5418 15.2406 11.5606 15.2186 11.5802C15.2119 11.5766 15.2049 11.5731 15.1983 11.5699C15.2228 11.5182 15.2473 11.4664 15.2778 11.4023C15.1118 11.4872 15.0572 11.6436 14.9014 11.7337C14.9336 11.7752 14.9644 11.8211 15.0022 11.8624C15.1237 11.9943 15.2466 12.1256 15.3716 12.2551C15.4857 12.3739 15.6069 12.4879 15.7189 12.6081C15.8558 12.7549 15.9864 12.9059 16.1184 13.0562C16.1391 13.0796 16.152 13.1076 16.1744 13.1427C16.109 13.1202 16.061 13.1038 16.013 13.0875C16.0095 13.0392 15.9777 13.0141 15.915 12.9994C15.9339 13.05 15.9721 13.0699 16.0155 13.0854C16.061 13.1375 16.1086 13.1884 16.1513 13.2419C16.2571 13.3729 16.3628 13.5039 16.4643 13.6373C16.673 13.911 16.8768 14.1868 17.1215 14.4407C17.3102 14.6363 17.4839 14.8419 17.6621 15.0446C17.8442 15.2513 18.0245 15.4593 18.2037 15.6678C18.3196 15.8026 18.4317 15.9395 18.5455 16.0755C18.5976 16.1378 18.6488 16.2007 18.7037 16.2612C18.7156 16.2743 18.759 16.2834 18.7576 16.2869C18.7356 16.3513 18.8025 16.3782 18.834 16.4188C18.8686 16.4639 18.9047 16.5089 18.945 16.5504C19.0171 16.6244 19.0941 16.6955 19.1673 16.7689C19.1886 16.7902 19.2132 16.8133 19.2209 16.8391C19.2387 16.8982 19.2835 16.9382 19.3382 16.973C19.3956 17.0099 19.446 17.0496 19.461 17.1128C19.4649 17.1286 19.4789 17.1432 19.4908 17.1564C19.5517 17.2234 19.6081 17.2941 19.6764 17.3558C19.7821 17.4509 19.8542 17.5655 19.953 17.6647C20.0503 17.7624 20.1378 17.8668 20.2285 17.9688C20.3213 18.0729 20.4127 18.1782 20.5055 18.2826C20.7373 18.5435 20.968 18.8053 21.2022 19.0647C21.4529 19.3419 21.712 19.6142 21.9585 19.8941C22.1948 20.1625 22.4193 20.4383 22.6507 20.7097C22.7113 20.7808 22.7795 20.8478 22.8436 20.9168C22.859 20.9332 22.8727 20.9507 22.8821 20.9729C22.8149 20.915 22.7354 20.8861 22.6377 20.8808C22.615 20.9539 22.7036 20.9758 22.7232 21.0259L22.7256 21.0238C22.6829 21.0209 22.6405 21.0177 22.5887 21.0142C22.5351 20.9516 22.4679 20.8902 22.3699 20.8597C22.3769 20.9232 22.4252 20.9636 22.4627 21.0077C22.5155 21.0697 22.574 21.1288 22.6332 21.1867C22.671 21.2239 22.7001 21.2554 22.6836 21.3128C22.6748 21.3435 22.7067 21.3888 22.734 21.4189C22.8601 21.5587 22.9903 21.6959 23.1199 21.8333C23.164 21.8798 23.2105 21.9249 23.2557 21.9705C23.262 21.9769 23.2701 21.9834 23.2736 21.991C23.2977 22.0439 23.3212 22.0974 23.3499 22.1623C23.3145 22.1413 23.2893 22.1267 23.2638 22.1117C23.2865 22.1843 23.2638 22.2679 23.3429 22.3241C23.401 22.3653 23.3768 22.4238 23.3908 22.4759C23.2592 22.3323 23.0936 22.2214 22.9175 22.1085C22.8982 22.1129 22.8702 22.1193 22.8278 22.1287C22.8846 22.2126 22.9577 22.2787 23.0285 22.3516C23.0078 22.3437 22.9868 22.3358 22.9661 22.3276C22.9626 22.3299 22.9595 22.3323 22.956 22.3346C23.019 22.3928 23.0838 22.4501 23.1447 22.5098C23.2074 22.5712 23.2666 22.6349 23.3275 22.6975C23.3222 22.7019 23.317 22.7063 23.3117 22.7104C23.2462 22.6572 23.1787 22.6054 23.116 22.5501C23.0397 22.4826 22.9784 22.3992 22.8902 22.346C22.8149 22.3004 22.7358 22.2647 22.6857 22.1951C22.6682 22.1705 22.6342 22.153 22.6045 22.136C22.5859 22.1252 22.5614 22.1214 22.5397 22.1144C22.5362 22.1191 22.5323 22.1237 22.5288 22.1284C22.5386 22.1454 22.5456 22.1644 22.559 22.179C22.6244 22.251 22.6902 22.3226 22.7592 22.3925C22.8079 22.4419 22.81 22.4405 22.8804 22.4358C22.9003 22.4603 22.9227 22.4817 22.9364 22.5063C22.949 22.5288 22.9521 22.5551 22.9595 22.5794C22.9914 22.5952 23.026 22.6124 23.061 22.6297C23.0575 22.6358 23.054 22.6417 23.0505 22.6478C23.0264 22.6411 23.0022 22.6347 22.9781 22.6279C22.9738 22.6311 22.97 22.6344 22.9658 22.6373C23.0197 22.6978 23.074 22.7581 23.1314 22.8224C23.0768 22.84 23.061 22.7601 23.0057 22.8054C23.0176 22.8344 23.0306 22.866 23.0477 22.9084C22.963 22.8847 22.9122 22.766 22.8135 22.8707C22.7361 22.8473 22.7057 22.7388 22.5845 22.7774C22.6013 22.8028 22.616 22.8265 22.6318 22.8499C22.6528 22.8806 22.6661 22.9233 22.7277 22.8865C22.7354 22.8818 22.7641 22.9017 22.7855 22.9113C22.7095 22.9663 22.6913 23.0148 22.7337 23.0608C22.8096 23.1429 22.8902 23.2219 22.9714 23.305C22.9973 23.2959 23.018 23.2886 23.0456 23.2786C23.0565 23.2936 23.0827 23.3167 23.0771 23.324C23.0302 23.3874 23.0852 23.4067 23.1353 23.4331C23.158 23.4448 23.1734 23.4661 23.1944 23.4851C23.144 23.5211 23.1181 23.4918 23.0869 23.479C23.0558 23.4661 23.0218 23.4582 22.9847 23.4468C22.879 23.3014 22.7218 23.197 22.5299 23.1216C22.5428 23.1397 22.553 23.1599 22.5691 23.1757C22.6045 23.2099 22.6395 23.2453 22.6808 23.2737C22.7396 23.314 22.7638 23.3634 22.7582 23.4363C22.7372 23.4187 22.7232 23.4053 22.7071 23.3939C22.6489 23.3518 22.5999 23.302 22.5236 23.2766C22.4791 23.2617 22.4434 23.2257 22.4087 23.1953C22.3793 23.1693 22.3545 23.1646 22.3247 23.1909C22.2894 23.159 22.2564 23.1266 22.22 23.0979C22.1959 23.0786 22.1686 23.0546 22.1385 23.0496C22.0625 23.0374 22.0152 22.9947 21.9634 22.9543C21.8794 22.8891 21.7939 22.825 21.7106 22.7592C21.6623 22.7209 21.6168 22.6797 21.5698 22.6402C21.4561 22.5437 21.3419 22.4472 21.2278 22.351C21.2187 22.3434 21.2071 22.3372 21.1956 22.3293C21.177 22.339 21.1606 22.3475 21.1448 22.3556C21.1455 22.363 21.1441 22.3691 21.1469 22.3735C21.1784 22.4223 21.2337 22.456 21.2523 22.5156C21.2617 22.546 21.3192 22.5861 21.3556 22.5867C21.4147 22.5873 21.4396 22.6151 21.4725 22.6417C21.6301 22.7698 21.788 22.8973 21.9445 23.026C21.9798 23.0549 22.0159 23.0818 22.0166 23.1324C22.0166 23.1555 22.0558 23.1827 22.0842 23.2C22.2179 23.2816 22.3541 23.3599 22.4889 23.4404C22.5124 23.4544 22.5316 23.4728 22.553 23.4895L22.5421 23.5059C22.4749 23.4872 22.4073 23.4696 22.3408 23.4494C22.2732 23.4287 22.2071 23.4053 22.1406 23.3828C22.1363 23.3883 22.1325 23.3942 22.1283 23.3997C22.1759 23.4409 22.226 23.4804 22.2711 23.5237C22.3132 23.5641 22.3499 23.6079 22.3916 23.6533C22.3307 23.6667 22.2834 23.646 22.2344 23.627C22.1675 23.6009 22.0978 23.5793 22.0306 23.5535C22.0047 23.5436 21.9798 23.5293 21.9581 23.5135C21.9126 23.4804 21.8692 23.4453 21.8251 23.4108C21.809 23.3983 21.7929 23.3851 21.7771 23.3725C21.7603 23.3591 21.7456 23.3412 21.7257 23.3324C21.6479 23.2982 21.5744 23.2602 21.5138 23.2061C21.5044 23.1976 21.4865 23.1953 21.4729 23.1903C21.4676 23.1944 21.4624 23.1988 21.4575 23.2029C21.4764 23.2239 21.4935 23.2462 21.5142 23.2658C21.6052 23.3529 21.6983 23.4389 21.7887 23.5266C21.8279 23.5644 21.865 23.6003 21.8524 23.6609C21.8412 23.7138 21.9035 23.741 21.9508 23.7559C22.0194 23.7776 22.045 23.8279 22.1055 23.872C22.0418 23.8641 21.9977 23.8586 21.9658 23.8548C21.7733 23.7384 21.5884 23.6264 21.4021 23.5158C21.3916 23.5097 21.3713 23.5149 21.3325 23.5149C21.3608 23.5436 21.3738 23.5614 21.392 23.5737C21.476 23.6305 21.5628 23.6846 21.6462 23.7425C21.6752 23.7627 21.6966 23.7907 21.7288 23.8223C21.6462 23.8428 21.6 23.8124 21.5586 23.7805C21.3545 23.6231 21.1329 23.4842 20.9057 23.3515C20.8934 23.3441 20.8766 23.3421 20.8514 23.3342C20.8535 23.3997 20.9288 23.4091 20.9501 23.4497C20.9704 23.4889 20.9879 23.5293 21.0121 23.581C21.0384 23.5553 21.052 23.5418 21.0629 23.531C21.1521 23.591 21.2411 23.6506 21.33 23.7103C21.2624 23.7185 21.218 23.689 21.1718 23.6623C21.1528 23.6515 21.1259 23.6302 21.1136 23.6348C21.0478 23.6594 21.0219 23.6176 20.9879 23.5889C20.9417 23.55 20.752 23.4626 20.6658 23.448C20.7008 23.4766 20.7197 23.5003 20.7464 23.5129C20.8787 23.5755 20.9386 23.689 21.0254 23.7837C21.0398 23.7992 21.045 23.8214 21.0618 23.834C21.1189 23.8773 21.1273 23.9296 21.1091 23.9995C21.0573 23.9691 21.0079 23.9428 20.962 23.913C20.8339 23.8299 20.7071 23.7457 20.5797 23.662C20.4365 23.5676 20.2915 23.4749 20.1504 23.3784C19.9253 23.2248 19.6991 23.0722 19.4803 22.9125C19.3024 22.7826 19.1351 22.6431 18.9635 22.5077C18.9464 22.4943 18.9275 22.4802 18.917 22.4633C18.89 22.42 18.8501 22.391 18.8042 22.3603C18.7048 22.2937 18.6165 22.2156 18.5266 22.1395C18.4124 22.043 18.3011 21.9445 18.1894 21.8462C18.1152 21.7807 18.0423 21.714 17.9681 21.6485C17.7917 21.4926 17.6103 21.3402 17.4394 21.1806C17.2255 20.9805 17.021 20.7738 16.8113 20.5708C16.7227 20.4851 16.631 20.4021 16.5417 20.3169C16.5063 20.2833 16.4741 20.2473 16.4332 20.2049C16.485 20.2196 16.5638 20.2713 16.6012 20.3105C16.6054 20.3149 16.6061 20.3225 16.611 20.3251C16.6814 20.3626 16.7182 20.4243 16.77 20.4752C16.8218 20.5261 16.8862 20.5682 16.9447 20.615C16.9591 20.6264 16.9773 20.6384 16.9836 20.653C17.0189 20.739 17.0914 20.798 17.1747 20.8524C17.2111 20.8764 17.2399 20.91 17.2675 20.9419C17.3032 20.9829 17.3354 21.0238 17.4002 21.0396C17.4219 21.0449 17.4475 21.07 17.451 21.089C17.4653 21.1613 17.534 21.1975 17.5896 21.2388C17.6555 21.2873 17.7111 21.3394 17.7622 21.3996C17.8176 21.4645 17.8841 21.5245 17.9667 21.5725C18.0283 21.6081 18.0711 21.6663 18.1218 21.7152C18.2902 21.8772 18.4698 22.0301 18.6631 22.172C18.945 22.3788 19.2254 22.5873 19.5062 22.7949C19.5164 22.8022 19.5328 22.8101 19.5335 22.8186C19.5395 22.8926 19.6176 22.918 19.6708 22.9566C19.814 23.0602 19.9621 23.1587 20.1095 23.2582C20.1462 23.283 20.1855 23.3055 20.2261 23.3257C20.2404 23.333 20.2618 23.3304 20.2852 23.333C20.2814 23.2582 20.197 23.2383 20.1497 23.171C20.1893 23.1818 20.2103 23.1833 20.225 23.1921C20.3083 23.2403 20.3899 23.2909 20.4729 23.3395C20.4904 23.3497 20.5118 23.3558 20.5391 23.3667C20.5156 23.3155 20.1883 23.0628 20.0153 22.9584C19.9992 22.9487 19.9771 22.9464 19.9379 22.9347C19.9873 23.0283 20.0703 23.0766 20.1235 23.1447C19.9176 23.0341 19.7541 22.8844 19.5692 22.7551C19.5738 22.7496 19.578 22.744 19.5825 22.7385C19.6466 22.7695 19.7103 22.8008 19.7744 22.8318C19.779 22.8277 19.7839 22.8236 19.7884 22.8195C19.7839 22.8113 19.7818 22.8011 19.7744 22.7955C19.7191 22.7543 19.6596 22.7177 19.6473 22.6487C19.6442 22.63 19.6155 22.6136 19.5969 22.5978C19.5034 22.5171 19.3935 22.4484 19.3322 22.3437C19.321 22.3244 19.2993 22.3056 19.2769 22.2951C19.1403 22.2314 19.057 22.1214 18.9481 22.0342C18.9285 22.0187 18.9092 22.0029 18.8889 21.988C18.8844 21.9848 18.8728 21.9813 18.8714 21.9828C18.8319 22.0231 18.7674 21.9477 18.7289 22.0196C18.7282 22.0281 18.7258 22.0524 18.7237 22.0766L18.7244 22.0755L18.723 22.0752ZM9.24476 12.2999C9.23775 12.2999 9.2318 12.2996 9.23145 12.2999C9.21534 12.3891 9.15127 12.4523 9.07705 12.514C9.03748 12.5467 9.00632 12.5938 8.99442 12.6386C8.98986 12.6564 9.00597 12.6862 8.98251 12.7035C8.9629 12.7178 8.93454 12.7237 8.90969 12.733C8.91214 12.7453 8.91459 12.7576 8.91669 12.7675C8.83721 12.769 8.82566 12.8205 8.7987 12.8553C8.81725 12.8778 8.83231 12.8962 8.84771 12.9149C8.90829 12.8772 9.27347 12.4856 9.32633 12.3999C9.29972 12.3677 9.27171 12.3332 9.2444 12.2999H9.24476ZM5.45921 3.67423C5.4508 3.66458 5.4417 3.6523 5.4305 3.64206C5.2992 3.52069 5.16615 3.40079 5.03731 3.27737C5.00264 3.24432 4.97463 3.20338 4.95608 3.16214C4.93122 3.10745 4.88185 3.08084 4.81988 3.05978C4.8787 3.19841 4.99529 3.30662 5.09718 3.42184C5.20256 3.54116 5.31355 3.65698 5.42559 3.77805C5.43855 3.73828 5.44835 3.70728 5.45921 3.67394V3.67423ZM5.50682 3.97604C5.53483 4.02284 5.55689 4.06934 5.58875 4.11057C5.61956 4.15035 5.65738 4.18749 5.69799 4.22054C5.73721 4.25241 5.75331 4.30827 5.83454 4.3188C5.82018 4.29102 5.81213 4.27347 5.80198 4.2568C5.76557 4.19655 5.72705 4.13748 5.69239 4.07665C5.67348 4.04419 5.66543 4.00675 5.64407 3.97604C5.60696 3.92282 5.58595 3.92282 5.50682 3.97604ZM21.5649 2.72785C21.4732 2.77201 21.427 2.83459 21.3745 2.88899C21.2673 3.00042 21.1676 3.11681 21.065 3.23145C21.0636 3.23292 21.0664 3.23672 21.0671 3.23994C21.0961 3.2414 21.1255 3.24286 21.1567 3.24461C21.2362 3.14196 21.3129 3.0399 21.393 2.94017C21.4207 2.90595 21.4512 2.86998 21.4904 2.84629C21.5355 2.81851 21.552 2.78488 21.5646 2.72843L21.5649 2.72785ZM20.6714 3.58152C20.7551 3.52654 20.8405 3.47331 20.9221 3.41599C20.9645 3.38616 20.9578 3.37212 20.899 3.33645C20.7996 3.37768 20.7229 3.45401 20.6714 3.58152ZM20.4319 22.6037C20.3875 22.5256 20.1623 22.3478 20.0881 22.3258C20.1315 22.4147 20.3017 22.5554 20.4319 22.6037ZM14.4347 6.28293C14.4445 6.28848 14.4543 6.29404 14.4641 6.2993C14.5169 6.23935 14.5695 6.1794 14.6234 6.11827C14.6412 6.12325 14.6584 6.12793 14.6804 6.13377C14.6958 6.10892 14.7095 6.08698 14.7288 6.0554C14.7007 6.06709 14.6871 6.07294 14.6594 6.08435C14.6825 6.02206 14.7431 5.98579 14.7347 5.92379C14.6346 6.04341 14.5344 6.16302 14.4347 6.28263V6.28293ZM1.3834 1.66711C1.33369 1.5592 1.17193 1.39308 1.104 1.37378C1.13236 1.43286 1.31128 1.625 1.3834 1.66711ZM3.64801 22.9944C3.75095 22.9063 3.85283 22.7774 3.86124 22.7285C3.78701 22.7774 3.66727 22.9213 3.64801 22.9944ZM9.29062 12.1914C9.24335 12.2616 9.26716 12.3025 9.38165 12.3631C9.41737 12.2809 9.32773 12.2525 9.29062 12.1914ZM20.8671 22.06C20.8608 22.0138 20.8367 21.9834 20.7975 21.9661C20.7653 21.9518 20.7555 21.9006 20.698 21.9181C20.7415 22.017 20.7789 22.0495 20.8668 22.06H20.8671ZM14.7771 11.8568C14.824 11.8913 14.8671 11.9232 14.9276 11.968C14.9164 11.8872 14.8632 11.8524 14.8233 11.803C14.8054 11.8235 14.7925 11.8387 14.7771 11.8568ZM17.146 3.45021C17.235 3.38207 17.3239 3.31334 17.3866 3.22502C17.2913 3.28819 17.2115 3.36364 17.146 3.45021ZM22.8023 22.081C22.7743 21.9845 22.7365 21.9471 22.6524 21.9412C22.7029 21.9918 22.7169 22.0573 22.8023 22.081ZM21.9704 0.330889C22.0572 0.287606 22.1514 0.179398 22.1609 0.110963C22.0891 0.188464 22.0198 0.253681 21.9704 0.330889ZM9.5224 12.0408C9.54341 12.0671 9.56302 12.0922 9.58543 12.1209C9.60503 12.0996 9.62429 12.0782 9.64635 12.0545C9.61939 12.0294 9.59803 12.0089 9.57422 11.9867C9.55882 11.9972 9.54691 12.003 9.53921 12.0112C9.53151 12.0197 9.52766 12.0311 9.5224 12.0408ZM22.7319 22.525C22.7298 22.5773 22.7529 22.6142 22.7963 22.6203C22.8384 22.6262 22.8569 22.6077 22.8594 22.575C22.8135 22.5569 22.7725 22.5408 22.7319 22.5247V22.525ZM22.7011 22.7279C22.7428 22.7534 22.7648 22.7704 22.7907 22.7812C22.8019 22.7859 22.8275 22.7823 22.8345 22.7747C22.8422 22.7665 22.8422 22.7464 22.8352 22.7364C22.8054 22.6931 22.7648 22.7081 22.7011 22.7279ZM21.5061 22.4884C21.5121 22.484 21.518 22.4794 21.524 22.475C21.5019 22.4019 21.4666 22.3744 21.3647 22.3641C21.4186 22.4115 21.4624 22.4501 21.5061 22.4887V22.4884ZM9.40686 12.0323C9.40371 12.0396 9.39566 12.0501 9.39881 12.0536C9.43662 12.0972 9.47654 12.1399 9.52836 12.1967C9.54516 12.099 9.44223 12.0858 9.40686 12.0323ZM22.5604 22.6689C22.5173 22.5937 22.4354 22.5981 22.3793 22.556C22.387 22.5901 22.4474 22.6277 22.5604 22.6689ZM14.8271 12.0297C14.8107 11.977 14.7739 11.9372 14.7109 11.896C14.7193 11.9718 14.769 12.0033 14.8271 12.0297ZM19.9019 22.172C19.9201 22.227 19.9642 22.258 20.0426 22.2787C20.0072 22.2182 19.9663 22.1849 19.9019 22.172ZM19.779 22.0287C19.773 22.0331 19.7671 22.0372 19.7611 22.0416C19.7702 22.0819 19.8015 22.1033 19.8549 22.1056C19.8245 22.0749 19.8017 22.0518 19.779 22.0287ZM13.343 16.3916C13.3521 16.389 13.3608 16.3861 13.3699 16.3834C13.385 16.3407 13.3479 16.3264 13.2953 16.3197C13.3115 16.3437 13.3272 16.3676 13.343 16.3916ZM14.3513 17.4108C14.3422 17.352 14.3181 17.3286 14.2648 17.3169C14.2655 17.3637 14.3023 17.3787 14.3513 17.4108ZM14.8653 11.5497C14.8166 11.5553 14.7806 11.5456 14.7722 11.5854C14.7708 11.5919 14.7785 11.6044 14.7851 11.6062C14.8285 11.6173 14.8422 11.5924 14.865 11.5497H14.8653ZM14.7358 11.6802C14.7277 11.6749 14.7197 11.6699 14.7116 11.665C14.6916 11.684 14.6636 11.6992 14.678 11.7515C14.7039 11.7197 14.7197 11.7001 14.7358 11.6802ZM15.9784 4.66039C15.97 4.65483 15.9612 4.64927 15.9528 4.64372C15.9437 4.67764 15.8933 4.69022 15.8968 4.75076C15.9318 4.71186 15.9549 4.68612 15.9784 4.66039ZM15.2834 5.38831C15.2897 5.3924 15.296 5.3965 15.3023 5.40088C15.3156 5.38655 15.3299 5.37251 15.3418 5.35701C15.3439 5.35438 15.3355 5.3459 15.3261 5.33128C15.3086 5.35497 15.296 5.37164 15.2834 5.38831ZM16.2735 4.34863C16.2679 4.34454 16.2623 4.34015 16.2571 4.33606C16.2374 4.35565 16.2182 4.37524 16.1986 4.39455C16.2038 4.39806 16.2087 4.40186 16.214 4.40537C16.2339 4.38636 16.2539 4.36735 16.2735 4.34834V4.34863ZM17.7185 8.57021C17.7122 8.56612 17.7062 8.56203 17.6999 8.55793C17.6845 8.57606 17.6695 8.5939 17.6541 8.61204C17.6586 8.61496 17.6632 8.61788 17.6681 8.62081C17.6849 8.60385 17.7017 8.58688 17.7185 8.57021ZM14.4147 6.39962C14.4214 6.404 14.4277 6.40839 14.4343 6.41278C14.4434 6.39962 14.4529 6.38646 14.4623 6.37359C14.4585 6.37096 14.4543 6.36862 14.4504 6.36598C14.4385 6.3771 14.4266 6.3885 14.415 6.39962H14.4147ZM14.9812 5.76119C14.9731 5.75563 14.9651 5.74978 14.957 5.74422C14.9511 5.75417 14.9434 5.76353 14.9395 5.77406C14.936 5.78341 14.936 5.79394 14.9346 5.80418C14.9392 5.80506 14.9437 5.80593 14.9479 5.80681C14.9588 5.7916 14.97 5.77639 14.9808 5.76119H14.9812ZM15.0012 5.72434C15.0057 5.72697 15.0106 5.7296 15.0152 5.73223C15.0295 5.71556 15.0439 5.69889 15.0582 5.68222C15.0526 5.67901 15.047 5.67579 15.0411 5.67257C15.0278 5.68983 15.0145 5.70708 15.0012 5.72434Z" fill="#282525" />
		<path d="M15.375 19.1003C15.4296 19.1234 15.4587 19.0889 15.4898 19.0576C15.6814 19.2463 15.8673 19.4296 16.0707 19.6302C16.0157 19.618 15.9839 19.6109 15.9447 19.6022V19.6902C15.7465 19.4846 15.5606 19.2925 15.375 19.1003Z" fill="#282525" />
		<path d="M12.2876 15.7003C12.3209 15.6836 12.3517 15.6681 12.3919 15.6479C12.4774 15.7412 12.5624 15.838 12.6521 15.9316C12.7389 16.0223 12.8306 16.1094 12.9203 16.1981C12.9157 16.2027 12.9112 16.2077 12.907 16.2124C12.8776 16.2045 12.8481 16.1966 12.8103 16.1867V16.2756C12.6265 16.0732 12.4546 15.884 12.2876 15.7V15.7003Z" fill="#282525" />
		<path d="M5.82773 7.97969C5.81513 7.97969 5.79552 7.98466 5.79097 7.97969C5.7381 7.92178 5.68768 7.86241 5.63692 7.80334C5.58019 7.73724 5.52628 7.66939 5.4657 7.60593C5.35857 7.49392 5.24197 7.38893 5.15129 7.26522C5.08827 7.17924 5.00494 7.10349 4.92861 7.02453C4.83968 6.93241 4.74865 6.84175 4.65902 6.74991C4.65096 6.74173 4.64676 6.73061 4.62891 6.70166C4.66287 6.71921 4.67932 6.72389 4.68948 6.73325C4.92756 6.95259 5.14849 7.18304 5.35156 7.42607C5.4419 7.53428 5.54693 7.63371 5.63972 7.74075C5.70694 7.81796 5.76506 7.90072 5.82738 7.98086L5.82808 7.97998L5.82773 7.97969Z" fill="#282525" />
		<path d="M19.4068 22.6374C19.2178 22.4906 19.0476 22.359 18.8774 22.2271C18.8802 22.2222 18.883 22.2169 18.8855 22.2119C18.9251 22.2189 18.965 22.2254 19.0042 22.2333C19.0332 22.2391 19.0613 22.2482 19.0903 22.2526C19.1341 22.2596 19.1705 22.2783 19.1799 22.3128C19.1922 22.357 19.229 22.3728 19.2675 22.3967C19.3179 22.428 19.3624 22.4707 19.3942 22.5161C19.4128 22.5421 19.4019 22.5827 19.4058 22.6371L19.4068 22.6374Z" fill="#282525" />
		<path d="M8.95102 18.1941C8.89675 18.2465 8.84038 18.2976 8.78857 18.3515C8.75075 18.3906 8.71854 18.4339 8.68353 18.4752C8.53332 18.6518 8.38172 18.8276 8.23292 19.0051C8.16324 19.0882 8.10022 19.175 8.033 19.2595C8.02109 19.2744 8.00429 19.2864 7.97803 19.3104C8.0442 19.1423 8.81202 18.2412 8.93387 18.1807C8.93947 18.1851 8.94542 18.1894 8.95102 18.1938V18.1941Z" fill="#282525" />
		<path d="M22.6429 20.3754C22.6191 20.3409 22.6041 20.3099 22.5796 20.2851C22.5449 20.2506 22.5386 20.2169 22.5631 20.1777C22.6633 20.25 23.1499 20.8141 23.213 20.9384C23.1814 20.9206 23.1604 20.9141 23.1499 20.9019C23.0522 20.7872 22.9567 20.6714 22.8597 20.5562C22.8247 20.5149 22.7914 20.4717 22.7494 20.436C22.7175 20.4088 22.6731 20.3918 22.6433 20.3751L22.6429 20.3754Z" fill="#282525" />
		<path d="M7.21173 9.8271C6.94493 9.47996 6.68724 9.14422 6.4292 8.80848C6.4313 8.80585 6.43375 8.80322 6.43585 8.80029C6.44916 8.8079 6.46596 8.81316 6.47507 8.8234C6.61371 8.97928 6.74991 9.13632 6.86405 9.30653C6.92323 9.39456 6.9978 9.47557 7.06748 9.55863C7.09829 9.59548 7.20333 9.7768 7.21208 9.82681L7.21173 9.8271Z" fill="#282525" />
		<path d="M13.1426 16.9336C13.2312 16.9637 13.2837 17.0237 13.3421 17.0798C13.3716 17.1082 13.3908 17.1567 13.4591 17.1351C13.4682 17.1322 13.4917 17.1515 13.5025 17.164C13.569 17.2421 13.6338 17.3211 13.6989 17.4001C13.7224 17.4287 13.7455 17.4577 13.7791 17.4992C13.7483 17.4931 13.7325 17.4939 13.7259 17.4878C13.5309 17.3035 13.3372 17.1184 13.1429 16.9336H13.1426Z" fill="#282525" />
		<path d="M20.4966 18.1349C20.5558 18.124 20.5775 18.1656 20.6083 18.1925C20.6685 18.2454 20.7256 18.3007 20.7861 18.353C20.8019 18.3665 20.826 18.3808 20.8467 18.3808C20.9269 18.3808 20.9545 18.4288 20.9787 18.4841C20.9542 18.4671 20.9297 18.4501 20.8982 18.4282C20.8856 18.4829 20.9475 18.5112 20.9472 18.5671C20.7665 18.4346 20.6377 18.2799 20.4987 18.1328L20.4966 18.1346V18.1349Z" fill="#282525" />
		<path d="M21.1357 18.7865C21.1718 18.7687 21.1998 18.7549 21.2366 18.7368C21.3266 18.8538 21.4803 18.931 21.5657 19.0822C21.4715 19.0436 21.4333 18.986 21.3854 18.936C21.3381 18.8863 21.2887 18.8383 21.2341 18.7927C21.2422 18.8643 21.3126 18.9076 21.3483 18.9673C21.253 18.9298 21.2065 18.8544 21.1361 18.7868L21.1357 18.7865Z" fill="#282525" />
		<path d="M19.9248 17.5503C20.0421 17.5699 20.0803 17.6907 20.2102 17.6854C20.1933 17.7047 20.1821 17.7176 20.1699 17.7313C20.2228 17.793 20.2742 17.8533 20.326 17.9135C20.2546 17.8969 19.9686 17.6278 19.9248 17.5503Z" fill="#282525" />
		<path d="M5.82687 7.98033C5.84228 7.997 5.85593 8.01543 5.87379 8.03034C5.92106 8.07012 5.96937 8.10697 5.99563 8.16224C6.01069 8.19412 6.04885 8.21868 6.07651 8.24647C6.11923 8.28975 6.16334 8.33245 6.20431 8.3769C6.22146 8.39533 6.23302 8.41755 6.24702 8.43802C6.24002 8.4427 6.23267 8.44709 6.22531 8.45177C6.16264 8.39737 6.09367 8.34707 6.03905 8.28741C5.96762 8.20962 5.90565 8.12539 5.84298 8.04233C5.83037 8.02566 5.83177 8.00139 5.82687 7.98004C5.82687 7.97975 5.82617 7.98063 5.82617 7.98063L5.82687 7.98033Z" fill="#282525" />
		<path d="M8.97026 11.4073C8.77559 11.2757 8.76719 11.2657 8.70557 11.0908C8.78434 11.1338 8.8134 11.1941 8.85892 11.2403C8.90514 11.2868 8.97691 11.3233 8.97026 11.4073Z" fill="#282525" />
		<path d="M8.9751 18.1393C8.9912 18.0844 9.01851 18.0393 9.06718 18.0007C9.10744 17.9688 9.12985 17.9221 9.16382 17.8837C9.20198 17.8408 9.22509 17.7864 9.30562 17.7466C9.22614 17.9124 9.11025 18.032 8.9751 18.1393Z" fill="#282525" />
		<path d="M14.1092 17.8315C14.1222 17.8377 14.1386 17.8412 14.1477 17.8503C14.2755 17.9728 14.4023 18.0959 14.5231 18.2243C14.4534 18.2062 14.4215 18.1532 14.3757 18.1138C14.3242 18.0693 14.2741 18.0234 14.2255 17.9766C14.1806 17.9333 14.1386 17.888 14.0952 17.8438C14.1001 17.8397 14.1047 17.8356 14.1092 17.8315Z" fill="#282525" />
		<path d="M12.2547 15.2915C12.3089 15.3377 12.3597 15.3868 12.4182 15.429C12.4791 15.4728 12.5169 15.5263 12.5414 15.5872C12.4833 15.5723 12.3187 15.4199 12.2393 15.3058C12.2445 15.3012 12.2494 15.2962 12.2547 15.2915Z" fill="#282525" />
		<path d="M11.4257 16.0867C11.4257 16.0946 11.4289 16.1037 11.4254 16.1101C11.3568 16.2379 11.2878 16.3657 11.2181 16.4932C11.2164 16.4964 11.2066 16.4964 11.1831 16.5026C11.2433 16.3493 11.3344 16.2183 11.4065 16.0806C11.4131 16.0826 11.4194 16.0844 11.4261 16.0864L11.4257 16.0867Z" fill="#282525" />
		<path d="M16.6442 20.5425C16.7275 20.6375 16.8112 20.7326 16.904 20.8382C16.8059 20.8229 16.772 20.7858 16.6284 20.5548C16.6337 20.5507 16.6389 20.5466 16.6442 20.5425Z" fill="#282525" />
		<path d="M11.812 15.1572C11.8991 15.2292 11.9716 15.3105 12.0122 15.4122C11.938 15.333 11.8638 15.2534 11.7896 15.1742C11.7969 15.1686 11.8046 15.1628 11.812 15.1572Z" fill="#282525" />
		<path d="M18.1713 21.6377C18.2728 21.6547 18.3278 21.714 18.3716 21.7836C18.3667 21.7883 18.3618 21.793 18.3569 21.7974C18.29 21.7494 18.2231 21.7014 18.1562 21.6535C18.1612 21.6482 18.1661 21.643 18.171 21.6377H18.1713Z" fill="#282525" />
		<path d="M15.0857 18.3825C15.0244 18.3345 14.9631 18.2862 14.9019 18.2383C15.0146 18.2392 15.0587 18.3029 15.1025 18.3664C15.0969 18.3716 15.0913 18.3772 15.0857 18.3825Z" fill="#282525" />
		<path d="M15.0622 18.7688C15.0348 18.7495 15.0037 18.7325 14.9806 18.7103C14.9393 18.6705 14.9021 18.6275 14.8633 18.586C14.871 18.5813 14.879 18.5749 14.8804 18.5758C14.9606 18.6275 15.0373 18.6819 15.0601 18.7708L15.0625 18.7691L15.0622 18.7688Z" fill="#282525" />
		<path d="M14.0177 17.7377C13.9011 17.6939 13.8251 17.6199 13.8052 17.543C13.8836 17.6149 13.9508 17.6763 14.0177 17.7377Z" fill="#282525" />
		<path d="M13.2018 16.6881C13.1387 16.6911 13.1258 16.6381 13.0869 16.6174C13.0726 16.6098 13.0754 16.5796 13.0684 16.5527C13.1664 16.5937 13.1751 16.6027 13.2018 16.6881Z" fill="#282525" />
		<path d="M17.9272 21.3115C18.0232 21.3563 18.1006 21.3957 18.1611 21.4791C18.0592 21.4545 18.0113 21.3931 17.9451 21.3554C17.9363 21.3504 17.9363 21.3346 17.9276 21.3115H17.9272Z" fill="#282525" />
		<path d="M9.97685 16.9683C9.96249 17.0674 9.86271 17.1247 9.81299 17.2063C9.84905 17.1177 9.89912 17.0364 9.97685 16.9683Z" fill="#282525" />
		<path d="M16.352 20.0991C16.2869 20.0751 16.233 20.0424 16.2158 19.9722C16.3086 19.9842 16.3363 20.0368 16.352 20.0991Z" fill="#282525" />
		<path d="M22.2462 19.7052C22.2336 19.7323 22.239 19.7632 22.2623 19.7979C22.1643 19.7739 22.157 19.7672 22.1562 19.6929C22.1867 19.697 22.2161 19.7011 22.2459 19.7052H22.2462Z" fill="#282525" />
		<path d="M14.2969 17.5859C14.2534 17.5359 14.21 17.4859 14.1558 17.4233C14.2447 17.452 14.2671 17.4772 14.2969 17.5859Z" fill="#282525" />
		<path d="M16.6598 3.95106L16.6636 3.94814C16.637 3.95632 16.6101 3.96451 16.5835 3.9727C16.5796 3.97007 16.5758 3.96744 16.5723 3.9651C16.6157 3.92065 16.6594 3.87619 16.7032 3.83203C16.7081 3.83408 16.713 3.83613 16.7176 3.83817C16.6983 3.8759 16.6791 3.91363 16.6601 3.95106H16.6598Z" fill="#282525" />
		<path d="M23.4546 21.241C23.4021 21.2053 23.3499 21.1699 23.3408 21.0933C23.407 21.1389 23.427 21.1927 23.4546 21.241Z" fill="#282525" />
		<path d="M20.5018 18.0064C20.4521 17.9546 20.4027 17.9028 20.353 17.8511C20.4101 17.8634 20.4934 17.9461 20.5018 18.0064Z" fill="#282525" />
		<path d="M20.4985 18.133C20.4569 18.0918 20.4152 18.0505 20.3735 18.0093C20.4513 18.0283 20.4978 18.0666 20.4968 18.1344L20.4985 18.133Z" fill="#282525" />
		<path d="M22.4559 20.0749C22.4093 20.0603 22.3753 20.0378 22.3957 19.9805C22.423 20.0068 22.4503 20.0334 22.4772 20.06C22.4702 20.065 22.4629 20.07 22.4559 20.0749Z" fill="#282525" />
		<path d="M15.9717 19.7271C16.0219 19.7423 16.0477 19.7676 16.0491 19.8031C16.0231 19.7776 15.9976 19.7522 15.9717 19.7271Z" fill="#282525" />
		<path d="M15.5642 5.06697C15.5614 5.0541 15.5509 5.03656 15.5572 5.02895C15.5831 4.99766 15.6142 4.96929 15.6503 4.94385C15.6461 4.99707 15.5925 5.02632 15.5635 5.06697H15.5642Z" fill="#282525" />
		<path d="M6.35944 8.73135C6.32968 8.70065 6.30027 8.66994 6.27051 8.63894C6.27821 8.63397 6.28556 8.629 6.29327 8.62402C6.32163 8.65561 6.35034 8.6869 6.3787 8.71849C6.37239 8.72258 6.36609 8.72697 6.35944 8.73106V8.73135Z" fill="#282525" />
		<path d="M7.37706 9.72534C7.34414 9.69726 7.31123 9.66919 7.27832 9.64111C7.3592 9.65193 7.36305 9.65632 7.37495 9.72709L7.37741 9.72534H7.37706Z" fill="#282525" />
		<path d="M21.8625 19.4188C21.8463 19.403 21.8267 19.3884 21.8152 19.3705C21.8103 19.3626 21.8215 19.3471 21.8253 19.3354C21.84 19.3428 21.8625 19.3471 21.8681 19.3577C21.8768 19.3741 21.8744 19.3945 21.8768 19.4132C21.8719 19.415 21.867 19.417 21.8621 19.4191L21.8625 19.4188Z" fill="#282525" />
		<path d="M22.3758 19.9329C22.3172 19.9245 22.2943 19.9008 22.3072 19.8618C22.331 19.8864 22.3488 19.9051 22.3758 19.9329Z" fill="#282525" />
		<path d="M15.6587 4.80566C15.6825 4.85801 15.6356 4.86766 15.5978 4.89252C15.5859 4.84222 15.6164 4.8238 15.6587 4.80566Z" fill="#282525" />
		<path d="M12.8389 16.313C12.8882 16.3206 12.9225 16.3384 12.9288 16.3747C12.9225 16.3788 12.9162 16.3829 12.9099 16.3873C12.8861 16.3624 12.8627 16.3378 12.8389 16.313Z" fill="#282525" />
		<path d="M23.189 23.0693C23.2404 23.0758 23.2495 23.1012 23.2576 23.1404C23.211 23.1269 23.1886 23.1103 23.189 23.0693Z" fill="#282525" />
		<path d="M22.792 23.4731C22.8379 23.4767 22.8627 23.4787 22.8907 23.481C22.8893 23.4924 22.8921 23.503 22.8872 23.5062C22.8494 23.5328 22.8249 23.5191 22.792 23.4731Z" fill="#282525" />
		<path d="M15.3546 5.252C15.3861 5.22334 15.4172 5.19468 15.4487 5.16602C15.4533 5.16894 15.4579 5.17216 15.4624 5.17508C15.4382 5.2017 15.4148 5.22919 15.3885 5.25404C15.3843 5.25814 15.3658 5.252 15.3535 5.25024C15.3535 5.24995 15.3546 5.25171 15.3546 5.25171V5.252Z" fill="#282525" />
		<path d="M14.7192 18.4124C14.7405 18.432 14.7619 18.4516 14.7832 18.4709C14.7321 18.4788 14.722 18.4487 14.6992 18.4308C14.7059 18.4247 14.7125 18.4185 14.7195 18.4121L14.7192 18.4124Z" fill="#282525" />
		<path d="M12.8601 16.6779C12.8402 16.6565 12.8202 16.6355 12.7915 16.6045C12.8286 16.6276 12.8545 16.644 12.8804 16.6604C12.8738 16.6662 12.8668 16.672 12.8601 16.6779Z" fill="#282525" />
		<path d="M10.2639 16.665C10.2443 16.6896 10.2247 16.7141 10.1932 16.7539C10.1848 16.6922 10.2184 16.6738 10.2454 16.6519C10.2517 16.6562 10.258 16.6606 10.2643 16.6647L10.2639 16.665Z" fill="#282525" />
		<path d="M23.0846 22.9438C23.1021 22.9593 23.1193 22.9746 23.1469 22.9991C23.0853 23.0056 23.0667 22.9903 23.0846 22.9438Z" fill="#282525" />
		<path d="M15.5643 5.06727C15.5384 5.08833 15.5125 5.10968 15.4866 5.13073C15.4831 5.12956 15.4796 5.12839 15.4761 5.12752C15.4873 5.10471 15.4985 5.08219 15.5097 5.05908C15.5324 5.06259 15.5482 5.06493 15.5643 5.06727Z" fill="#282525" />
		<path d="M12.6085 8.43885C12.5893 8.45581 12.57 8.47248 12.5508 8.48915C12.5462 8.48564 12.5417 8.48184 12.5371 8.47804C12.5564 8.46137 12.576 8.4444 12.5952 8.42773C12.5998 8.43154 12.604 8.43504 12.6085 8.43885Z" fill="#282525" />
		<path d="M20.6012 18.0576L20.653 18.1155C20.6086 18.1123 20.589 18.0945 20.583 18.0687C20.589 18.0652 20.5953 18.0614 20.6012 18.0576Z" fill="#282525" />
		<path d="M15.2406 18.9706C15.2154 18.9463 15.1996 18.9308 15.1821 18.9141C15.1926 18.9109 15.2 18.9065 15.2024 18.908C15.2157 18.9162 15.2297 18.9244 15.2399 18.9352C15.2445 18.9399 15.2406 18.9498 15.2406 18.9706Z" fill="#282525" />
		<path d="M11.8547 15.4283C11.8421 15.4479 11.8295 15.4678 11.8169 15.4874C11.8106 15.485 11.8043 15.4824 11.7983 15.4798C11.8099 15.4581 11.8214 15.4362 11.8334 15.4146C11.8407 15.4192 11.8477 15.4236 11.8551 15.428L11.8547 15.4283Z" fill="#282525" />
		<path d="M17.1693 3.3063C17.1668 3.27266 17.1661 3.23991 17.2291 3.24459C17.2186 3.25892 17.2127 3.26974 17.2039 3.27822C17.1938 3.28846 17.1808 3.29694 17.1693 3.3063Z" fill="#282525" />
		<path d="M23.2173 22.8241C23.2582 22.8229 23.2954 22.8259 23.3045 22.8814C23.2695 22.8578 23.2439 22.8405 23.2183 22.8232L23.2176 22.8244L23.2173 22.8241Z" fill="#282525" />
		<path d="M12.1338 15.5453C12.1205 15.531 12.1075 15.5167 12.0942 15.5023C12.097 15.4991 12.0998 15.4959 12.1026 15.4927C12.1142 15.4982 12.1275 15.5023 12.1363 15.5102C12.144 15.5169 12.1468 15.5278 12.1517 15.5368C12.1457 15.5398 12.1398 15.5427 12.1338 15.5456V15.5453Z" fill="#282525" />
		<path d="M22.7227 21.0265C22.7454 21.0399 22.7682 21.0534 22.7909 21.0665C22.7867 21.0709 22.7825 21.075 22.7783 21.0794C22.7521 21.068 22.7209 21.0607 22.7251 21.0244L22.7227 21.0265Z" fill="#282525" />
		<path d="M15.6978 4.8753C15.7135 4.85775 15.7293 4.8405 15.7447 4.82324C15.7503 4.82646 15.7555 4.82938 15.7611 4.8326C15.7475 4.85132 15.7342 4.87004 15.7205 4.88875C15.7128 4.88437 15.7051 4.87998 15.6978 4.87559V4.8753Z" fill="#282525" />
		<path d="M0.982208 1.67757C0.948246 1.68225 0.919536 1.68021 0.911133 1.63926C0.953848 1.63751 0.966803 1.65856 0.979757 1.67962L0.981858 1.67757H0.982208Z" fill="#282525" />
		<path d="M13.8389 17.0029C13.827 16.9915 13.8151 16.9798 13.8032 16.9684C13.8071 16.9652 13.8109 16.9617 13.8148 16.9585C13.8288 16.9687 13.8424 16.9787 13.8561 16.9889C13.8505 16.9936 13.8445 16.9983 13.8389 17.0029Z" fill="#282525" />
		<path d="M17.0085 20.3704C17.0215 20.3821 17.0348 20.3938 17.0477 20.4055C17.0439 20.409 17.0397 20.4125 17.0358 20.416C17.0211 20.4058 17.0064 20.3956 16.9917 20.3853C16.9973 20.3804 17.0029 20.3754 17.0085 20.3701V20.3704Z" fill="#282525" />
		<path d="M17.4465 20.9263C17.4332 20.9085 17.4196 20.8909 17.4038 20.8702C17.414 20.8667 17.4262 20.8596 17.4287 20.8617C17.4458 20.8746 17.4612 20.8895 17.477 20.9038C17.4668 20.9114 17.4563 20.9187 17.4462 20.9263H17.4465Z" fill="#282525" />
		<path d="M23.2183 22.8226C23.2019 22.7992 23.1854 22.7758 23.1689 22.7524C23.2187 22.7624 23.2309 22.7875 23.2176 22.8232C23.2176 22.8235 23.2183 22.8226 23.2183 22.8226Z" fill="#282525" />
		<path d="M18.7222 22.0766C18.7547 22.0628 18.7866 22.0535 18.8202 22.0824C18.7789 22.1205 18.7554 22.0684 18.7232 22.0751C18.7229 22.0754 18.7222 22.0766 18.7222 22.0766Z" fill="#282525" />
		<path d="M22.7859 22.3394C22.8031 22.3496 22.8199 22.3601 22.837 22.3704C22.8335 22.3753 22.8297 22.3803 22.8262 22.385C22.8083 22.3756 22.7908 22.3663 22.7729 22.3572C22.7772 22.3513 22.7817 22.3452 22.7859 22.3394Z" fill="#282525" />
		<path d="M15.0599 18.7711C15.0911 18.7772 15.1089 18.7927 15.1159 18.8269C15.0743 18.8153 15.0624 18.7959 15.062 18.769L15.0596 18.7708L15.0599 18.7711Z" fill="#282525" />
		<path d="M7.37451 9.72734C7.39937 9.73553 7.42458 9.74401 7.44944 9.7522C7.44594 9.75805 7.44244 9.76361 7.43893 9.76945C7.40462 9.77209 7.39447 9.74401 7.37696 9.72559L7.37451 9.72734Z" fill="#282525" />
		<path d="M8.3748 11.2568C8.38565 11.2703 8.39651 11.2837 8.40771 11.2972C8.40316 11.3004 8.39826 11.3036 8.39371 11.3068C8.38075 11.2949 8.36745 11.2829 8.35449 11.2706C8.36114 11.2659 8.36815 11.2615 8.3748 11.2568Z" fill="#282525" />
		<path d="M17.1198 21.0791C17.1278 21.092 17.1359 21.1045 17.1439 21.1174C17.1387 21.1198 17.1338 21.1221 17.1285 21.1241C17.1205 21.1116 17.1121 21.0987 17.104 21.0861C17.1093 21.0838 17.1145 21.0814 17.1201 21.0791H17.1198Z" fill="#282525" />
		<path d="M11.9803 15.5596C11.988 15.5707 11.9957 15.5815 12.0034 15.5926C11.9992 15.595 11.995 15.5973 11.9912 15.5999C11.9814 15.59 11.9712 15.58 11.9614 15.5701C11.9677 15.5666 11.974 15.5631 11.9803 15.5596Z" fill="#282525" />
		<path d="M8.26046 4.06682C8.24191 4.0753 8.23245 4.08261 8.22265 4.0832C8.216 4.08349 8.20164 4.07238 8.20269 4.06974C8.20619 4.06126 8.21425 4.04927 8.2223 4.0484C8.2314 4.04752 8.24191 4.05717 8.26081 4.06653L8.26046 4.06682Z" fill="#282525" />
		<path d="M13.0141 16.4827C13.0232 16.4924 13.032 16.5023 13.0411 16.512C13.0376 16.5143 13.0345 16.5166 13.0313 16.5187C13.0208 16.5087 13.0106 16.4988 13.0005 16.4889C13.005 16.4868 13.0096 16.4845 13.0145 16.4824L13.0141 16.4827Z" fill="#282525" />
		<path d="M21.1704 18.6572C21.1911 18.6789 21.2002 18.6885 21.2093 18.6982C21.2061 18.7011 21.203 18.7043 21.1998 18.7075C21.1921 18.7028 21.1823 18.6993 21.1771 18.6932C21.1729 18.6879 21.1743 18.6797 21.1704 18.6572Z" fill="#282525" />
		<path d="M17.5049 2.98618C17.5129 2.97623 17.521 2.96629 17.529 2.95605C17.5339 2.95839 17.5385 2.96073 17.5434 2.96307C17.5364 2.97477 17.5294 2.98618 17.5224 2.99788C17.5168 2.99378 17.5108 2.98998 17.5049 2.98588V2.98618Z" fill="#282525" />
		<path d="M21.4803 19.1191C21.4642 19.1083 21.4481 19.0972 21.4316 19.0864C21.4383 19.0805 21.4449 19.0747 21.4519 19.0688C21.4674 19.0805 21.4828 19.0922 21.4982 19.1036C21.4922 19.1089 21.4863 19.1139 21.4803 19.1191Z" fill="#282525" />
		<path d="M22.3754 23.7823C22.3621 23.7706 22.3488 23.7589 22.3354 23.7472C22.3397 23.7434 22.3435 23.7396 22.3474 23.7358C22.3621 23.7464 22.3764 23.7566 22.3911 23.7668C22.3859 23.7718 22.3806 23.7771 22.375 23.782L22.3754 23.7823Z" fill="#282525" />
	</g>
	<defs>
		<clipPath id="clip0_175_56257">
			<rect width="24" height="24" fill="white" />
		</clipPath>
	</defs>
</svg>